<svg width="1044" height="179" viewBox="0 0 1044 179" fill="none" xmlns="http://www.w3.org/2000/svg">
<path d="M128.53 135H100.798L94.5464 120.252H37.1584L30.9066 135H3.17439L51.4252 22.7887H80.1193L128.53 135ZM65.8524 52.2842L45.975 99.0924H85.5695L65.8524 52.2842ZM165.797 135H139.988V51.643H164.835L165.797 62.7039L163.232 68.4747C168.843 57.5742 176.377 49.2385 192.567 49.2385C213.246 49.2385 222.864 63.3451 222.864 84.3446V91.8788H198.819V88.8331C198.819 79.5356 195.292 71.8411 183.27 71.8411C171.087 71.8411 165.797 79.5356 165.797 90.917V135ZM280.458 137.405C250.321 137.405 234.291 117.848 234.291 93.3215C234.291 68.7953 250.321 49.2385 280.458 49.2385C306.427 49.2385 321.976 63.9863 324.38 84.9858H299.053C296.969 76.6501 290.076 72.1617 280.458 72.1617C267.313 72.1617 259.779 80.9783 259.779 93.3215C259.779 105.665 267.313 114.481 280.458 114.481C290.076 114.481 296.969 109.993 299.053 101.657H324.38C322.136 122.657 306.427 137.405 280.458 137.405ZM393.955 49.2385C417.52 49.2385 428.42 63.826 428.42 87.3903V135H402.451V92.1994C402.451 79.8562 397.322 71.8411 383.856 71.8411C370.391 71.8411 364.139 79.8562 364.139 92.1994V135H338.33V21.1857H364.139V62.7039L362.055 67.6732C367.666 57.4139 376.482 49.2385 393.955 49.2385ZM459.174 39.941C450.518 39.941 445.388 34.0098 445.388 26.7962C445.388 19.743 450.518 13.6515 459.174 13.6515C467.831 13.6515 472.96 19.743 472.96 26.7962C472.96 34.0098 467.831 39.941 459.174 39.941ZM472.159 135H446.35V51.643H472.159V135ZM545.964 135H518.392L482.965 51.643H509.736L531.697 106.146H532.659L554.781 51.643H581.551L545.964 135ZM675.22 101.016H610.137C612.221 111.436 618.794 117.687 631.618 117.687C639.793 117.687 646.045 114.962 648.449 109.191H672.976C670.411 123.298 655.663 137.405 630.175 137.405C600.359 137.405 584.168 118.168 584.168 93.3215C584.168 68.4747 600.679 49.2385 630.335 49.2385C659.831 49.2385 677.785 68.4747 675.22 101.016ZM630.335 68.1541C618.152 68.1541 611.58 74.2456 609.977 86.1079H650.052C647.808 73.2838 641.236 68.1541 630.335 68.1541ZM727.098 137.405C705.938 137.405 687.022 132.435 686.862 109.672H710.266C710.907 116.245 717.159 118.329 727.739 118.329C739.761 118.329 743.929 115.603 743.929 110.474C743.929 105.665 740.723 103.901 734.151 103.26L714.915 101.497C697.121 99.8939 687.663 92.3597 687.663 76.6501C687.663 58.6963 700.327 49.2385 728.701 49.2385C747.296 49.2385 766.532 53.4064 766.852 76.6501H743.609C742.807 70.5587 738.158 67.9938 727.739 67.9938C718.281 67.9938 712.831 70.0777 712.831 76.0089C712.831 80.4974 716.037 82.421 722.769 83.0622L742.006 84.8255C759.799 86.4285 769.417 92.6803 769.417 109.031C769.417 127.626 756.593 137.405 727.098 137.405ZM805.349 76.8104C796.532 76.8104 791.242 70.5587 791.242 63.0245C791.242 55.4903 796.532 49.2385 805.349 49.2385C814.165 49.2385 819.455 55.4903 819.455 63.0245C819.455 70.5587 814.165 76.8104 805.349 76.8104ZM800.7 151.03H776.975L792.525 108.55H816.249L800.7 151.03Z" fill="#FF83A6"/>
<path d="M965.49 54.7459L966.469 27.6386L949.02 48.406L936.731 63.0315L917.635 55.681L889.551 44.8706L906.591 69.6743L917.639 85.7544L905.634 100.042L887.46 121.672L914.942 115.123L934.597 110.439L946.039 127.093L962.037 150.378L963.056 122.145L963.73 103.496L982.708 98.9733L1011.98 91.9971L983.897 81.1867L964.801 73.8362L965.49 54.7459Z" fill="white" stroke="#FF83A6" stroke-width="18.6637"/>
<path d="M960.309 54.5588L960.744 42.5111L952.989 51.7411L938.321 69.1986L915.773 60.5193L903.291 55.7147L910.864 66.7386L924.145 86.0697L909.603 103.377L901.526 112.99L913.74 110.08L936.856 104.571L950.312 124.157L957.422 134.506L957.875 121.958L958.691 99.3672L981.506 93.9302L994.516 90.8296L982.034 86.025L959.486 77.3457L960.309 54.5588Z" fill="white" stroke="#353781" stroke-width="8.29499"/>
</svg>
