<svg width="484" height="232" viewBox="0 0 484 232" fill="none" xmlns="http://www.w3.org/2000/svg">
<rect y="44" width="484" height="161" rx="50" fill="#FF83A6"/>
<path opacity="0.4" d="M40.8323 97.2619C39.6099 97.2619 38.4385 97.1019 37.3179 96.7817C36.1974 96.447 35.2952 96.0177 34.6112 95.4938L35.8118 92.8307C36.4666 93.2964 37.2379 93.6821 38.1256 93.9877C39.0278 94.2787 39.9374 94.4242 40.8542 94.4242C41.5527 94.4242 42.113 94.3587 42.535 94.2278C42.9715 94.0822 43.2917 93.8858 43.4954 93.6384C43.6992 93.391 43.801 93.1072 43.801 92.7871C43.801 92.3796 43.641 92.0595 43.3208 91.8266C43.0006 91.5792 42.5786 91.3828 42.0547 91.2373C41.5309 91.0772 40.9488 90.9317 40.3085 90.8007C39.6827 90.6552 39.0497 90.4805 38.4094 90.2768C37.7836 90.0731 37.2088 89.8111 36.6849 89.491C36.161 89.1708 35.7317 88.7488 35.397 88.2249C35.0769 87.701 34.9168 87.0316 34.9168 86.2167C34.9168 85.3435 35.1496 84.5504 35.6153 83.8374C36.0955 83.1098 36.8086 82.5349 37.7545 82.1129C38.715 81.6763 39.9155 81.4581 41.3562 81.4581C42.3167 81.4581 43.2626 81.5745 44.1939 81.8073C45.1253 82.0256 45.9475 82.3603 46.6606 82.8114L45.5691 85.4963C44.8561 85.0889 44.143 84.7906 43.4299 84.6014C42.7169 84.3976 42.0184 84.2958 41.3344 84.2958C40.6504 84.2958 40.0902 84.3758 39.6536 84.5359C39.217 84.696 38.9042 84.907 38.715 85.1689C38.5258 85.4163 38.4312 85.7074 38.4312 86.0421C38.4312 86.435 38.5913 86.7551 38.9114 87.0025C39.2316 87.2354 39.6536 87.4245 40.1775 87.5701C40.7014 87.7156 41.2762 87.8611 41.9019 88.0066C42.5422 88.1522 43.1753 88.3195 43.801 88.5087C44.4413 88.6979 45.0234 88.9525 45.5473 89.2727C46.0712 89.5928 46.4932 90.0149 46.8134 90.5387C47.1481 91.0626 47.3154 91.7248 47.3154 92.5251C47.3154 93.3837 47.0753 94.1696 46.5951 94.8826C46.1149 95.5957 45.3945 96.1705 44.4341 96.6071C43.4882 97.0437 42.2876 97.2619 40.8323 97.2619ZM54.4467 97.1746C53.4717 97.1746 52.5986 96.9854 51.8273 96.6071C51.0706 96.2287 50.4812 95.6539 50.0592 94.8826C49.6372 94.0968 49.4261 93.1 49.4261 91.8921V85.2562H52.8314V91.3901C52.8314 92.3651 53.0351 93.0854 53.4426 93.5511C53.8646 94.0022 54.454 94.2278 55.2107 94.2278C55.7346 94.2278 56.2003 94.1186 56.6077 93.9003C57.0152 93.6675 57.3354 93.3182 57.5682 92.8526C57.801 92.3723 57.9175 91.7757 57.9175 91.0626V85.2562H61.3227V97H58.0921V93.7694L58.6815 94.708C58.2885 95.5229 57.7065 96.1414 56.9352 96.5634C56.1785 96.9709 55.349 97.1746 54.4467 97.1746ZM71.4189 97.1746C70.3857 97.1746 69.498 96.9563 68.7559 96.5198C68.0137 96.0832 67.4461 95.4211 67.0532 94.5334C66.6603 93.6311 66.4639 92.496 66.4639 91.1281C66.4639 89.7456 66.6676 88.6106 67.0751 87.7229C67.4971 86.8352 68.0792 86.173 68.8213 85.7365C69.5635 85.2999 70.4294 85.0816 71.4189 85.0816C72.5249 85.0816 73.5145 85.329 74.3876 85.8238C75.2753 86.3186 75.9738 87.0171 76.4832 87.9193C77.0071 88.8216 77.269 89.8912 77.269 91.1281C77.269 92.3505 77.0071 93.4128 76.4832 94.3151C75.9738 95.2173 75.2753 95.9231 74.3876 96.4325C73.5145 96.9272 72.5249 97.1746 71.4189 97.1746ZM64.4775 97V80.8032H67.8827V87.6355L67.6644 91.1063L67.7299 94.5989V97H64.4775ZM70.8296 94.3806C71.3971 94.3806 71.8992 94.2496 72.3357 93.9877C72.7869 93.7257 73.1434 93.3546 73.4053 92.8744C73.6818 92.3796 73.8201 91.7975 73.8201 91.1281C73.8201 90.4442 73.6818 89.8621 73.4053 89.3818C73.1434 88.9016 72.7869 88.5305 72.3357 88.2686C71.8992 88.0066 71.3971 87.8757 70.8296 87.8757C70.262 87.8757 69.7527 88.0066 69.3016 88.2686C68.8504 88.5305 68.4939 88.9016 68.232 89.3818C67.97 89.8621 67.8391 90.4442 67.8391 91.1281C67.8391 91.7975 67.97 92.3796 68.232 92.8744C68.4939 93.3546 68.8504 93.7257 69.3016 93.9877C69.7527 94.2496 70.262 94.3806 70.8296 94.3806ZM83.4995 97.1746C82.4954 97.1746 81.5277 97.0582 80.5963 96.8254C79.6795 96.578 78.9519 96.2724 78.4135 95.9086L79.5486 93.4638C80.087 93.7985 80.72 94.075 81.4476 94.2933C82.1898 94.497 82.9174 94.5989 83.6305 94.5989C84.4163 94.5989 84.9693 94.5043 85.2895 94.3151C85.6242 94.1259 85.7915 93.864 85.7915 93.5293C85.7915 93.2528 85.6606 93.049 85.3986 92.9181C85.1512 92.7725 84.8165 92.6634 84.3945 92.5906C83.9725 92.5179 83.5068 92.4451 82.9975 92.3723C82.5027 92.2996 82.0006 92.205 81.4913 92.0886C80.982 91.9576 80.5163 91.7684 80.0943 91.521C79.6722 91.2736 79.3303 90.9389 79.0683 90.5169C78.8209 90.0949 78.6972 89.5492 78.6972 88.8798C78.6972 88.1376 78.9082 87.4827 79.3303 86.9152C79.7668 86.3477 80.3926 85.9038 81.2075 85.5837C82.0225 85.249 82.9975 85.0816 84.1326 85.0816C84.9329 85.0816 85.7479 85.1689 86.5774 85.3435C87.4068 85.5182 88.0981 85.7728 88.6511 86.1075L87.516 88.5305C86.9484 88.1958 86.3736 87.9702 85.7915 87.8538C85.224 87.7229 84.671 87.6574 84.1326 87.6574C83.3758 87.6574 82.8228 87.7592 82.4736 87.963C82.1243 88.1667 81.9497 88.4286 81.9497 88.7488C81.9497 89.0398 82.0734 89.2581 82.3208 89.4037C82.5827 89.5492 82.9247 89.6656 83.3467 89.7529C83.7687 89.8402 84.2271 89.9203 84.7219 89.993C85.2313 90.0512 85.7406 90.1458 86.2499 90.2768C86.7593 90.4078 87.2177 90.597 87.6251 90.8443C88.0471 91.0772 88.3891 91.4046 88.6511 91.8266C88.913 92.2341 89.044 92.7725 89.044 93.4419C89.044 94.1696 88.8257 94.8171 88.3891 95.3847C87.9526 95.9377 87.3195 96.3742 86.49 96.6944C85.6751 97.0146 84.6783 97.1746 83.4995 97.1746ZM96.8204 97.1746C95.5544 97.1746 94.4265 96.92 93.437 96.4106C92.4474 95.8867 91.6689 95.1664 91.1013 94.2496C90.5483 93.3328 90.2718 92.2923 90.2718 91.1281C90.2718 89.9494 90.5483 88.9089 91.1013 88.0066C91.6689 87.0898 92.4474 86.3768 93.437 85.8674C94.4265 85.3435 95.5544 85.0816 96.8204 85.0816C98.0574 85.0816 99.1342 85.3435 100.051 85.8674C100.968 86.3768 101.645 87.1117 102.081 88.0721L99.4398 89.491C99.1342 88.938 98.7486 88.5305 98.2829 88.2686C97.8318 88.0066 97.337 87.8757 96.7986 87.8757C96.2165 87.8757 95.6926 88.0066 95.2269 88.2686C94.7612 88.5305 94.3902 88.9016 94.1137 89.3818C93.8517 89.8621 93.7208 90.4442 93.7208 91.1281C93.7208 91.8121 93.8517 92.3942 94.1137 92.8744C94.3902 93.3546 94.7612 93.7257 95.2269 93.9877C95.6926 94.2496 96.2165 94.3806 96.7986 94.3806C97.337 94.3806 97.8318 94.2569 98.2829 94.0095C98.7486 93.7475 99.1342 93.3328 99.4398 92.7653L102.081 94.2059C101.645 95.1518 100.968 95.8867 100.051 96.4106C99.1342 96.92 98.0574 97.1746 96.8204 97.1746ZM104.042 97V85.2562H107.294V88.5742L106.836 87.6137C107.185 86.7842 107.745 86.1585 108.517 85.7365C109.288 85.2999 110.227 85.0816 111.332 85.0816V88.2249C111.187 88.2104 111.056 88.2031 110.94 88.2031C110.823 88.1885 110.699 88.1813 110.568 88.1813C109.637 88.1813 108.88 88.4505 108.298 88.9889C107.731 89.5128 107.447 90.335 107.447 91.4555V97H104.042ZM113.379 97V85.2562H116.784V97H113.379ZM115.081 83.6191C114.455 83.6191 113.946 83.4372 113.553 83.0734C113.16 82.7096 112.964 82.2584 112.964 81.72C112.964 81.1816 113.16 80.7304 113.553 80.3666C113.946 80.0028 114.455 79.8209 115.081 79.8209C115.707 79.8209 116.216 79.9955 116.609 80.3448C117.002 80.6795 117.199 81.1161 117.199 81.6545C117.199 82.2221 117.002 82.695 116.609 83.0734C116.231 83.4372 115.722 83.6191 115.081 83.6191ZM126.886 97.1746C125.896 97.1746 125.03 96.9563 124.288 96.5198C123.546 96.0832 122.964 95.4211 122.542 94.5334C122.134 93.6311 121.931 92.496 121.931 91.1281C121.931 89.7456 122.127 88.6106 122.52 87.7229C122.913 86.8352 123.48 86.173 124.223 85.7365C124.965 85.2999 125.852 85.0816 126.886 85.0816C127.992 85.0816 128.981 85.3363 129.854 85.8456C130.742 86.3404 131.441 87.0389 131.95 87.9411C132.474 88.8434 132.736 89.9057 132.736 91.1281C132.736 92.3651 132.474 93.4347 131.95 94.3369C131.441 95.2392 130.742 95.9377 129.854 96.4325C128.981 96.9272 127.992 97.1746 126.886 97.1746ZM119.944 101.235V85.2562H123.197V87.6574L123.131 91.1499L123.349 94.6207V101.235H119.944ZM126.296 94.3806C126.864 94.3806 127.366 94.2496 127.802 93.9877C128.254 93.7257 128.61 93.3546 128.872 92.8744C129.149 92.3796 129.287 91.7975 129.287 91.1281C129.287 90.4442 129.149 89.8621 128.872 89.3818C128.61 88.9016 128.254 88.5305 127.802 88.2686C127.366 88.0066 126.864 87.8757 126.296 87.8757C125.729 87.8757 125.219 88.0066 124.768 88.2686C124.317 88.5305 123.961 88.9016 123.699 89.3818C123.437 89.8621 123.306 90.4442 123.306 91.1281C123.306 91.7975 123.437 92.3796 123.699 92.8744C123.961 93.3546 124.317 93.7257 124.768 93.9877C125.219 94.2496 125.729 94.3806 126.296 94.3806ZM139.818 97.1746C138.435 97.1746 137.358 96.8254 136.587 96.1269C135.816 95.4138 135.43 94.3587 135.43 92.9617V82.6586H138.835V92.9181C138.835 93.4128 138.966 93.7985 139.228 94.075C139.49 94.3369 139.847 94.4679 140.298 94.4679C140.836 94.4679 141.295 94.3224 141.673 94.0313L142.59 96.4325C142.241 96.6798 141.819 96.869 141.324 97C140.844 97.1164 140.341 97.1746 139.818 97.1746ZM133.618 88.1376V85.5182H141.76V88.1376H133.618ZM144.501 97V85.2562H147.907V97H144.501ZM146.204 83.6191C145.578 83.6191 145.069 83.4372 144.676 83.0734C144.283 82.7096 144.087 82.2584 144.087 81.72C144.087 81.1816 144.283 80.7304 144.676 80.3666C145.069 80.0028 145.578 79.8209 146.204 79.8209C146.83 79.8209 147.339 79.9955 147.732 80.3448C148.125 80.6795 148.321 81.1161 148.321 81.6545C148.321 82.2221 148.125 82.695 147.732 83.0734C147.354 83.4372 146.844 83.6191 146.204 83.6191ZM156.655 97.1746C155.404 97.1746 154.29 96.9127 153.315 96.3888C152.355 95.8649 151.591 95.1518 151.023 94.2496C150.47 93.3328 150.194 92.2923 150.194 91.1281C150.194 89.9494 150.47 88.9089 151.023 88.0066C151.591 87.0898 152.355 86.3768 153.315 85.8674C154.29 85.3435 155.404 85.0816 156.655 85.0816C157.892 85.0816 158.998 85.3435 159.973 85.8674C160.948 86.3768 161.712 87.0826 162.265 87.9848C162.818 88.887 163.094 89.9348 163.094 91.1281C163.094 92.2923 162.818 93.3328 162.265 94.2496C161.712 95.1518 160.948 95.8649 159.973 96.3888C158.998 96.9127 157.892 97.1746 156.655 97.1746ZM156.655 94.3806C157.223 94.3806 157.732 94.2496 158.183 93.9877C158.634 93.7257 158.991 93.3546 159.253 92.8744C159.515 92.3796 159.646 91.7975 159.646 91.1281C159.646 90.4442 159.515 89.8621 159.253 89.3818C158.991 88.9016 158.634 88.5305 158.183 88.2686C157.732 88.0066 157.223 87.8757 156.655 87.8757C156.088 87.8757 155.578 88.0066 155.127 88.2686C154.676 88.5305 154.312 88.9016 154.036 89.3818C153.774 89.8621 153.643 90.4442 153.643 91.1281C153.643 91.7975 153.774 92.3796 154.036 92.8744C154.312 93.3546 154.676 93.7257 155.127 93.9877C155.578 94.2496 156.088 94.3806 156.655 94.3806ZM172.509 85.0816C173.44 85.0816 174.269 85.2708 174.997 85.6491C175.739 86.013 176.321 86.5805 176.743 87.3518C177.165 88.1085 177.376 89.0835 177.376 90.2768V97H173.971V90.8007C173.971 89.8548 173.76 89.1563 173.338 88.7051C172.931 88.254 172.349 88.0285 171.592 88.0285C171.053 88.0285 170.566 88.1449 170.129 88.3777C169.707 88.596 169.373 88.938 169.125 89.4037C168.892 89.8693 168.776 90.466 168.776 91.1936V97H165.371V85.2562H168.623V88.5087L168.012 87.5264C168.434 86.7406 169.038 86.1366 169.824 85.7146C170.609 85.2926 171.504 85.0816 172.509 85.0816ZM179.874 100.362L181.314 95.1227L181.795 97.0873C181.169 97.0873 180.652 96.9054 180.245 96.5416C179.852 96.1778 179.655 95.6757 179.655 95.0354C179.655 94.3951 179.859 93.8858 180.267 93.5074C180.674 93.1291 181.176 92.9399 181.773 92.9399C182.384 92.9399 182.886 93.1363 183.279 93.5293C183.672 93.9076 183.868 94.4097 183.868 95.0354C183.868 95.2246 183.854 95.4138 183.825 95.603C183.796 95.7776 183.737 95.9959 183.65 96.2578C183.577 96.5052 183.454 96.8254 183.279 97.2183L182.035 100.362H179.874ZM35.8118 117V101.72H39.348V117H35.8118ZM47.7766 117.175C46.6706 117.175 45.6737 116.927 44.786 116.432C43.8983 115.923 43.1926 115.217 42.6687 114.315C42.1593 113.413 41.9047 112.351 41.9047 111.128C41.9047 109.891 42.1593 108.822 42.6687 107.919C43.1926 107.017 43.8983 106.319 44.786 105.824C45.6737 105.329 46.6706 105.082 47.7766 105.082C48.7661 105.082 49.632 105.3 50.3742 105.736C51.1163 106.173 51.6911 106.835 52.0986 107.723C52.5061 108.611 52.7098 109.746 52.7098 111.128C52.7098 112.496 52.5134 113.631 52.1204 114.533C51.7275 115.421 51.16 116.083 50.4178 116.52C49.6902 116.956 48.8098 117.175 47.7766 117.175ZM48.3659 114.381C48.9189 114.381 49.421 114.25 49.8721 113.988C50.3232 113.726 50.6798 113.355 50.9417 112.874C51.2182 112.38 51.3564 111.798 51.3564 111.128C51.3564 110.444 51.2182 109.862 50.9417 109.382C50.6798 108.902 50.3232 108.531 49.8721 108.269C49.421 108.007 48.9189 107.876 48.3659 107.876C47.7984 107.876 47.2891 108.007 46.8379 108.269C46.3868 108.531 46.023 108.902 45.7465 109.382C45.4846 109.862 45.3536 110.444 45.3536 111.128C45.3536 111.798 45.4846 112.38 45.7465 112.874C46.023 113.355 46.3868 113.726 46.8379 113.988C47.2891 114.25 47.7984 114.381 48.3659 114.381ZM51.4438 117V114.599L51.5092 111.106L51.291 107.636V100.803H54.6962V117H51.4438ZM63.6761 117.175C62.3373 117.175 61.1585 116.913 60.1399 116.389C59.1358 115.865 58.3572 115.152 57.8042 114.25C57.2512 113.333 56.9747 112.292 56.9747 111.128C56.9747 109.949 57.244 108.909 57.7824 108.007C58.3354 107.09 59.0848 106.377 60.0307 105.867C60.9766 105.344 62.0462 105.082 63.2395 105.082C64.3892 105.082 65.4224 105.329 66.3392 105.824C67.2705 106.304 68.0054 107.003 68.5439 107.919C69.0823 108.822 69.3515 109.906 69.3515 111.172C69.3515 111.303 69.3443 111.456 69.3297 111.63C69.3152 111.79 69.3006 111.943 69.2861 112.089H59.747V110.102H67.4961L66.1864 110.692C66.1864 110.08 66.0627 109.549 65.8153 109.098C65.5679 108.647 65.2259 108.298 64.7894 108.05C64.3528 107.788 63.8435 107.657 63.2614 107.657C62.6793 107.657 62.1627 107.788 61.7115 108.05C61.275 108.298 60.933 108.654 60.6856 109.12C60.4382 109.571 60.3145 110.109 60.3145 110.735V111.259C60.3145 111.899 60.4528 112.467 60.7293 112.962C61.0203 113.442 61.4205 113.813 61.9298 114.075C62.4537 114.322 63.0649 114.446 63.7634 114.446C64.3892 114.446 64.9349 114.351 65.4006 114.162C65.8808 113.973 66.3174 113.689 66.7103 113.311L68.5221 115.276C67.9836 115.887 67.3069 116.36 66.492 116.694C65.6771 117.015 64.7384 117.175 63.6761 117.175ZM78.5023 117V114.708L78.284 114.206V110.102C78.284 109.375 78.0585 108.807 77.6073 108.4C77.1708 107.992 76.4941 107.788 75.5773 107.788C74.9515 107.788 74.3331 107.89 73.7219 108.094C73.1252 108.283 72.6159 108.545 72.1939 108.88L70.9715 106.5C71.6118 106.049 72.383 105.7 73.2853 105.453C74.1875 105.205 75.1043 105.082 76.0357 105.082C77.8256 105.082 79.2154 105.504 80.2049 106.348C81.1945 107.192 81.6893 108.509 81.6893 110.299V117H78.5023ZM74.9224 117.175C74.0056 117.175 73.2198 117.022 72.5649 116.716C71.9101 116.396 71.408 115.967 71.0588 115.428C70.7095 114.89 70.5349 114.286 70.5349 113.617C70.5349 112.918 70.7022 112.307 71.0369 111.783C71.3862 111.259 71.9319 110.852 72.6741 110.561C73.4163 110.255 74.384 110.102 75.5773 110.102H78.6988V112.089H75.9484C75.148 112.089 74.595 112.22 74.2894 112.481C73.9984 112.743 73.8528 113.071 73.8528 113.464C73.8528 113.9 74.0202 114.25 74.3549 114.512C74.7041 114.759 75.1771 114.883 75.7737 114.883C76.3413 114.883 76.8506 114.752 77.3017 114.49C77.7529 114.213 78.0803 113.813 78.284 113.289L78.8079 114.861C78.5605 115.618 78.1094 116.192 77.4545 116.585C76.7997 116.978 75.9556 117.175 74.9224 117.175ZM101.671 101.72H105.207V117H101.671V101.72ZM94.7295 117H91.1932V101.72H94.7295V117ZM101.933 110.735H94.4675V107.745H101.933V110.735ZM113.537 117.175C112.562 117.175 111.689 116.985 110.918 116.607C110.161 116.229 109.572 115.654 109.15 114.883C108.728 114.097 108.517 113.1 108.517 111.892V105.256H111.922V111.39C111.922 112.365 112.126 113.085 112.533 113.551C112.955 114.002 113.545 114.228 114.301 114.228C114.825 114.228 115.291 114.119 115.698 113.9C116.106 113.668 116.426 113.318 116.659 112.853C116.892 112.372 117.008 111.776 117.008 111.063V105.256H120.413V117H117.183V113.769L117.772 114.708C117.379 115.523 116.797 116.141 116.026 116.563C115.269 116.971 114.44 117.175 113.537 117.175ZM130.51 117.175C129.476 117.175 128.589 116.956 127.846 116.52C127.104 116.083 126.537 115.421 126.144 114.533C125.751 113.631 125.554 112.496 125.554 111.128C125.554 109.746 125.758 108.611 126.166 107.723C126.588 106.835 127.17 106.173 127.912 105.736C128.654 105.3 129.52 105.082 130.51 105.082C131.616 105.082 132.605 105.329 133.478 105.824C134.366 106.319 135.064 107.017 135.574 107.919C136.098 108.822 136.36 109.891 136.36 111.128C136.36 112.351 136.098 113.413 135.574 114.315C135.064 115.217 134.366 115.923 133.478 116.432C132.605 116.927 131.616 117.175 130.51 117.175ZM123.568 117V100.803H126.973V107.636L126.755 111.106L126.821 114.599V117H123.568ZM129.92 114.381C130.488 114.381 130.99 114.25 131.426 113.988C131.877 113.726 132.234 113.355 132.496 112.874C132.772 112.38 132.911 111.798 132.911 111.128C132.911 110.444 132.772 109.862 132.496 109.382C132.234 108.902 131.877 108.531 131.426 108.269C130.99 108.007 130.488 107.876 129.92 107.876C129.353 107.876 128.843 108.007 128.392 108.269C127.941 108.531 127.585 108.902 127.323 109.382C127.061 109.862 126.93 110.444 126.93 111.128C126.93 111.798 127.061 112.38 127.323 112.874C127.585 113.355 127.941 113.726 128.392 113.988C128.843 114.25 129.353 114.381 129.92 114.381ZM137.922 120.362L139.363 115.123L139.843 117.087C139.217 117.087 138.7 116.905 138.293 116.542C137.9 116.178 137.704 115.676 137.704 115.035C137.704 114.395 137.907 113.886 138.315 113.507C138.722 113.129 139.224 112.94 139.821 112.94C140.432 112.94 140.934 113.136 141.327 113.529C141.72 113.908 141.917 114.41 141.917 115.035C141.917 115.225 141.902 115.414 141.873 115.603C141.844 115.778 141.786 115.996 141.698 116.258C141.625 116.505 141.502 116.825 141.327 117.218L140.083 120.362H137.922ZM43.1243 137.262C41.9456 137.262 40.8469 137.073 39.8282 136.694C38.8241 136.301 37.951 135.748 37.2088 135.035C36.4666 134.322 35.8845 133.486 35.4625 132.525C35.055 131.565 34.8513 130.51 34.8513 129.36C34.8513 128.21 35.055 127.155 35.4625 126.195C35.8845 125.234 36.4666 124.398 37.2088 123.685C37.9655 122.972 38.8459 122.426 39.8501 122.047C40.8542 121.655 41.9529 121.458 43.1462 121.458C44.4704 121.458 45.6637 121.691 46.7261 122.157C47.8029 122.608 48.7052 123.277 49.4328 124.165L47.1626 126.26C46.6387 125.664 46.0566 125.22 45.4163 124.929C44.776 124.623 44.0775 124.47 43.3208 124.47C42.6077 124.47 41.9529 124.587 41.3562 124.82C40.7596 125.052 40.243 125.387 39.8064 125.824C39.3698 126.26 39.0278 126.777 38.7805 127.374C38.5476 127.97 38.4312 128.632 38.4312 129.36C38.4312 130.088 38.5476 130.75 38.7805 131.346C39.0278 131.943 39.3698 132.46 39.8064 132.896C40.243 133.333 40.7596 133.668 41.3562 133.9C41.9529 134.133 42.6077 134.25 43.3208 134.25C44.0775 134.25 44.776 134.104 45.4163 133.813C46.0566 133.507 46.6387 133.049 47.1626 132.438L49.4328 134.533C48.7052 135.421 47.8029 136.098 46.7261 136.563C45.6637 137.029 44.4632 137.262 43.1243 137.262ZM56.7638 137.175C55.5123 137.175 54.399 136.913 53.424 136.389C52.4636 135.865 51.6996 135.152 51.132 134.25C50.579 133.333 50.3025 132.292 50.3025 131.128C50.3025 129.949 50.579 128.909 51.132 128.007C51.6996 127.09 52.4636 126.377 53.424 125.867C54.399 125.344 55.5123 125.082 56.7638 125.082C58.0007 125.082 59.1067 125.344 60.0817 125.867C61.0567 126.377 61.8207 127.083 62.3737 127.985C62.9267 128.887 63.2032 129.935 63.2032 131.128C63.2032 132.292 62.9267 133.333 62.3737 134.25C61.8207 135.152 61.0567 135.865 60.0817 136.389C59.1067 136.913 58.0007 137.175 56.7638 137.175ZM56.7638 134.381C57.3313 134.381 57.8407 134.25 58.2918 133.988C58.7429 133.726 59.0994 133.355 59.3614 132.874C59.6233 132.38 59.7543 131.798 59.7543 131.128C59.7543 130.444 59.6233 129.862 59.3614 129.382C59.0994 128.902 58.7429 128.531 58.2918 128.269C57.8407 128.007 57.3313 127.876 56.7638 127.876C56.1962 127.876 55.6869 128.007 55.2358 128.269C54.7847 128.531 54.4209 128.902 54.1444 129.382C53.8824 129.862 53.7514 130.444 53.7514 131.128C53.7514 131.798 53.8824 132.38 54.1444 132.874C54.4209 133.355 54.7847 133.726 55.2358 133.988C55.6869 134.25 56.1962 134.381 56.7638 134.381ZM72.6173 125.082C73.5486 125.082 74.3781 125.271 75.1058 125.649C75.8479 126.013 76.43 126.58 76.852 127.352C77.2741 128.108 77.4851 129.084 77.4851 130.277V137H74.0798V130.801C74.0798 129.855 73.8688 129.156 73.4468 128.705C73.0393 128.254 72.4572 128.028 71.7005 128.028C71.1621 128.028 70.6746 128.145 70.238 128.378C69.816 128.596 69.4813 128.938 69.2339 129.404C69.001 129.869 68.8846 130.466 68.8846 131.194V137H65.4794V125.256H68.7318V128.509L68.1206 127.526C68.5426 126.741 69.1466 126.137 69.9324 125.715C70.7182 125.293 71.6132 125.082 72.6173 125.082ZM85.374 137.175C83.9916 137.175 82.9147 136.825 82.1434 136.127C81.3721 135.414 80.9865 134.359 80.9865 132.962V122.659H84.3918V132.918C84.3918 133.413 84.5227 133.798 84.7847 134.075C85.0466 134.337 85.4032 134.468 85.8543 134.468C86.3927 134.468 86.8511 134.322 87.2295 134.031L88.1463 136.432C87.797 136.68 87.375 136.869 86.8802 137C86.4 137.116 85.8979 137.175 85.374 137.175ZM79.1747 128.138V125.518H87.3168V128.138H79.1747ZM97.2612 137V134.708L97.043 134.206V130.102C97.043 129.375 96.8174 128.807 96.3663 128.4C95.9297 127.992 95.253 127.788 94.3362 127.788C93.7105 127.788 93.092 127.89 92.4808 128.094C91.8841 128.283 91.3748 128.545 90.9528 128.88L89.7304 126.5C90.3707 126.049 91.142 125.7 92.0442 125.453C92.9465 125.205 93.8633 125.082 94.7946 125.082C96.5846 125.082 97.9743 125.504 98.9639 126.348C99.9534 127.192 100.448 128.509 100.448 130.299V137H97.2612ZM93.6814 137.175C92.7646 137.175 91.9787 137.022 91.3239 136.716C90.669 136.396 90.167 135.967 89.8177 135.428C89.4684 134.89 89.2938 134.286 89.2938 133.617C89.2938 132.918 89.4612 132.307 89.7959 131.783C90.1451 131.259 90.6908 130.852 91.433 130.561C92.1752 130.255 93.1429 130.102 94.3362 130.102H97.4577V132.089H94.7073C93.9069 132.089 93.3539 132.22 93.0483 132.481C92.7573 132.743 92.6118 133.071 92.6118 133.464C92.6118 133.9 92.7791 134.25 93.1138 134.512C93.4631 134.759 93.936 134.883 94.5327 134.883C95.1002 134.883 95.6095 134.752 96.0607 134.49C96.5118 134.213 96.8392 133.813 97.043 133.289L97.5668 134.861C97.3195 135.618 96.8683 136.192 96.2135 136.585C95.5586 136.978 94.7146 137.175 93.6814 137.175ZM109.291 137.175C108.025 137.175 106.897 136.92 105.907 136.411C104.918 135.887 104.139 135.166 103.572 134.25C103.019 133.333 102.742 132.292 102.742 131.128C102.742 129.949 103.019 128.909 103.572 128.007C104.139 127.09 104.918 126.377 105.907 125.867C106.897 125.344 108.025 125.082 109.291 125.082C110.528 125.082 111.605 125.344 112.521 125.867C113.438 126.377 114.115 127.112 114.552 128.072L111.91 129.491C111.605 128.938 111.219 128.531 110.753 128.269C110.302 128.007 109.807 127.876 109.269 127.876C108.687 127.876 108.163 128.007 107.697 128.269C107.232 128.531 106.861 128.902 106.584 129.382C106.322 129.862 106.191 130.444 106.191 131.128C106.191 131.812 106.322 132.394 106.584 132.874C106.861 133.355 107.232 133.726 107.697 133.988C108.163 134.25 108.687 134.381 109.269 134.381C109.807 134.381 110.302 134.257 110.753 134.009C111.219 133.748 111.605 133.333 111.91 132.765L114.552 134.206C114.115 135.152 113.438 135.887 112.521 136.411C111.605 136.92 110.528 137.175 109.291 137.175ZM121.485 137.175C120.103 137.175 119.026 136.825 118.254 136.127C117.483 135.414 117.097 134.359 117.097 132.962V122.659H120.503V132.918C120.503 133.413 120.634 133.798 120.896 134.075C121.158 134.337 121.514 134.468 121.965 134.468C122.504 134.468 122.962 134.322 123.34 134.031L124.257 136.432C123.908 136.68 123.486 136.869 122.991 137C122.511 137.116 122.009 137.175 121.485 137.175ZM115.286 128.138V125.518H123.428V128.138H115.286ZM137.306 137.175C136.331 137.175 135.458 136.985 134.686 136.607C133.93 136.229 133.34 135.654 132.918 134.883C132.496 134.097 132.285 133.1 132.285 131.892V125.256H135.69V131.39C135.69 132.365 135.894 133.085 136.302 133.551C136.724 134.002 137.313 134.228 138.07 134.228C138.594 134.228 139.059 134.119 139.467 133.9C139.874 133.668 140.194 133.318 140.427 132.853C140.66 132.372 140.776 131.776 140.776 131.063V125.256H144.182V137H140.951V133.769L141.54 134.708C141.148 135.523 140.565 136.141 139.794 136.563C139.037 136.971 138.208 137.175 137.306 137.175ZM151.287 137.175C150.283 137.175 149.316 137.058 148.384 136.825C147.467 136.578 146.74 136.272 146.201 135.909L147.336 133.464C147.875 133.798 148.508 134.075 149.236 134.293C149.978 134.497 150.705 134.599 151.418 134.599C152.204 134.599 152.757 134.504 153.077 134.315C153.412 134.126 153.579 133.864 153.579 133.529C153.579 133.253 153.448 133.049 153.187 132.918C152.939 132.773 152.604 132.663 152.182 132.591C151.76 132.518 151.295 132.445 150.785 132.372C150.291 132.3 149.789 132.205 149.279 132.089C148.77 131.958 148.304 131.768 147.882 131.521C147.46 131.274 147.118 130.939 146.856 130.517C146.609 130.095 146.485 129.549 146.485 128.88C146.485 128.138 146.696 127.483 147.118 126.915C147.555 126.348 148.181 125.904 148.995 125.584C149.81 125.249 150.785 125.082 151.92 125.082C152.721 125.082 153.536 125.169 154.365 125.344C155.195 125.518 155.886 125.773 156.439 126.108L155.304 128.531C154.736 128.196 154.162 127.97 153.579 127.854C153.012 127.723 152.459 127.657 151.92 127.657C151.164 127.657 150.611 127.759 150.262 127.963C149.912 128.167 149.738 128.429 149.738 128.749C149.738 129.04 149.861 129.258 150.109 129.404C150.371 129.549 150.713 129.666 151.135 129.753C151.557 129.84 152.015 129.92 152.51 129.993C153.019 130.051 153.529 130.146 154.038 130.277C154.547 130.408 155.006 130.597 155.413 130.844C155.835 131.077 156.177 131.405 156.439 131.827C156.701 132.234 156.832 132.773 156.832 133.442C156.832 134.17 156.614 134.817 156.177 135.385C155.74 135.938 155.107 136.374 154.278 136.694C153.463 137.015 152.466 137.175 151.287 137.175ZM161.821 131.696C161.821 131.186 161.901 130.735 162.061 130.342C162.236 129.949 162.447 129.6 162.694 129.295C162.956 128.989 163.233 128.705 163.524 128.443C163.815 128.181 164.084 127.934 164.331 127.701C164.593 127.454 164.804 127.199 164.964 126.937C165.139 126.675 165.226 126.384 165.226 126.064C165.226 125.54 165.008 125.118 164.571 124.798C164.149 124.478 163.582 124.318 162.869 124.318C162.185 124.318 161.574 124.463 161.035 124.754C160.497 125.031 160.053 125.424 159.704 125.933L157.062 124.383C157.644 123.495 158.452 122.79 159.485 122.266C160.518 121.727 161.77 121.458 163.24 121.458C164.331 121.458 165.292 121.618 166.121 121.938C166.951 122.244 167.598 122.695 168.064 123.292C168.544 123.888 168.784 124.623 168.784 125.496C168.784 126.064 168.697 126.566 168.522 127.003C168.348 127.439 168.122 127.817 167.846 128.138C167.569 128.458 167.271 128.756 166.951 129.033C166.645 129.309 166.354 129.578 166.078 129.84C165.801 130.102 165.568 130.379 165.379 130.67C165.204 130.961 165.117 131.303 165.117 131.696H161.821ZM163.48 137.175C162.869 137.175 162.367 136.978 161.974 136.585C161.581 136.192 161.384 135.727 161.384 135.188C161.384 134.635 161.581 134.177 161.974 133.813C162.367 133.435 162.869 133.245 163.48 133.245C164.106 133.245 164.608 133.435 164.986 133.813C165.379 134.177 165.575 134.635 165.575 135.188C165.575 135.727 165.379 136.192 164.986 136.585C164.608 136.978 164.106 137.175 163.48 137.175ZM43.1243 177.262C41.9456 177.262 40.8469 177.073 39.8282 176.694C38.8241 176.301 37.951 175.748 37.2088 175.035C36.4666 174.322 35.8845 173.486 35.4625 172.525C35.055 171.565 34.8513 170.51 34.8513 169.36C34.8513 168.21 35.055 167.155 35.4625 166.195C35.8845 165.234 36.4666 164.398 37.2088 163.685C37.9655 162.972 38.8459 162.426 39.8501 162.047C40.8542 161.655 41.9529 161.458 43.1462 161.458C44.4704 161.458 45.6637 161.691 46.7261 162.157C47.8029 162.608 48.7052 163.277 49.4328 164.165L47.1626 166.26C46.6387 165.664 46.0566 165.22 45.4163 164.929C44.776 164.623 44.0775 164.47 43.3208 164.47C42.6077 164.47 41.9529 164.587 41.3562 164.82C40.7596 165.052 40.243 165.387 39.8064 165.824C39.3698 166.26 39.0278 166.777 38.7805 167.374C38.5476 167.97 38.4312 168.632 38.4312 169.36C38.4312 170.088 38.5476 170.75 38.7805 171.346C39.0278 171.943 39.3698 172.46 39.8064 172.896C40.243 173.333 40.7596 173.668 41.3562 173.9C41.9529 174.133 42.6077 174.25 43.3208 174.25C44.0775 174.25 44.776 174.104 45.4163 173.813C46.0566 173.507 46.6387 173.049 47.1626 172.438L49.4328 174.533C48.7052 175.421 47.8029 176.098 46.7261 176.563C45.6637 177.029 44.4632 177.262 43.1243 177.262ZM51.5807 177V160.803H54.986V177H51.5807ZM58.1463 177V165.256H61.5516V177H58.1463ZM59.8489 163.619C59.2232 163.619 58.7139 163.437 58.3209 163.073C57.928 162.71 57.7316 162.258 57.7316 161.72C57.7316 161.182 57.928 160.73 58.3209 160.367C58.7139 160.003 59.2232 159.821 59.8489 159.821C60.4747 159.821 60.984 159.996 61.3769 160.345C61.7699 160.68 61.9663 161.116 61.9663 161.655C61.9663 162.222 61.7699 162.695 61.3769 163.073C60.9986 163.437 60.4893 163.619 59.8489 163.619ZM70.3874 177.175C69.1213 177.175 67.9935 176.92 67.0039 176.411C66.0144 175.887 65.2358 175.166 64.6683 174.25C64.1153 173.333 63.8388 172.292 63.8388 171.128C63.8388 169.949 64.1153 168.909 64.6683 168.007C65.2358 167.09 66.0144 166.377 67.0039 165.867C67.9935 165.344 69.1213 165.082 70.3874 165.082C71.6243 165.082 72.7012 165.344 73.618 165.867C74.5348 166.377 75.2115 167.112 75.6481 168.072L73.0068 169.491C72.7012 168.938 72.3156 168.531 71.8499 168.269C71.3988 168.007 70.904 167.876 70.3655 167.876C69.7834 167.876 69.2596 168.007 68.7939 168.269C68.3282 168.531 67.9571 168.902 67.6806 169.382C67.4187 169.862 67.2877 170.444 67.2877 171.128C67.2877 171.812 67.4187 172.394 67.6806 172.874C67.9571 173.355 68.3282 173.726 68.7939 173.988C69.2596 174.25 69.7834 174.381 70.3655 174.381C70.904 174.381 71.3988 174.257 71.8499 174.009C72.3156 173.748 72.7012 173.333 73.0068 172.765L75.6481 174.206C75.2115 175.152 74.5348 175.887 73.618 176.411C72.7012 176.92 71.6243 177.175 70.3874 177.175ZM80.3606 174.599L80.448 170.451L85.9269 165.256H89.987L84.7264 170.604L82.9582 172.045L80.3606 174.599ZM77.5448 177V160.803H80.95V177H77.5448ZM86.298 177L82.3252 172.067L84.4644 169.425L90.4236 177H86.298ZM108.855 161.72H112.391V177H108.855V161.72ZM101.913 177H98.3771V161.72H101.913V177ZM109.117 170.735H101.651V167.745H109.117V170.735ZM121.594 177.175C120.255 177.175 119.077 176.913 118.058 176.389C117.054 175.865 116.275 175.152 115.722 174.25C115.169 173.333 114.893 172.292 114.893 171.128C114.893 169.949 115.162 168.909 115.701 168.007C116.254 167.09 117.003 166.377 117.949 165.867C118.895 165.344 119.964 165.082 121.158 165.082C122.307 165.082 123.341 165.329 124.257 165.824C125.189 166.304 125.924 167.003 126.462 167.919C127.001 168.822 127.27 169.906 127.27 171.172C127.27 171.303 127.262 171.456 127.248 171.63C127.233 171.79 127.219 171.943 127.204 172.089H117.665V170.102H125.414L124.105 170.692C124.105 170.08 123.981 169.549 123.733 169.098C123.486 168.647 123.144 168.298 122.708 168.05C122.271 167.788 121.762 167.657 121.18 167.657C120.597 167.657 120.081 167.788 119.63 168.05C119.193 168.298 118.851 168.654 118.604 169.12C118.356 169.571 118.233 170.109 118.233 170.735V171.259C118.233 171.899 118.371 172.467 118.647 172.962C118.938 173.442 119.339 173.813 119.848 174.075C120.372 174.322 120.983 174.446 121.682 174.446C122.307 174.446 122.853 174.351 123.319 174.162C123.799 173.973 124.236 173.689 124.628 173.311L126.44 175.276C125.902 175.887 125.225 176.36 124.41 176.694C123.595 177.015 122.657 177.175 121.594 177.175ZM129.537 177V165.256H132.789V168.574L132.331 167.614C132.68 166.784 133.24 166.158 134.012 165.736C134.783 165.3 135.722 165.082 136.828 165.082V168.225C136.682 168.21 136.551 168.203 136.435 168.203C136.318 168.189 136.195 168.181 136.064 168.181C135.132 168.181 134.375 168.45 133.793 168.989C133.226 169.513 132.942 170.335 132.942 171.456V177H129.537ZM144.595 177.175C143.256 177.175 142.078 176.913 141.059 176.389C140.055 175.865 139.276 175.152 138.723 174.25C138.17 173.333 137.894 172.292 137.894 171.128C137.894 169.949 138.163 168.909 138.702 168.007C139.255 167.09 140.004 166.377 140.95 165.867C141.896 165.344 142.965 165.082 144.159 165.082C145.308 165.082 146.342 165.329 147.258 165.824C148.19 166.304 148.925 167.003 149.463 167.919C150.002 168.822 150.271 169.906 150.271 171.172C150.271 171.303 150.263 171.456 150.249 171.63C150.234 171.79 150.22 171.943 150.205 172.089H140.666V170.102H148.415L147.106 170.692C147.106 170.08 146.982 169.549 146.734 169.098C146.487 168.647 146.145 168.298 145.709 168.05C145.272 167.788 144.763 167.657 144.181 167.657C143.598 167.657 143.082 167.788 142.631 168.05C142.194 168.298 141.852 168.654 141.605 169.12C141.357 169.571 141.234 170.109 141.234 170.735V171.259C141.234 171.899 141.372 172.467 141.648 172.962C141.939 173.442 142.34 173.813 142.849 174.075C143.373 174.322 143.984 174.446 144.683 174.446C145.308 174.446 145.854 174.351 146.32 174.162C146.8 173.973 147.237 173.689 147.629 173.311L149.441 175.276C148.903 175.887 148.226 176.36 147.411 176.694C146.596 177.015 145.658 177.175 144.595 177.175ZM153.826 177.175C153.244 177.175 152.742 176.978 152.32 176.585C151.912 176.178 151.708 175.661 151.708 175.035C151.708 174.41 151.912 173.908 152.32 173.529C152.742 173.136 153.244 172.94 153.826 172.94C154.422 172.94 154.924 173.136 155.332 173.529C155.739 173.908 155.943 174.41 155.943 175.035C155.943 175.661 155.739 176.178 155.332 176.585C154.924 176.978 154.422 177.175 153.826 177.175Z" fill="white"/>
<path opacity="0.7" d="M43.1243 177.262C41.9456 177.262 40.8469 177.073 39.8282 176.694C38.8241 176.301 37.951 175.748 37.2088 175.035C36.4666 174.322 35.8845 173.486 35.4625 172.525C35.055 171.565 34.8513 170.51 34.8513 169.36C34.8513 168.21 35.055 167.155 35.4625 166.195C35.8845 165.234 36.4666 164.398 37.2088 163.685C37.9655 162.972 38.8459 162.426 39.8501 162.047C40.8542 161.655 41.9529 161.458 43.1462 161.458C44.4704 161.458 45.6637 161.691 46.7261 162.157C47.8029 162.608 48.7052 163.277 49.4328 164.165L47.1626 166.26C46.6387 165.664 46.0566 165.22 45.4163 164.929C44.776 164.623 44.0775 164.47 43.3208 164.47C42.6077 164.47 41.9529 164.587 41.3562 164.82C40.7596 165.052 40.243 165.387 39.8064 165.824C39.3698 166.26 39.0278 166.777 38.7805 167.374C38.5476 167.97 38.4312 168.632 38.4312 169.36C38.4312 170.088 38.5476 170.75 38.7805 171.346C39.0278 171.943 39.3698 172.46 39.8064 172.896C40.243 173.333 40.7596 173.668 41.3562 173.9C41.9529 174.133 42.6077 174.25 43.3208 174.25C44.0775 174.25 44.776 174.104 45.4163 173.813C46.0566 173.507 46.6387 173.049 47.1626 172.438L49.4328 174.533C48.7052 175.421 47.8029 176.098 46.7261 176.563C45.6637 177.029 44.4632 177.262 43.1243 177.262ZM51.5807 177V160.803H54.986V177H51.5807ZM58.1463 177V165.256H61.5516V177H58.1463ZM59.8489 163.619C59.2232 163.619 58.7139 163.437 58.3209 163.073C57.928 162.71 57.7316 162.258 57.7316 161.72C57.7316 161.182 57.928 160.73 58.3209 160.367C58.7139 160.003 59.2232 159.821 59.8489 159.821C60.4747 159.821 60.984 159.996 61.3769 160.345C61.7699 160.68 61.9663 161.116 61.9663 161.655C61.9663 162.222 61.7699 162.695 61.3769 163.073C60.9986 163.437 60.4893 163.619 59.8489 163.619ZM70.3874 177.175C69.1213 177.175 67.9935 176.92 67.0039 176.411C66.0144 175.887 65.2358 175.166 64.6683 174.25C64.1153 173.333 63.8388 172.292 63.8388 171.128C63.8388 169.949 64.1153 168.909 64.6683 168.007C65.2358 167.09 66.0144 166.377 67.0039 165.867C67.9935 165.344 69.1213 165.082 70.3874 165.082C71.6243 165.082 72.7012 165.344 73.618 165.867C74.5348 166.377 75.2115 167.112 75.6481 168.072L73.0068 169.491C72.7012 168.938 72.3156 168.531 71.8499 168.269C71.3988 168.007 70.904 167.876 70.3655 167.876C69.7834 167.876 69.2596 168.007 68.7939 168.269C68.3282 168.531 67.9571 168.902 67.6806 169.382C67.4187 169.862 67.2877 170.444 67.2877 171.128C67.2877 171.812 67.4187 172.394 67.6806 172.874C67.9571 173.355 68.3282 173.726 68.7939 173.988C69.2596 174.25 69.7834 174.381 70.3655 174.381C70.904 174.381 71.3988 174.257 71.8499 174.009C72.3156 173.748 72.7012 173.333 73.0068 172.765L75.6481 174.206C75.2115 175.152 74.5348 175.887 73.618 176.411C72.7012 176.92 71.6243 177.175 70.3874 177.175ZM80.3606 174.599L80.448 170.451L85.9269 165.256H89.987L84.7264 170.604L82.9582 172.045L80.3606 174.599ZM77.5448 177V160.803H80.95V177H77.5448ZM86.298 177L82.3252 172.067L84.4644 169.425L90.4236 177H86.298ZM108.855 161.72H112.391V177H108.855V161.72ZM101.913 177H98.3771V161.72H101.913V177ZM109.117 170.735H101.651V167.745H109.117V170.735ZM121.594 177.175C120.255 177.175 119.077 176.913 118.058 176.389C117.054 175.865 116.275 175.152 115.722 174.25C115.169 173.333 114.893 172.292 114.893 171.128C114.893 169.949 115.162 168.909 115.701 168.007C116.254 167.09 117.003 166.377 117.949 165.867C118.895 165.344 119.964 165.082 121.158 165.082C122.307 165.082 123.341 165.329 124.257 165.824C125.189 166.304 125.924 167.003 126.462 167.919C127.001 168.822 127.27 169.906 127.27 171.172C127.27 171.303 127.262 171.456 127.248 171.63C127.233 171.79 127.219 171.943 127.204 172.089H117.665V170.102H125.414L124.105 170.692C124.105 170.08 123.981 169.549 123.733 169.098C123.486 168.647 123.144 168.298 122.708 168.05C122.271 167.788 121.762 167.657 121.18 167.657C120.597 167.657 120.081 167.788 119.63 168.05C119.193 168.298 118.851 168.654 118.604 169.12C118.356 169.571 118.233 170.109 118.233 170.735V171.259C118.233 171.899 118.371 172.467 118.647 172.962C118.938 173.442 119.339 173.813 119.848 174.075C120.372 174.322 120.983 174.446 121.682 174.446C122.307 174.446 122.853 174.351 123.319 174.162C123.799 173.973 124.236 173.689 124.628 173.311L126.44 175.276C125.902 175.887 125.225 176.36 124.41 176.694C123.595 177.015 122.657 177.175 121.594 177.175ZM129.537 177V165.256H132.789V168.574L132.331 167.614C132.68 166.784 133.24 166.158 134.012 165.736C134.783 165.3 135.722 165.082 136.828 165.082V168.225C136.682 168.21 136.551 168.203 136.435 168.203C136.318 168.189 136.195 168.181 136.064 168.181C135.132 168.181 134.375 168.45 133.793 168.989C133.226 169.513 132.942 170.335 132.942 171.456V177H129.537ZM144.595 177.175C143.256 177.175 142.078 176.913 141.059 176.389C140.055 175.865 139.276 175.152 138.723 174.25C138.17 173.333 137.894 172.292 137.894 171.128C137.894 169.949 138.163 168.909 138.702 168.007C139.255 167.09 140.004 166.377 140.95 165.867C141.896 165.344 142.965 165.082 144.159 165.082C145.308 165.082 146.342 165.329 147.258 165.824C148.19 166.304 148.925 167.003 149.463 167.919C150.002 168.822 150.271 169.906 150.271 171.172C150.271 171.303 150.263 171.456 150.249 171.63C150.234 171.79 150.22 171.943 150.205 172.089H140.666V170.102H148.415L147.106 170.692C147.106 170.08 146.982 169.549 146.734 169.098C146.487 168.647 146.145 168.298 145.709 168.05C145.272 167.788 144.763 167.657 144.181 167.657C143.598 167.657 143.082 167.788 142.631 168.05C142.194 168.298 141.852 168.654 141.605 169.12C141.357 169.571 141.234 170.109 141.234 170.735V171.259C141.234 171.899 141.372 172.467 141.648 172.962C141.939 173.442 142.34 173.813 142.849 174.075C143.373 174.322 143.984 174.446 144.683 174.446C145.308 174.446 145.854 174.351 146.32 174.162C146.8 173.973 147.237 173.689 147.629 173.311L149.441 175.276C148.903 175.887 148.226 176.36 147.411 176.694C146.596 177.015 145.658 177.175 144.595 177.175ZM153.826 177.175C153.244 177.175 152.742 176.978 152.32 176.585C151.912 176.178 151.708 175.661 151.708 175.035C151.708 174.41 151.912 173.908 152.32 173.529C152.742 173.136 153.244 172.94 153.826 172.94C154.422 172.94 154.924 173.136 155.332 173.529C155.739 173.908 155.943 174.41 155.943 175.035C155.943 175.661 155.739 176.178 155.332 176.585C154.924 176.978 154.422 177.175 153.826 177.175Z" fill="white"/>
<path d="M315.857 54.3388L316.62 52.9703C318.37 49.8355 321.658 47.8713 325.247 47.8168L373.653 47.0815C376.963 47.0312 380.086 48.6139 382.003 51.3133L383.423 53.3125L362.695 53.6274L315.857 54.3388Z" fill="#4D4D4D"/>
<path d="M270.326 160.789L421.303 158.496L433.262 158.314L433.489 173.275C433.574 178.827 429.141 183.396 423.589 183.48L280.758 185.65C275.206 185.734 270.637 181.302 270.553 175.75L270.326 160.789Z" fill="#4C4C4C"/>
<path fill-rule="evenodd" clip-rule="evenodd" d="M360.527 120.943L276.618 122.218L270.129 147.834L337.595 146.809L421.107 145.541L417.691 133.92C416.417 129.586 412.409 126.634 407.893 126.703L367.103 127.322C363.526 127.377 360.582 124.521 360.527 120.943Z" fill="#FFFAE8"/>
<path fill-rule="evenodd" clip-rule="evenodd" d="M285.649 54.7977C280.097 54.882 275.664 59.4511 275.749 65.0031L276.618 122.218L360.527 120.943L414.042 120.13L413.306 71.6854C413.222 66.1334 408.653 61.701 403.101 61.7853L375.185 62.2093C372.331 62.2527 369.593 61.0807 367.654 58.9857L362.695 53.6274L315.857 54.3388L285.649 54.7977Z" fill="#FFFAE8"/>
<path d="M413.83 52.8506C419.382 52.7663 423.951 57.1987 424.036 62.7507L424.905 119.965L414.042 120.13L413.306 71.6854C413.222 66.1334 408.653 61.701 403.101 61.7853L375.185 62.2093C372.331 62.2527 369.593 61.0807 367.654 58.9857L362.695 53.6274L383.423 53.3125L413.83 52.8506Z" fill="#EBE4C8"/>
<path fill-rule="evenodd" clip-rule="evenodd" d="M337.595 146.809L270.129 147.834L270.326 160.789L421.303 158.496C421.237 154.148 417.659 150.676 413.311 150.743L345.824 151.768C342.36 151.82 339.168 149.897 337.595 146.809Z" fill="#FFFAE8"/>
<path d="M433.065 145.359L433.262 158.314L421.303 158.496C421.237 154.148 417.659 150.676 413.311 150.743L345.824 151.768C342.36 151.82 339.168 149.897 337.595 146.809L421.107 145.541L433.065 145.359Z" fill="#EBE4C8"/>
<path d="M424.905 119.965L433.065 145.359L421.107 145.541L417.691 133.92C416.417 129.586 412.409 126.634 407.893 126.703L367.103 127.322C363.526 127.377 360.582 124.521 360.527 120.943L414.042 120.13L424.905 119.965Z" fill="#EBE4C8"/>
<path d="M417.36 82.601C417.294 78.253 413.715 74.7817 409.367 74.8478L389.636 75.1475C385.288 75.2135 381.816 78.7918 381.882 83.1398C381.948 87.4879 385.527 90.9591 389.875 90.893L409.606 90.5933C413.954 90.5273 417.426 86.949 417.36 82.601Z" fill="#686868"/>
<path d="M309.579 74.1342C309.512 69.7511 305.905 66.2518 301.522 66.3184L291.484 66.4709C287.101 66.5374 283.602 70.1447 283.668 74.5278L283.821 84.5654C283.887 88.9485 287.495 92.4478 291.878 92.3812L301.915 92.2287C306.298 92.1622 309.798 88.555 309.731 84.1718L309.579 74.1342Z" fill="#686868"/>
<path d="M301.357 110.379C301.394 112.801 303.387 114.734 305.809 114.697C308.231 114.66 310.164 112.667 310.127 110.246C310.09 107.824 308.097 105.891 305.676 105.927C303.254 105.964 301.321 107.957 301.357 110.379Z" fill="#4E4E4E"/>
<path d="M289.724 79.456C289.782 83.3086 292.953 86.3844 296.806 86.3259C300.658 86.2674 303.734 83.0967 303.675 79.244C303.617 75.3914 300.446 72.3156 296.594 72.3741C292.741 72.4327 289.665 75.6033 289.724 79.456Z" fill="#4E4E4E"/>
<path d="M401.212 108.862C401.274 112.935 404.626 116.186 408.699 116.125C412.771 116.063 416.023 112.711 415.961 108.638C415.899 104.565 412.547 101.314 408.475 101.376C404.402 101.437 401.15 104.789 401.212 108.862Z" fill="#E75152"/>
<path d="M321.887 97.0094C322.119 112.255 334.666 124.426 349.911 124.195C365.157 123.963 377.328 111.416 377.096 96.1708C376.865 80.9253 364.318 68.7541 349.072 68.9856C333.827 69.2172 321.656 81.7639 321.887 97.0094Z" fill="#4C4C4C"/>
<path d="M330.258 96.8821C330.42 107.504 339.162 115.985 349.784 115.823C360.406 115.662 368.887 106.92 368.725 96.2978C368.564 85.6755 359.822 77.1952 349.2 77.3565C338.577 77.5179 330.097 86.2598 330.258 96.8821Z" fill="#686868"/>
<path d="M339.428 96.8426C339.512 102.346 344.041 106.74 349.545 106.657C355.049 106.573 359.443 102.044 359.359 96.5398C359.276 91.036 354.746 86.6421 349.242 86.7257C343.738 86.8093 339.345 91.3388 339.428 96.8426Z" fill="#212121"/>
<path d="M346.005 96.7425C346.034 98.6138 347.574 100.108 349.445 100.079C351.316 100.051 352.81 98.5109 352.782 96.6396C352.753 94.7683 351.213 93.2744 349.342 93.3028C347.471 93.3312 345.977 94.8712 346.005 96.7425Z" fill="#696969"/>
<path d="M423.484 170.823C423.436 167.686 420.855 165.181 417.717 165.229L285.973 167.23C282.836 167.277 280.332 169.859 280.379 172.996C280.427 176.134 283.009 178.638 286.146 178.59L417.89 176.589C421.027 176.542 423.532 173.96 423.484 170.823Z" fill="#212121"/>
<path d="M276.618 122.218L275.749 65.0031C275.664 59.4511 280.097 54.882 285.649 54.7977L315.857 54.3388M276.618 122.218L270.129 147.834M276.618 122.218L360.527 120.943M424.905 119.965L424.036 62.7507C423.951 57.1987 419.382 52.7663 413.83 52.8506L383.423 53.3125M424.905 119.965L433.065 145.359M424.905 119.965L414.042 120.13M315.857 54.3388L316.62 52.9703C318.37 49.8355 321.658 47.8713 325.247 47.8168L373.653 47.0815C376.963 47.0312 380.086 48.6139 382.003 51.3133L383.423 53.3125M315.857 54.3388L362.695 53.6274M383.423 53.3125L362.695 53.6274M270.129 147.834L270.326 160.789M270.129 147.834L337.595 146.809M433.065 145.359L433.262 158.314M433.065 145.359L421.107 145.541M270.326 160.789L270.553 175.75C270.637 181.302 275.206 185.734 280.758 185.65L423.589 183.48C429.141 183.396 433.574 178.827 433.489 173.275L433.262 158.314M270.326 160.789L421.303 158.496M433.262 158.314L421.303 158.496M362.695 53.6274L367.654 58.9857C369.593 61.0807 372.331 62.2527 375.185 62.2093L403.101 61.7853C408.653 61.701 413.222 66.1334 413.306 71.6854L414.042 120.13M414.042 120.13L360.527 120.943M360.527 120.943C360.582 124.521 363.526 127.377 367.103 127.322L407.893 126.703C412.409 126.634 416.417 129.586 417.691 133.92L421.107 145.541M421.107 145.541L337.595 146.809M337.595 146.809C339.168 149.897 342.36 151.82 345.824 151.768L413.311 150.743C417.659 150.676 421.237 154.148 421.303 158.496M409.606 90.5933L389.875 90.893C385.527 90.9591 381.948 87.4879 381.882 83.1398C381.816 78.7918 385.288 75.2135 389.636 75.1475L409.367 74.8478C413.715 74.7817 417.294 78.253 417.36 82.601C417.426 86.949 413.954 90.5273 409.606 90.5933ZM301.915 92.2287L291.878 92.3812C287.495 92.4478 283.887 88.9485 283.821 84.5654L283.668 74.5278C283.602 70.1447 287.101 66.5374 291.484 66.4709L301.522 66.3184C305.905 66.2518 309.512 69.7511 309.579 74.1342L309.731 84.1718C309.798 88.555 306.298 92.1622 301.915 92.2287ZM301.357 110.379C301.394 112.801 303.387 114.734 305.809 114.697C308.231 114.66 310.164 112.667 310.127 110.246C310.09 107.824 308.097 105.891 305.676 105.927C303.254 105.964 301.321 107.957 301.357 110.379ZM289.724 79.456C289.782 83.3086 292.953 86.3844 296.806 86.3259C300.658 86.2674 303.734 83.0967 303.675 79.244C303.617 75.3914 300.446 72.3156 296.594 72.3741C292.741 72.4327 289.665 75.6033 289.724 79.456ZM401.212 108.862C401.274 112.935 404.626 116.186 408.699 116.125C412.771 116.063 416.023 112.711 415.961 108.638C415.899 104.565 412.547 101.314 408.475 101.376C404.402 101.437 401.15 104.789 401.212 108.862ZM321.887 97.0094C322.119 112.255 334.666 124.426 349.911 124.195C365.157 123.963 377.328 111.416 377.096 96.1708C376.865 80.9253 364.318 68.7541 349.072 68.9856C333.827 69.2172 321.656 81.7639 321.887 97.0094ZM330.258 96.8821C330.42 107.504 339.162 115.985 349.784 115.823C360.406 115.662 368.887 106.92 368.725 96.2978C368.564 85.6755 359.822 77.1952 349.2 77.3565C338.577 77.5179 330.097 86.2598 330.258 96.8821ZM339.428 96.8426C339.512 102.346 344.041 106.74 349.545 106.657C355.049 106.573 359.443 102.044 359.359 96.5398C359.276 91.036 354.746 86.6421 349.242 86.7257C343.738 86.8093 339.345 91.3388 339.428 96.8426ZM346.005 96.7425C346.034 98.6138 347.574 100.108 349.445 100.079C351.316 100.051 352.81 98.5109 352.782 96.6396C352.753 94.7683 351.213 93.2744 349.342 93.3028C347.471 93.3312 345.977 94.8712 346.005 96.7425ZM417.89 176.589L286.146 178.59C283.009 178.638 280.427 176.134 280.379 172.996C280.332 169.859 282.836 167.277 285.973 167.23L417.717 165.229C420.855 165.181 423.436 167.686 423.484 170.823C423.532 173.96 421.027 176.542 417.89 176.589Z" stroke="#E4527B" stroke-width="37.8671"/>
<path d="M315.857 54.3388L316.62 52.9703C318.37 49.8355 321.658 47.8713 325.247 47.8168L373.653 47.0815C376.963 47.0312 380.086 48.6139 382.003 51.3133L383.423 53.3125L362.695 53.6274L315.857 54.3388Z" fill="#4D4D4D"/>
<path d="M270.326 160.789L421.303 158.496L433.262 158.314L433.489 173.275C433.574 178.827 429.141 183.396 423.589 183.48L280.758 185.65C275.206 185.734 270.637 181.302 270.553 175.75L270.326 160.789Z" fill="#4C4C4C"/>
<path fill-rule="evenodd" clip-rule="evenodd" d="M360.527 120.943L276.618 122.218L270.129 147.834L337.595 146.809L421.107 145.541L417.691 133.92C416.417 129.586 412.409 126.634 407.893 126.703L367.103 127.322C363.526 127.377 360.582 124.521 360.527 120.943Z" fill="#FFFAE8"/>
<path fill-rule="evenodd" clip-rule="evenodd" d="M285.649 54.7977C280.097 54.882 275.664 59.4511 275.749 65.0031L276.618 122.218L360.527 120.943L414.042 120.13L413.306 71.6854C413.222 66.1334 408.653 61.701 403.101 61.7853L375.185 62.2093C372.331 62.2527 369.593 61.0807 367.654 58.9857L362.695 53.6274L315.857 54.3388L285.649 54.7977Z" fill="#FFFAE8"/>
<path d="M413.83 52.8506C419.382 52.7663 423.951 57.1987 424.036 62.7507L424.905 119.965L414.042 120.13L413.306 71.6854C413.222 66.1334 408.653 61.701 403.101 61.7853L375.185 62.2093C372.331 62.2527 369.593 61.0807 367.654 58.9857L362.695 53.6274L383.423 53.3125L413.83 52.8506Z" fill="#EBE4C8"/>
<path fill-rule="evenodd" clip-rule="evenodd" d="M337.595 146.809L270.129 147.834L270.326 160.789L421.303 158.496C421.237 154.148 417.659 150.676 413.311 150.743L345.824 151.768C342.36 151.82 339.168 149.897 337.595 146.809Z" fill="#FFFAE8"/>
<path d="M433.065 145.359L433.262 158.314L421.303 158.496C421.237 154.148 417.659 150.676 413.311 150.743L345.824 151.768C342.36 151.82 339.168 149.897 337.595 146.809L421.107 145.541L433.065 145.359Z" fill="#EBE4C8"/>
<path d="M424.905 119.965L433.065 145.359L421.107 145.541L417.691 133.92C416.417 129.586 412.409 126.634 407.893 126.703L367.103 127.322C363.526 127.377 360.582 124.521 360.527 120.943L414.042 120.13L424.905 119.965Z" fill="#EBE4C8"/>
<path d="M417.36 82.601C417.294 78.253 413.715 74.7817 409.367 74.8478L389.636 75.1475C385.288 75.2135 381.816 78.7918 381.882 83.1398C381.948 87.4879 385.527 90.9591 389.875 90.893L409.606 90.5933C413.954 90.5273 417.426 86.949 417.36 82.601Z" fill="#686868"/>
<path d="M309.579 74.1342C309.512 69.7511 305.905 66.2518 301.522 66.3184L291.484 66.4709C287.101 66.5374 283.602 70.1447 283.668 74.5278L283.821 84.5654C283.887 88.9485 287.495 92.4478 291.878 92.3812L301.915 92.2287C306.298 92.1622 309.798 88.555 309.731 84.1718L309.579 74.1342Z" fill="#686868"/>
<path d="M301.357 110.379C301.394 112.801 303.387 114.734 305.809 114.697C308.231 114.66 310.164 112.667 310.127 110.246C310.09 107.824 308.097 105.891 305.676 105.927C303.254 105.964 301.321 107.957 301.357 110.379Z" fill="#4E4E4E"/>
<path d="M289.724 79.456C289.782 83.3086 292.953 86.3844 296.806 86.3259C300.658 86.2674 303.734 83.0967 303.675 79.244C303.617 75.3914 300.446 72.3156 296.594 72.3741C292.741 72.4327 289.665 75.6033 289.724 79.456Z" fill="#4E4E4E"/>
<path d="M401.212 108.862C401.274 112.935 404.626 116.186 408.699 116.125C412.771 116.063 416.023 112.711 415.961 108.638C415.899 104.565 412.547 101.314 408.475 101.376C404.402 101.437 401.15 104.789 401.212 108.862Z" fill="#E75152"/>
<path d="M321.887 97.0094C322.119 112.255 334.666 124.426 349.911 124.195C365.157 123.963 377.328 111.416 377.096 96.1708C376.865 80.9253 364.318 68.7541 349.072 68.9856C333.827 69.2172 321.656 81.7639 321.887 97.0094Z" fill="#4C4C4C"/>
<path d="M330.258 96.8821C330.42 107.504 339.162 115.985 349.784 115.823C360.406 115.662 368.887 106.92 368.725 96.2978C368.564 85.6755 359.822 77.1952 349.2 77.3565C338.577 77.5179 330.097 86.2598 330.258 96.8821Z" fill="#686868"/>
<path d="M339.428 96.8426C339.512 102.346 344.041 106.74 349.545 106.657C355.049 106.573 359.443 102.044 359.359 96.5398C359.276 91.036 354.746 86.6421 349.242 86.7257C343.738 86.8093 339.345 91.3388 339.428 96.8426Z" fill="#212121"/>
<path d="M346.005 96.7425C346.034 98.6138 347.574 100.108 349.445 100.079C351.316 100.051 352.81 98.5109 352.782 96.6396C352.753 94.7683 351.213 93.2744 349.342 93.3028C347.471 93.3312 345.977 94.8712 346.005 96.7425Z" fill="#696969"/>
<path d="M423.484 170.823C423.436 167.686 420.855 165.181 417.717 165.229L285.973 167.23C282.836 167.277 280.332 169.859 280.379 172.996C280.427 176.134 283.009 178.638 286.146 178.59L417.89 176.589C421.027 176.542 423.532 173.96 423.484 170.823Z" fill="#212121"/>
<path d="M276.618 122.218L275.749 65.0031C275.664 59.4511 280.097 54.882 285.649 54.7977L315.857 54.3388M276.618 122.218L270.129 147.834M276.618 122.218L360.527 120.943M424.905 119.965L424.036 62.7507C423.951 57.1987 419.382 52.7663 413.83 52.8506L383.423 53.3125M424.905 119.965L433.065 145.359M424.905 119.965L414.042 120.13M315.857 54.3388L316.62 52.9703C318.37 49.8355 321.658 47.8713 325.247 47.8168L373.653 47.0815C376.963 47.0312 380.086 48.6139 382.003 51.3133L383.423 53.3125M315.857 54.3388L362.695 53.6274M383.423 53.3125L362.695 53.6274M270.129 147.834L270.326 160.789M270.129 147.834L337.595 146.809M433.065 145.359L433.262 158.314M433.065 145.359L421.107 145.541M270.326 160.789L270.553 175.75C270.637 181.302 275.206 185.734 280.758 185.65L423.589 183.48C429.141 183.396 433.574 178.827 433.489 173.275L433.262 158.314M270.326 160.789L421.303 158.496M433.262 158.314L421.303 158.496M362.695 53.6274L367.654 58.9857C369.593 61.0807 372.331 62.2527 375.185 62.2093L403.101 61.7853C408.653 61.701 413.222 66.1334 413.306 71.6854L414.042 120.13M414.042 120.13L360.527 120.943M360.527 120.943C360.582 124.521 363.526 127.377 367.103 127.322L407.893 126.703C412.409 126.634 416.417 129.586 417.691 133.92L421.107 145.541M421.107 145.541L337.595 146.809M337.595 146.809C339.168 149.897 342.36 151.82 345.824 151.768L413.311 150.743C417.659 150.676 421.237 154.148 421.303 158.496M409.606 90.5933L389.875 90.893C385.527 90.9591 381.948 87.4879 381.882 83.1398C381.816 78.7918 385.288 75.2135 389.636 75.1475L409.367 74.8478C413.715 74.7817 417.294 78.253 417.36 82.601C417.426 86.949 413.954 90.5273 409.606 90.5933ZM301.915 92.2287L291.878 92.3812C287.495 92.4478 283.887 88.9485 283.821 84.5654L283.668 74.5278C283.602 70.1447 287.101 66.5374 291.484 66.4709L301.522 66.3184C305.905 66.2518 309.512 69.7511 309.579 74.1342L309.731 84.1718C309.798 88.555 306.298 92.1622 301.915 92.2287ZM301.357 110.379C301.394 112.801 303.387 114.734 305.809 114.697C308.231 114.66 310.164 112.667 310.127 110.246C310.09 107.824 308.097 105.891 305.676 105.927C303.254 105.964 301.321 107.957 301.357 110.379ZM289.724 79.456C289.782 83.3086 292.953 86.3844 296.806 86.3259C300.658 86.2674 303.734 83.0967 303.675 79.244C303.617 75.3914 300.446 72.3156 296.594 72.3741C292.741 72.4327 289.665 75.6033 289.724 79.456ZM401.212 108.862C401.274 112.935 404.626 116.186 408.699 116.125C412.771 116.063 416.023 112.711 415.961 108.638C415.899 104.565 412.547 101.314 408.475 101.376C404.402 101.437 401.15 104.789 401.212 108.862ZM321.887 97.0094C322.119 112.255 334.666 124.426 349.911 124.195C365.157 123.963 377.328 111.416 377.096 96.1708C376.865 80.9253 364.318 68.7541 349.072 68.9856C333.827 69.2172 321.656 81.7639 321.887 97.0094ZM330.258 96.8821C330.42 107.504 339.162 115.985 349.784 115.823C360.406 115.662 368.887 106.92 368.725 96.2978C368.564 85.6755 359.822 77.1952 349.2 77.3565C338.577 77.5179 330.097 86.2598 330.258 96.8821ZM339.428 96.8426C339.512 102.346 344.041 106.74 349.545 106.657C355.049 106.573 359.443 102.044 359.359 96.5398C359.276 91.036 354.746 86.6421 349.242 86.7257C343.738 86.8093 339.345 91.3388 339.428 96.8426ZM346.005 96.7425C346.034 98.6138 347.574 100.108 349.445 100.079C351.316 100.051 352.81 98.5109 352.782 96.6396C352.753 94.7683 351.213 93.2744 349.342 93.3028C347.471 93.3312 345.977 94.8712 346.005 96.7425ZM417.89 176.589L286.146 178.59C283.009 178.638 280.427 176.134 280.379 172.996C280.332 169.859 282.836 167.277 285.973 167.23L417.717 165.229C420.855 165.181 423.436 167.686 423.484 170.823C423.532 173.96 421.027 176.542 417.89 176.589Z" stroke="white" stroke-width="22.878"/>
<path d="M315.857 54.338L316.62 52.9695C318.37 49.8348 321.658 47.8705 325.247 47.816L349.194 47.4523L373.653 47.0807C376.963 47.0305 380.086 48.6131 382.003 51.3125L383.423 53.3117L362.695 53.6266L315.857 54.338Z" fill="#4D4D4D"/>
<path d="M270.326 160.788L421.303 158.495L433.262 158.313L433.489 173.274C433.574 178.826 429.141 183.395 423.589 183.479L280.758 185.649C275.206 185.733 270.637 181.301 270.553 175.749L270.326 160.788Z" fill="#4C4C4C"/>
<path fill-rule="evenodd" clip-rule="evenodd" d="M360.527 120.942L276.618 122.217L270.129 147.833L337.596 146.808L421.107 145.54L417.691 133.92C416.417 129.586 412.409 126.633 407.893 126.702L367.103 127.321C363.526 127.376 360.582 124.52 360.527 120.942V120.942Z" fill="#FFFAE8"/>
<path fill-rule="evenodd" clip-rule="evenodd" d="M285.649 54.7969C280.097 54.8812 275.664 59.4504 275.749 65.0023L276.618 122.217L360.527 120.942L414.042 120.129L413.306 71.6846C413.222 66.1326 408.653 61.7002 403.101 61.7845L375.185 62.2086C372.331 62.2519 369.593 61.0799 367.654 58.985L362.695 53.6266L315.857 54.338L285.649 54.7969Z" fill="#FFFAE8"/>
<path d="M413.83 52.8499C419.382 52.7655 423.951 57.1979 424.036 62.7499L424.905 119.964L414.042 120.129L413.306 71.6846C413.222 66.1326 408.653 61.7002 403.101 61.7845L375.185 62.2086C372.331 62.2519 369.593 61.0799 367.654 58.985L362.695 53.6266L383.423 53.3117L413.83 52.8499Z" fill="#EBE4C8"/>
<path fill-rule="evenodd" clip-rule="evenodd" d="M337.596 146.808L270.129 147.833L270.326 160.788L421.303 158.495V158.495C421.237 154.147 417.659 150.676 413.311 150.742L345.824 151.767C342.36 151.819 339.168 149.896 337.596 146.808V146.808Z" fill="#FFFAE8"/>
<path d="M433.065 145.358L433.262 158.313L421.303 158.495V158.495C421.237 154.147 417.659 150.676 413.311 150.742L345.824 151.767C342.36 151.819 339.168 149.896 337.596 146.808V146.808L421.107 145.54L433.065 145.358Z" fill="#EBE4C8"/>
<path d="M424.905 119.964L433.065 145.358L421.107 145.54L417.691 133.92C416.417 129.586 412.409 126.633 407.893 126.702L367.103 127.321C363.526 127.376 360.582 124.52 360.527 120.942V120.942L414.042 120.129L424.905 119.964Z" fill="#EBE4C8"/>
<path d="M276.618 122.217L275.749 65.0023C275.664 59.4504 280.097 54.8812 285.649 54.7969L315.857 54.338M276.618 122.217L270.129 147.833M276.618 122.217L360.527 120.942L414.042 120.129L424.905 119.964M424.905 119.964L424.036 62.7499C423.951 57.1979 419.382 52.7655 413.83 52.8499L383.423 53.3117M424.905 119.964L433.065 145.358M315.857 54.338L316.62 52.9695C318.37 49.8348 321.658 47.8705 325.247 47.816L349.194 47.4523L373.653 47.0807C376.963 47.0305 380.086 48.6131 382.003 51.3125L383.423 53.3117M315.857 54.338L362.695 53.6266L383.423 53.3117M270.129 147.833L270.326 160.788M270.129 147.833L337.596 146.808L421.107 145.54L433.065 145.358M433.065 145.358L433.262 158.313M270.326 160.788L270.553 175.749C270.637 181.301 275.206 185.733 280.758 185.649L423.589 183.479C429.141 183.395 433.574 178.826 433.489 173.274L433.262 158.313M270.326 160.788L421.303 158.495L433.262 158.313" stroke="#662809" stroke-width="1.18335"/>
<rect width="35.4813" height="15.7473" rx="7.87367" transform="matrix(-0.999885 0.0151878 0.0151878 0.999885 417.24 74.7275)" fill="#686868" stroke="#662809" stroke-width="1.18335"/>
<rect width="25.9133" height="25.9133" rx="7.9373" transform="matrix(-0.999885 0.0151878 0.0151878 0.999885 309.458 66.1973)" fill="#686868" stroke="#662809" stroke-width="1.18335"/>
<circle cx="4.38534" cy="4.38534" r="4.38534" transform="matrix(-0.999885 0.0151878 0.0151878 0.999885 310.061 105.86)" fill="#4E4E4E" stroke="#662809" stroke-width="1.18335"/>
<circle cx="6.97667" cy="6.97667" r="6.97667" transform="matrix(-0.999885 0.0151878 0.0151878 0.999885 303.569 72.2676)" fill="#4E4E4E"/>
<circle cx="7.37534" cy="7.37534" r="7.37534" transform="matrix(-0.999885 0.0151878 0.0151878 0.999885 415.849 101.263)" fill="#E75152" stroke="#662809" stroke-width="1.18335"/>
<circle cx="27.6077" cy="27.6077" r="27.6077" transform="matrix(-0.999885 0.0151878 0.0151878 0.999885 376.677 68.5654)" fill="#4C4C4C" stroke="#662809" stroke-width="1.18335"/>
<circle cx="19.2357" cy="19.2357" r="19.2357" transform="matrix(-0.999885 0.0151878 0.0151878 0.999885 368.433 77.0635)" fill="#686868" stroke="#662809" stroke-width="1.18335"/>
<circle cx="9.96667" cy="9.96667" r="9.96667" transform="matrix(-0.999885 0.0151878 0.0151878 0.999885 359.208 86.5732)" fill="#212121" stroke="#662809" stroke-width="1.18335"/>
<circle cx="3.38867" cy="3.38867" r="3.38867" transform="matrix(-0.999885 0.0151878 0.0151878 0.999885 352.73 93.251)" fill="#696969" stroke="#662809" stroke-width="1.18335"/>
<rect width="143.121" height="11.362" rx="5.681" transform="matrix(-0.999885 0.0151878 0.0151878 0.999885 423.398 165.142)" fill="#212121" stroke="#662809" stroke-width="1.18335"/>
</svg>
