<svg width="363" height="509" viewBox="0 0 363 509" fill="none" xmlns="http://www.w3.org/2000/svg">
<rect width="363" height="509" rx="34" fill="#FF6A00"/>
<path d="M21.7648 321.266L58.1439 320.765L58.2541 328.758L44.6051 328.946L45.0195 359.018L35.9927 359.142L35.5783 329.071L21.8749 329.26L21.7648 321.266ZM93.1058 345.628L100.187 358.257L91.106 358.383L85.1928 347.641L84.4315 347.651L72.4682 347.816L72.6174 358.637L63.5905 358.762L63.066 320.697L84.0561 320.408C94.5511 320.263 98.9279 326.077 99.0351 333.853C99.1055 338.964 97.3151 343.231 93.1058 345.628ZM83.0787 328.416L72.203 328.566L72.3581 339.822L83.2338 339.673C88.1278 339.605 90.0592 337.675 90.0083 333.977C89.9566 330.225 87.9727 328.349 83.0787 328.416ZM123.291 358.755C110.349 358.933 105.038 352.425 104.886 341.387L104.593 320.125L113.62 320L113.913 341.262C113.999 347.516 116.925 350.63 123.178 350.544C129.377 350.458 132.27 347.264 132.184 341.01L131.891 319.748L140.918 319.624L141.211 340.886C141.363 351.925 136.179 358.577 123.291 358.755ZM163.752 358.197L163.698 358.198C155.541 358.31 147.253 356.793 146.509 346.197L154.829 346.083C155.643 349.879 159.247 350.917 164.195 350.849C170.177 350.766 172.82 349.207 172.775 345.944C172.739 343.28 171.091 342.16 167.117 341.889L160.04 341.388C151.33 340.801 146.983 337.162 146.888 330.311C146.786 322.915 151.786 318.658 164.239 318.487C172.45 318.374 180.467 320.004 181.211 330.545L172.837 330.66C171.86 326.866 169.126 325.816 164.014 325.887C158.087 325.968 155.931 327.412 155.969 330.131C156.002 332.524 157.65 333.698 161.461 333.972L168.484 334.473C177.467 335.111 181.916 338.313 182.017 345.599C182.126 353.539 176.803 358.017 163.752 358.197ZM184.103 319.029L220.483 318.528L220.593 326.521L206.944 326.709L207.358 356.781L198.331 356.905L197.917 326.834L184.214 327.023L184.103 319.029ZM254.458 356.947C241.516 357.126 236.205 350.618 236.053 339.579L235.76 318.317L244.787 318.193L245.08 339.455C245.166 345.708 248.091 348.822 254.345 348.736C260.544 348.651 263.437 345.456 263.351 339.203L263.058 317.941L272.085 317.817L272.378 339.078C272.53 350.117 267.346 356.77 254.458 356.947ZM294.919 356.39L294.865 356.391C286.708 356.503 278.42 354.986 277.676 344.39L285.996 344.275C286.809 348.071 290.413 349.109 295.362 349.041C301.343 348.959 303.987 347.399 303.942 344.137C303.905 341.472 302.258 340.353 298.284 340.081L291.207 339.58C282.496 338.993 278.149 335.355 278.055 328.503C277.953 321.108 282.953 316.851 295.405 316.679C303.616 316.566 311.634 318.196 312.378 328.737L304.003 328.853C303.026 325.059 300.292 324.009 295.181 324.079C289.254 324.161 287.098 325.605 287.135 328.324C287.168 330.716 288.816 331.89 292.627 332.164L299.65 332.666C308.633 333.303 313.083 336.505 313.183 343.792C313.293 351.731 307.97 356.21 294.919 356.39Z" fill="#C7E56A"/>
<path d="M68.7436 403.191L76.6382 376.16L85.9913 376.031L74.4982 414.262L64.3838 414.401L54.2256 387.673L44.862 414.67L34.7476 414.81L22.2054 376.91L31.5585 376.781L40.1965 403.694L49.6122 376.533L58.5846 376.409L68.7436 403.191ZM122.755 375.525L122.865 383.464L99.3189 383.788L99.4253 391.51L122.101 391.198L122.199 398.267L99.5227 398.579L99.6247 405.975L123.171 405.65L123.28 413.59L90.7072 414.038L90.1827 375.974L122.755 375.525ZM137.406 375.323L173.785 374.822L173.895 382.815L160.246 383.003L160.66 413.074L151.634 413.199L151.219 383.128L137.516 383.316L137.406 375.323ZM208.747 399.685L215.828 412.314L206.747 412.439L200.834 401.698L200.072 401.708L188.109 401.873L188.258 412.694L179.231 412.819L178.707 374.754L199.697 374.464C210.192 374.32 214.569 380.134 214.676 387.91C214.746 393.021 212.956 397.288 208.747 399.685ZM198.72 382.473L187.844 382.623L187.999 393.879L198.875 393.729C203.769 393.662 205.7 391.732 205.649 388.034C205.597 384.282 203.614 382.406 198.72 382.473ZM238.932 412.812C225.99 412.99 220.679 406.482 220.527 395.443L220.234 374.181L229.261 374.057L229.554 395.319C229.64 401.573 232.566 404.687 238.819 404.601C245.018 404.515 247.911 401.321 247.825 395.067L247.532 373.805L256.559 373.681L256.852 394.943C257.004 405.982 251.82 412.634 238.932 412.812ZM279.393 412.254L279.339 412.255C271.182 412.367 262.894 410.85 262.15 400.254L270.47 400.14C271.284 403.936 274.887 404.974 279.836 404.906C285.818 404.823 288.461 403.264 288.416 400.001C288.379 397.337 286.732 396.217 282.758 395.946L275.681 395.445C266.971 394.858 262.624 391.219 262.529 384.368C262.427 376.972 267.427 372.715 279.879 372.544C288.091 372.431 296.108 374.061 296.852 384.602L288.477 384.717C287.501 380.923 284.767 379.873 279.655 379.944C273.728 380.025 271.572 381.469 271.61 384.188C271.643 386.581 273.29 387.755 277.101 388.028L284.125 388.53C293.107 389.168 297.557 392.37 297.657 399.656C297.767 407.596 292.444 412.074 279.393 412.254ZM299.744 373.086L336.124 372.584L336.234 380.578L322.585 380.766L322.999 410.837L313.972 410.962L313.558 380.891L299.855 381.079L299.744 373.086Z" fill="white"/>
<path d="M53.5245 432.142L63.0407 432.01L46.4159 460.957L46.5448 470.31L37.518 470.434L37.3891 461.081L19.973 432.604L29.4892 432.473L41.5651 452.321L42.0001 452.315L53.5245 432.142ZM83.9972 470.61C71.0008 470.789 63.3216 462.138 63.1687 451.045C63.0158 439.952 70.4538 431.092 83.4502 430.913C96.4467 430.734 104.18 439.384 104.333 450.477C104.486 461.571 96.9937 470.431 83.9972 470.61ZM83.8841 462.398C91.3883 462.295 95.2905 457.346 95.1976 450.603C95.1047 443.86 91.0676 439.021 83.5634 439.124C76.1135 439.227 72.2114 444.176 72.3043 450.919C72.3972 457.662 76.4343 462.501 83.8841 462.398ZM128.049 470.003C115.107 470.181 109.796 463.673 109.644 452.634L109.351 431.372L118.378 431.248L118.671 452.51C118.757 458.763 121.683 461.878 127.936 461.791C134.135 461.706 137.028 458.512 136.942 452.258L136.649 430.996L145.676 430.872L145.969 452.134C146.121 463.172 140.937 469.825 128.049 470.003ZM172.111 468.58L163.139 468.703L162.614 430.638L177.297 430.436L187.161 459.507L187.759 459.499L196.818 430.167L211.555 429.964L212.079 468.029L203.107 468.152L202.711 439.441L202.059 439.45L192.883 468.239L182.334 468.384L172.368 439.859L171.716 439.868L172.111 468.58ZM237.892 468.489C224.896 468.668 217.217 460.017 217.064 448.924C216.911 437.831 224.349 428.972 237.345 428.793C250.342 428.614 258.075 437.264 258.228 448.357C258.381 459.45 250.889 468.31 237.892 468.489ZM237.779 460.278C245.283 460.174 249.186 455.226 249.093 448.483C249 441.74 244.963 436.9 237.459 437.004C230.009 437.106 226.107 442.055 226.199 448.798C226.292 455.541 230.329 460.38 237.779 460.278ZM293.286 454.183L300.367 466.812L291.286 466.937L285.373 456.195L284.612 456.206L272.649 456.371L272.798 467.192L263.771 467.316L263.246 429.252L284.236 428.962C294.731 428.818 299.108 434.631 299.215 442.407C299.286 447.519 297.495 451.786 293.286 454.183ZM283.259 436.971L272.383 437.121L272.538 448.377L283.414 448.227C288.308 448.16 290.239 446.23 290.189 442.532C290.137 438.78 288.153 436.904 283.259 436.971ZM337.346 428.23L337.456 436.17L313.91 436.494L314.016 444.216L336.692 443.903L336.789 450.973L314.114 451.285L314.215 458.681L337.761 458.356L337.871 466.295L305.298 466.744L304.774 428.679L337.346 428.23Z" fill="white"/>
<path d="M255.428 133.78L255.327 133.173L254.716 133.247L77.5299 154.67L76.8584 154.751L76.973 155.417L94.7904 258.997C96.0385 266.253 102.917 271.134 110.178 269.917L260.386 244.73C267.663 243.51 272.577 236.624 271.363 229.345L255.428 133.78Z" fill="#4C4C4C" stroke="#7C7C7C" stroke-width="1.28675"/>
<path opacity="0.4" d="M243.167 161.281L170.714 173.047M98.262 184.814L170.714 173.047M170.714 173.047L177.387 215.154M177.387 215.154L204.699 210.621M177.387 215.154L152.351 219.056M106.829 226.151L152.351 219.056M250.597 203.004L204.699 210.621M204.699 210.621L207.458 230.184M152.351 219.056L155.109 238.429" stroke="#FEFEFE" stroke-width="2.99457" stroke-linecap="round" stroke-linejoin="round"/>
<path d="M249.292 109.972L79.0793 137.634C77.9844 137.812 77.2068 138.797 77.2878 139.903L78.8145 160.754C78.906 162.004 80.0461 162.908 81.2835 162.712L253.413 135.515C254.584 135.33 255.381 134.229 255.192 133.059L251.748 111.744C251.56 110.576 250.46 109.783 249.292 109.972Z" fill="#FFFAE8" stroke="#7C7C7C" stroke-width="1.28675"/>
<mask id="mask0_42_1814" style="mask-type:alpha" maskUnits="userSpaceOnUse" x="77" y="110" width="178" height="53">
<path d="M249.395 110.609L79.1825 138.271C78.4167 138.396 77.8728 139.084 77.9294 139.858L79.4561 160.709C79.5201 161.583 80.3176 162.216 81.1831 162.079L253.313 134.881C254.132 134.752 254.69 133.982 254.557 133.164L251.113 111.849C250.981 111.032 250.212 110.477 249.395 110.609Z" fill="#D9D9D9"/>
</mask>
<g mask="url(#mask0_42_1814)">
<path d="M248.735 109.688L238.16 138.92C237.808 139.895 238.528 140.924 239.565 140.927L256.155 140.962C256.8 140.963 257.374 140.551 257.578 139.938L268.234 107.985C268.59 106.918 267.686 105.855 266.576 106.034L249.905 108.719C249.368 108.805 248.92 109.176 248.735 109.688Z" fill="#4C4C4C"/>
<path d="M207.753 113.698L197.178 142.93C196.826 143.905 197.547 144.935 198.583 144.937L215.173 144.972C215.818 144.974 216.392 144.561 216.596 143.949L227.253 111.996C227.608 110.929 226.705 109.865 225.594 110.044L208.923 112.729C208.386 112.816 207.938 113.187 207.753 113.698Z" fill="#4C4C4C"/>
<path d="M166.787 120.745L156.213 149.978C155.86 150.952 156.581 151.982 157.617 151.984L174.207 152.019C174.852 152.021 175.426 151.608 175.63 150.996L186.287 119.043C186.643 117.976 185.739 116.912 184.628 117.091L167.957 119.776C167.42 119.863 166.972 120.234 166.787 120.745Z" fill="#4C4C4C"/>
<path d="M125.822 127.792L115.247 157.024C114.894 157.999 115.615 159.029 116.652 159.031L133.241 159.066C133.887 159.068 134.46 158.655 134.665 158.043L145.321 126.09C145.677 125.023 144.773 123.959 143.662 124.138L126.991 126.823C126.454 126.91 126.007 127.281 125.822 127.792Z" fill="#4C4C4C"/>
</g>
<path d="M220.34 40.533L77.5074 111.129C73.7554 112.984 72.0244 117.384 73.507 121.298L78.9877 135.766C79.4338 136.943 80.7953 137.483 81.9273 136.931L238.069 60.8323C239.18 60.291 239.603 58.9246 238.993 57.8504L231.011 43.8045C228.883 40.0592 224.202 38.6242 220.34 40.533Z" fill="#FFFAE8" stroke="#7C7C7C" stroke-width="1.28675"/>
<mask id="mask1_42_1814" style="mask-type:alpha" maskUnits="userSpaceOnUse" x="73" y="40" width="166" height="97">
<path d="M220.626 41.1105L77.7924 111.707C74.3374 113.415 72.7434 117.466 74.1087 121.07L79.5893 135.538C79.9014 136.362 80.8536 136.74 81.6455 136.354L237.788 60.2547C238.564 59.8761 238.86 58.9203 238.433 58.169L230.452 44.1231C228.492 40.6742 224.182 39.3528 220.626 41.1105Z" fill="#D9D9D9"/>
</mask>
<g mask="url(#mask1_42_1814)">
<path d="M237.343 63.3613L210.279 42.6212L226.928 31.9043L255.904 55.2921L237.343 63.3613Z" fill="#4C4C4C"/>
<path d="M199.85 81.3994L172.787 60.6593L189.436 49.9424L218.411 73.3302L199.85 81.3994Z" fill="#4C4C4C"/>
<path d="M162.36 99.4387L135.296 78.6986L151.945 67.9817L180.921 91.3695L162.36 99.4387Z" fill="#4C4C4C"/>
<path d="M124.867 117.477L97.8043 96.7369L114.453 86.0201L143.428 109.408L124.867 117.477Z" fill="#4C4C4C"/>
</g>
<path d="M99.9078 110.309L71.8093 114.804C68.6168 115.314 66.4344 118.305 66.9222 121.501L72.7959 159.991C73.2942 163.257 76.3826 165.472 79.6356 164.898L122.357 157.354C126.38 156.643 128.473 152.15 126.428 148.614L105.931 113.173C104.71 111.063 102.315 109.924 99.9078 110.309Z" fill="#212121" stroke="#7C7C7C" stroke-width="1.28675"/>
<circle cx="82.0096" cy="125.671" r="4.55577" transform="rotate(-0.297939 82.0096 125.671)" fill="#646263"/>
<circle cx="86.6912" cy="149.947" r="4.55577" transform="rotate(-0.297939 86.6912 149.947)" fill="#646263"/>
<circle cx="110.213" cy="146.787" r="4.55577" transform="rotate(-0.297939 110.213 146.787)" fill="#646263"/>
<path opacity="0.4" d="M112.467 202.449L112.232 200.97L115.19 200.5L115.425 201.979L112.467 202.449ZM116.669 200.265L115.19 200.5L114.72 197.543L116.199 197.308L116.669 200.265ZM115.26 191.393L115.495 192.872L112.537 193.341L112.302 191.862L115.26 191.393ZM114.72 197.543L113.242 197.777L113.007 196.299L114.485 196.064L114.72 197.543ZM110.754 201.205L110.519 199.726L111.998 199.491L112.232 200.97L110.754 201.205ZM115.729 194.35L115.495 192.872L116.973 192.637L117.208 194.115L115.729 194.35ZM111.528 196.534L111.058 193.576L112.537 193.341L113.007 196.299L111.528 196.534ZM125.541 198.856L125.776 200.335L121.34 201.04L121.105 199.561L125.541 198.856ZM119.626 199.796L119.157 196.838L120.635 196.603L121.105 199.561L119.626 199.796ZM126.55 195.664L125.072 195.899L124.837 194.42L126.316 194.185L126.55 195.664ZM124.602 192.941L124.837 194.42L121.879 194.89L121.644 193.411L124.602 192.941ZM120.401 195.125L121.879 194.89L122.114 196.369L120.635 196.603L120.401 195.125ZM134.414 197.448L134.649 198.926L130.212 199.631L129.978 198.152L134.414 197.448ZM128.499 198.387L128.029 195.429L129.508 195.194L129.273 193.716L130.752 193.481L130.987 194.96L133.944 194.49L134.179 195.969L129.743 196.673L129.978 198.152L128.499 198.387ZM135.423 194.255L133.944 194.49L133.709 193.011L135.188 192.776L135.423 194.255ZM133.475 191.532L133.709 193.011L130.752 193.481L130.517 192.002L133.475 191.532ZM137.606 198.457L137.137 195.499L138.615 195.264L139.085 198.222L137.606 198.457ZM144.765 195.804L145 197.283L143.521 197.517L143.286 196.039L144.765 195.804ZM143.286 196.039L141.808 196.273L141.338 193.316L142.817 193.081L143.286 196.039ZM144.295 192.846L142.817 193.081L142.582 191.602L144.061 191.368L144.295 192.846ZM138.146 192.307L136.667 192.542L136.432 191.063L137.911 190.828L138.146 192.307ZM142.347 190.124L142.582 191.602L139.624 192.072L139.39 190.593L142.347 190.124ZM138.615 195.264L138.146 192.307L139.624 192.072L140.094 195.029L138.615 195.264ZM152.159 194.63L152.394 196.108L147.957 196.813L147.723 195.334L152.159 194.63ZM146.244 195.569L145.774 192.611L147.253 192.377L147.018 190.898L148.497 190.663L148.732 192.142L151.689 191.672L151.924 193.151L147.488 193.855L147.723 195.334L146.244 195.569ZM153.168 191.437L151.689 191.672L151.454 190.193L152.933 189.959L153.168 191.437ZM151.22 188.715L151.454 190.193L148.497 190.663L148.262 189.184L151.22 188.715Z" fill="#FFFAE8"/>
<path opacity="0.4" d="M203.608 177.364L203.843 178.842L200.886 179.312L201.59 183.748L200.111 183.983L199.407 179.547L197.928 179.782L197.693 178.303L203.608 177.364ZM199.337 188.654L198.633 184.218L200.111 183.983L200.816 188.419L199.337 188.654ZM213.89 184.827L214.125 186.306L212.646 186.541L212.411 185.062L213.89 184.827ZM212.411 185.062L210.932 185.297L210.463 182.339L211.942 182.105L212.411 185.062ZM208.21 187.245L207.975 185.767L210.932 185.297L211.167 186.776L208.21 187.245ZM206.496 186.001L206.026 183.044L207.505 182.809L207.975 185.767L206.496 186.001ZM213.42 181.87L211.942 182.105L211.707 180.626L208.749 181.096L208.514 179.617L212.951 178.912L213.42 181.87ZM207.27 181.33L208.749 181.096L208.984 182.574L207.505 182.809L207.27 181.33ZM215.603 186.071L215.134 183.114L216.613 182.879L217.082 185.836L215.603 186.071ZM222.762 183.418L222.997 184.897L220.04 185.367L219.805 183.888L222.762 183.418ZM219.335 180.931L219.805 183.888L218.326 184.123L218.091 182.644L216.613 182.879L215.908 178.443L217.387 178.208L217.857 181.165L219.335 180.931ZM218.866 177.973L217.387 178.208L216.917 175.25L218.396 175.016L218.866 177.973ZM219.1 179.452L220.579 179.217L220.814 180.696L219.335 180.931L219.1 179.452ZM220.344 177.738L221.823 177.503L222.058 178.982L220.579 179.217L220.344 177.738ZM230.156 182.244L230.391 183.723L225.955 184.428L225.72 182.949L230.156 182.244ZM224.241 183.184L223.772 180.226L225.25 179.991L225.016 178.513L226.494 178.278L226.729 179.756L229.687 179.287L229.921 180.766L225.485 181.47L225.72 182.949L224.241 183.184ZM231.165 179.052L229.687 179.287L229.452 177.808L230.931 177.573L231.165 179.052ZM229.217 176.329L229.452 177.808L226.494 178.278L226.259 176.799L229.217 176.329Z" fill="#FFFAE8"/>
</svg>
