<svg width="363" height="509" viewBox="0 0 363 509" fill="none" xmlns="http://www.w3.org/2000/svg">
<rect width="363" height="509" rx="34" fill="#2BA576"/>
<mask id="mask0_42_1816" style="mask-type:alpha" maskUnits="userSpaceOnUse" x="0" y="0" width="363" height="509">
<rect width="363" height="509" rx="34" fill="#2BA576"/>
</mask>
<g mask="url(#mask0_42_1816)">
<ellipse cx="181" cy="429.5" rx="198" ry="184.5" fill="#69C6A2"/>
</g>
<mask id="path-4-outside-1_42_1816" maskUnits="userSpaceOnUse" x="19.9801" y="96.3403" width="316.654" height="302.306" fill="black">
<rect fill="white" x="19.9801" y="96.3403" width="316.654" height="302.306"/>
<path d="M211.047 148.714C262.491 160.414 294.709 211.603 283.008 263.047C271.308 314.491 220.119 346.709 168.675 335.008C117.231 323.308 85.013 272.119 96.7137 220.675C108.414 169.231 159.603 137.013 211.047 148.714Z"/>
<path d="M211.047 148.714C262.491 160.414 294.709 211.603 283.008 263.047C271.308 314.491 220.119 346.709 168.675 335.008C117.231 323.308 85.013 272.119 96.7137 220.675C108.414 169.231 159.603 137.013 211.047 148.714Z"/>
<path d="M172.781 208.01C201.529 214.549 219.533 243.154 212.994 271.902C206.456 300.65 177.85 318.654 149.102 312.116C120.354 305.577 102.35 276.972 108.888 248.224C115.427 219.476 144.033 201.471 172.781 208.01Z"/>
</mask>
<path d="M211.047 148.714C262.491 160.414 294.709 211.603 283.008 263.047C271.308 314.491 220.119 346.709 168.675 335.008C117.231 323.308 85.013 272.119 96.7137 220.675C108.414 169.231 159.603 137.013 211.047 148.714Z" fill="#FF8355"/>
<path d="M211.047 148.714C262.491 160.414 294.709 211.603 283.008 263.047C271.308 314.491 220.119 346.709 168.675 335.008C117.231 323.308 85.013 272.119 96.7137 220.675C108.414 169.231 159.603 137.013 211.047 148.714Z" fill="#74351D"/>
<path d="M172.781 208.01C201.529 214.549 219.533 243.154 212.994 271.902C206.456 300.65 177.85 318.654 149.102 312.116C120.354 305.577 102.35 276.972 108.888 248.224C115.427 219.476 144.033 201.471 172.781 208.01Z" fill="#FFF1CF"/>
<path d="M107.39 255.112C87.2326 254.945 70.7561 271.151 70.5892 291.308C70.4222 311.466 86.6279 327.942 106.786 328.109L107.39 255.112ZM150.008 252.39L113.937 246.815L113.937 246.815L150.008 252.39ZM167.67 153.392C158.816 135.282 136.957 127.778 118.847 136.632C100.737 145.486 93.2341 167.345 102.088 185.455L167.67 153.392ZM125.094 196.171C112.538 180.401 89.5748 177.795 73.8045 190.352C58.0341 202.908 55.4286 225.871 67.9848 241.641L125.094 196.171ZM184.751 264.326L180.767 300.607L180.767 300.607L184.751 264.326ZM292.443 292.89C312.445 290.389 326.634 272.147 324.134 252.145C321.634 232.142 303.392 217.953 283.389 220.453L292.443 292.89ZM149.156 353.349C155.474 372.492 176.114 382.889 195.257 376.571C214.399 370.253 224.796 349.613 218.478 330.47L149.156 353.349ZM179.399 249.854L214.99 257.949L214.99 257.949L179.399 249.854ZM248.797 159.648C256.844 141.165 248.384 119.659 229.901 111.612C211.419 103.565 189.912 112.025 181.865 130.508L248.797 159.648ZM220.907 356.498C236.304 369.509 259.333 367.576 272.345 352.179C285.357 336.783 283.423 313.753 268.027 300.741L220.907 356.498ZM213.37 257.581L248.838 266.198L248.838 266.198L213.37 257.581ZM285.81 225.057C303.111 214.712 308.751 192.3 298.407 174.999C288.063 157.697 265.651 152.057 248.349 162.401L285.81 225.057ZM202.952 184.305C234.739 191.535 254.647 223.164 247.417 254.952L318.599 271.142C334.771 200.042 290.242 129.294 219.142 113.123L202.952 184.305ZM247.417 254.952C240.187 286.739 208.558 306.647 176.77 299.417L160.58 370.599C231.68 386.771 302.428 342.242 318.599 271.142L247.417 254.952ZM176.77 299.417C144.983 292.187 125.075 260.558 132.305 228.77L61.1226 212.58C44.9512 283.68 89.4798 354.428 160.58 370.599L176.77 299.417ZM132.305 228.77C139.535 196.983 171.164 177.075 202.952 184.305L219.142 113.123C148.042 96.9513 77.2941 141.48 61.1226 212.58L132.305 228.77ZM106.786 328.109C129.503 328.297 175.704 314.456 185.603 260.782L113.814 247.541C113.283 250.419 112.489 251.808 112.107 252.375C111.701 252.979 111.244 253.416 110.655 253.806C109.993 254.245 109.146 254.628 108.231 254.883C107.225 255.164 106.807 255.107 107.39 255.112L106.786 328.109ZM185.603 260.782C185.775 259.849 185.934 258.91 186.08 257.964L113.937 246.815C113.898 247.068 113.856 247.31 113.814 247.541L185.603 260.782ZM186.08 257.964C189.508 235.783 186.55 213.576 182.469 196.155C178.34 178.525 172.417 163.102 167.67 153.392L102.088 185.455C104.42 190.225 108.505 200.475 111.393 212.802C114.329 225.34 115.395 237.376 113.937 246.815L186.08 257.964ZM67.9848 241.641C83.6037 261.258 112.039 277.852 135.48 287.774L163.937 220.549C144.283 212.23 129.327 201.488 125.094 196.171L67.9848 241.641ZM135.48 287.774C146.524 292.449 158.276 296.429 169.564 298.796L184.544 227.349C179.014 226.19 171.858 223.902 163.937 220.549L135.48 287.774ZM169.564 298.796C173.222 299.563 176.979 300.192 180.767 300.607L188.736 228.044C187.648 227.924 186.252 227.707 184.544 227.349L169.564 298.796ZM180.767 300.607C191.102 301.743 202.932 301.629 213.993 301.097L210.484 228.181C200.749 228.649 193.391 228.555 188.736 228.044L180.767 300.607ZM213.993 301.097C243.474 299.678 278.918 294.58 292.443 292.89L283.389 220.453C267.599 222.427 236.332 226.937 210.484 228.181L213.993 301.097ZM218.478 330.47C215.359 321.02 209.801 294.204 213.247 267.796L140.861 258.349C135.684 298.014 143.446 336.049 149.156 353.349L218.478 330.47ZM213.247 267.796C213.687 264.426 214.265 261.135 214.99 257.949L143.808 241.759C142.536 247.348 141.572 252.899 140.861 258.349L213.247 267.796ZM214.99 257.949C222.702 224.041 240.635 178.395 248.797 159.648L181.865 130.508C173.134 150.562 153.044 201.15 143.808 241.759L214.99 257.949ZM268.027 300.741C264.6 297.846 258.709 291.66 254.177 284.133C249.495 276.356 248.366 270.712 248.62 267.58L175.857 261.698C173.904 285.856 182.733 306.999 191.638 321.788C200.694 336.828 212.02 348.987 220.907 356.498L268.027 300.741ZM248.62 267.58C248.66 267.08 248.735 266.625 248.838 266.198L177.902 248.963C176.862 253.244 176.196 257.501 175.857 261.698L248.62 267.58ZM248.838 266.198C250.285 260.243 255.121 252.067 263.709 243.097C271.961 234.48 280.973 227.948 285.81 225.057L248.349 162.401C238.29 168.415 224.057 178.956 210.982 192.611C198.244 205.914 183.673 225.211 177.902 248.963L248.838 266.198ZM156.591 279.192C146.026 276.789 139.409 266.277 141.812 255.712L284.176 288.092C299.656 220.031 257.031 152.308 188.971 136.828L156.591 279.192ZM141.812 255.712C144.215 245.147 154.727 238.531 165.292 240.934L132.912 383.298C200.973 398.778 268.696 356.153 284.176 288.092L141.812 255.712ZM165.292 240.934C175.857 243.337 182.473 253.849 180.071 264.414L37.7064 232.034C22.2263 300.094 64.8514 367.818 132.912 383.298L165.292 240.934ZM180.071 264.414C177.668 274.978 167.155 281.595 156.591 279.192L188.971 136.828C120.91 121.348 53.1865 163.973 37.7064 232.034L180.071 264.414Z" fill="#28956B" mask="url(#path-4-outside-1_42_1816)"/>
<path d="M211.047 148.714C262.491 160.414 294.709 211.603 283.008 263.047C271.308 314.491 220.119 346.709 168.675 335.008C117.231 323.308 85.013 272.119 96.7137 220.675C108.414 169.231 159.603 137.013 211.047 148.714Z" fill="#FF8355"/>
<path d="M211.047 148.714C262.491 160.414 294.709 211.603 283.008 263.047C271.308 314.491 220.119 346.709 168.675 335.008C117.231 323.308 85.013 272.119 96.7137 220.675C108.414 169.231 159.603 137.013 211.047 148.714Z" fill="#74351D"/>
<path d="M172.781 208.01C201.529 214.549 219.533 243.154 212.994 271.902C206.456 300.65 177.85 318.654 149.102 312.116C120.354 305.577 102.35 276.972 108.888 248.224C115.427 219.476 144.033 201.471 172.781 208.01Z" fill="#FFF1CF"/>
<path d="M93.1375 308.623C109.277 332.018 133.897 349.66 163.796 356.46C165.249 356.791 166.703 357.093 168.156 357.367C173.844 363.122 182.507 365.509 190.712 362.801C193.231 361.97 195.499 360.727 197.465 359.172C211.371 358.276 224.822 354.907 237.262 349.412C245.606 352.302 255.229 349.968 261.27 342.82C264.183 339.373 265.853 335.291 266.327 331.12C283.787 316.185 297.027 296.028 303.371 272.33C308.065 267.69 310.628 260.998 309.746 253.943C309.401 251.186 308.561 248.612 307.324 246.3C309.247 196.903 279.677 151.139 233.548 132.738C231.289 129.396 228.085 126.636 224.113 124.907C217.915 122.208 211.153 122.589 205.537 125.378C148.364 117.616 93.6182 152.832 77.1828 208.439C75.3895 211.759 74.4942 215.471 74.5403 219.194C69.2069 246.25 73.6569 273.091 85.5139 295.942C86.5264 301.012 89.2836 305.459 93.1375 308.623Z" stroke="white" stroke-width="44" stroke-linecap="round"/>
<circle cx="189.861" cy="241.861" r="97.212" transform="rotate(-77.1863 189.861 241.861)" fill="#FF8355" stroke="#662809" stroke-width="3.37152"/>
<mask id="mask1_42_1816" style="mask-type:alpha" maskUnits="userSpaceOnUse" x="94" y="146" width="192" height="192">
<circle cx="189.861" cy="241.861" r="95.5263" transform="rotate(-77.1863 189.861 241.861)" fill="#74351D"/>
</mask>
<g mask="url(#mask1_42_1816)">
<path d="M107.087 291.61C119.358 291.712 145.121 284.01 150.008 252.39C154.895 220.769 141.958 183.903 134.878 169.423M96.539 218.906C112.227 238.61 157.314 261.312 184.751 264.325C212.187 267.339 267.749 259.192 287.915 256.671M183.817 341.909C178.813 326.749 170.924 287.113 179.398 249.854C187.873 212.595 206.884 164.478 215.331 145.078M244.466 328.619C231.093 317.318 206.152 287.288 213.37 257.58C220.587 227.873 252.183 202.635 267.079 193.729" stroke="#AA3E00" stroke-width="5.61919" stroke-linecap="round"/>
<circle opacity="0.2" cx="160.941" cy="260.063" r="53.3823" transform="rotate(-77.1863 160.941 260.063)" fill="#FFF1CF"/>
</g>
<path d="M238.989 93L244.489 131.5M248.988 149L244.489 153" stroke="#FFB200" stroke-width="10" stroke-linecap="round"/>
<path d="M269.143 79.9999L265.813 106.45M265.622 118.834L261.923 120.664" stroke="#FFB200" stroke-width="6.85467" stroke-linecap="round"/>
<path d="M334.724 328.31C227.534 411.205 199.058 468.716 259.804 420.566C320.55 372.416 225.247 385.921 181.015 435.949" stroke="#FFB200" stroke-width="10" stroke-linecap="round"/>
<path d="M25.0571 54.8853C49.8571 76.0853 104.39 43.0519 128.557 23.8853" stroke="#FFB200" stroke-width="10" stroke-linecap="round"/>
</svg>
