<svg width="363" height="509" viewBox="0 0 363 509" fill="none" xmlns="http://www.w3.org/2000/svg">
<rect width="363" height="509" rx="34" fill="#FFB200"/>
<mask id="mask0_42_1815" style="mask-type:alpha" maskUnits="userSpaceOnUse" x="0" y="0" width="363" height="509">
<rect width="363" height="509" rx="34" fill="#FFB200"/>
</mask>
<g mask="url(#mask0_42_1815)">
<path d="M203.007 77.7807L170.928 25.9752L164.344 86.5519L159.707 129.213L114.881 139.382L48.9544 154.339L111.776 179.307L152.503 195.494L147.973 237.169L141.116 300.262L184.205 253.667L215.022 220.342L257.203 237.107L316.18 260.547L282.768 206.589L260.698 170.949L290.454 138.772L336.351 89.1395L270.425 104.096L225.599 114.265L203.007 77.7807Z" fill="white" stroke="#FF6A00" stroke-width="41.9262"/>
<path d="M193.105 83.912L178.848 60.8873L175.922 87.8103L170.387 138.732L117.457 150.74L88.1567 157.387L116.077 168.484L165.038 187.944L159.551 238.427L156.503 266.469L175.654 245.76L211.897 206.568L261.504 226.284L287.716 236.702L272.867 212.721L246.132 169.547L281.903 130.865L302.302 108.806L273.002 115.453L220.072 127.461L193.105 83.912Z" fill="white" stroke="#353781" stroke-width="18.6339"/>
<path d="M120.725 446.693L153.834 424.947L114.354 421.72L86.5506 419.447L79.1643 390.493L68.3011 347.91L53.1655 389.168L43.3531 415.915L16.1918 413.695L-24.9281 410.333L6.0994 437.526L28.2904 456.974L18.1278 484.676L3.91848 523.409L38.403 500.761L61.1813 485.8L82.6076 504.578L115.658 533.544L104.794 490.961L97.4081 462.007L120.725 446.693Z" fill="white" stroke="#FF6A00" stroke-width="27.2554"/>
<path d="M116.569 440.365L131.284 430.7L113.738 429.265L80.5499 426.552L71.8283 392.364L67.0002 373.439L60.2733 391.776L48.4771 423.93L15.575 421.241L-2.70055 419.747L11.0894 431.832L37.1874 454.705L25.2356 487.284L18.9203 504.499L34.2468 494.433L61.8395 476.31L87.5976 498.885L102.287 511.758L97.4584 492.832L88.7368 458.644L116.569 440.365Z" fill="white" stroke="#353781" stroke-width="12.1135"/>
</g>
</svg>
