<svg width="363" height="509" viewBox="0 0 363 509" fill="none" xmlns="http://www.w3.org/2000/svg">
<rect width="363" height="509" rx="34" fill="#5634DE"/>
<mask id="mask0_42_1818" style="mask-type:alpha" maskUnits="userSpaceOnUse" x="0" y="0" width="363" height="509">
<rect width="363" height="509" rx="34" fill="#5634DE"/>
</mask>
<g mask="url(#mask0_42_1818)">
<path d="M89 -21L207.645 155.25H-29.6455L89 -21Z" fill="#D9D9D9" fill-opacity="0.15"/>
<path d="M306 235L424.645 411.25H187.355L306 235Z" fill="#D9D9D9" fill-opacity="0.15"/>
<path d="M148.869 395.08C149.084 396.076 149.066 396.973 148.892 397.719L148.869 395.08ZM148.869 395.08C147.784 390.048 140.771 382.473 118.087 379.015C84.1159 373.836 75.44 368.925 73.341 322.979C71.2421 277.032 65.1989 239.023 88.7088 229.7C112.219 220.377 130.156 241.624 130.049 271.539C129.942 301.453 128.619 303.075 132.803 308.846C138.182 323.392 145.196 307.604 148.03 297.892L148.869 395.08ZM252.938 259.583C253.12 280.751 254.045 302.04 253.444 323.198C253.115 334.776 247.462 349.466 240.276 358.608C236.775 363.063 233.967 368.501 229.416 372.002C225.38 375.107 220.07 375.887 215.21 376.903M276.2 261.707C276.312 274.739 276.344 287.343 273.432 300.126C272.277 305.2 271.178 310.135 269.601 315.095C266.464 324.968 265.504 334.497 264.347 344.712C263.521 352.011 261.624 359.515 258.895 366.324C257.517 369.764 256.114 373.092 255.154 376.687C253.845 381.589 253.508 386.979 249.072 390.213C244.085 393.847 237.738 393.431 232.114 395.309C227.941 396.702 224.775 397.801 220.834 400.098M290.453 297.224C290.616 316.127 285.123 333.646 280.076 351.722C277.869 359.627 275.17 367.461 273.308 375.455C271.802 381.916 270.271 388.486 267.273 394.446C265.518 397.936 263.476 402.725 260.567 405.437C258.258 407.591 253.048 409.009 250.105 410.176C242.925 413.024 233.344 413.851 225.61 414.778M148.328 348.037C128.085 345.324 133.37 320.521 133.241 305.554M147.835 380.583C138.737 377.993 128.14 367.792 123.249 359.747C112.245 341.645 108.319 322.256 108.581 301.032C108.862 278.257 114.991 255.684 114.794 232.883M93.8092 225.316C94.0706 255.597 92.9776 285.527 91.146 315.732C90.4128 327.823 90.6589 340.136 91.1167 352.233L91.1178 352.262C91.3559 358.557 91.6526 366.398 95.6321 371.693C97.755 374.518 102.198 379.741 105.231 381.726M199.074 152.87C199.246 172.755 199.872 192.429 201.359 212.268C203.313 238.334 205.463 264.027 205.689 290.208C205.884 312.708 206.626 335.287 205.858 357.779C205.217 376.521 202.175 394.947 200.118 413.549C198.011 432.593 198.191 451.753 198.425 470.885C198.579 483.445 198.462 496.453 200.111 508.906M184.163 144C184.339 164.387 184.969 184.559 186.461 204.899C188.421 231.625 190.577 257.967 190.808 284.81C191.007 307.878 191.755 331.029 190.991 354.089C190.355 373.304 187.317 392.195 185.263 411.267C183.161 430.791 183.345 450.435 183.584 470.051C183.74 482.929 183.626 496.265 185.278 509.033M171.561 151.161C171.732 171.046 171.446 190.728 170.302 210.589C168.798 236.686 167.091 262.412 167.317 288.593C167.511 311.093 167.159 333.681 168.315 356.157C169.279 374.884 172.639 393.256 175.017 411.819C177.452 430.824 177.602 449.984 177.699 469.117C177.762 481.678 178.104 494.682 176.669 507.162M156.744 153.235C156.915 173.12 156.629 192.802 155.484 212.663C153.98 238.759 152.274 264.486 152.5 290.666C152.694 313.166 152.341 335.755 153.498 358.231C154.462 376.958 157.822 395.33 160.2 413.893C162.635 432.898 162.785 452.058 162.881 471.191C162.944 483.752 163.286 496.756 161.852 509.236M212.357 340.262C216.58 350.44 230.05 364.21 232.096 330.728C234.653 288.876 232.697 259.466 257.97 257.18C283.243 254.895 285.582 272.264 288.589 296.679C291.597 321.095 293.978 399.75 272.532 408.69C251.086 417.63 213.047 420.147 213.176 435.103L212.357 340.262ZM217.808 506.929L149.839 507.515L147.107 191.014C146.057 177.404 151.326 150.023 180.796 149.379C205.989 149.162 214.147 176.654 215.076 190.428L217.808 506.929Z" stroke="#FF83A6" stroke-width="39" stroke-linecap="round"/>
<path d="M148.869 395.08C149.084 396.076 149.066 396.973 148.892 397.719L148.869 395.08ZM148.869 395.08C147.784 390.048 140.771 382.473 118.087 379.015C84.1159 373.836 75.44 368.925 73.341 322.979C71.2421 277.032 65.1989 239.023 88.7088 229.7C112.219 220.377 130.156 241.624 130.049 271.539C129.942 301.453 128.619 303.075 132.803 308.846C138.182 323.392 145.196 307.604 148.03 297.892L148.869 395.08ZM252.938 259.583C253.12 280.751 254.045 302.04 253.444 323.198C253.115 334.776 247.462 349.466 240.276 358.608C236.775 363.063 233.967 368.501 229.416 372.002C225.38 375.107 220.07 375.887 215.21 376.903M276.2 261.707C276.312 274.739 276.344 287.343 273.432 300.126C272.277 305.2 271.178 310.135 269.601 315.095C266.464 324.968 265.504 334.497 264.347 344.712C263.521 352.011 261.624 359.515 258.895 366.324C257.517 369.764 256.114 373.092 255.154 376.687C253.845 381.589 253.508 386.979 249.072 390.213C244.085 393.847 237.738 393.431 232.114 395.309C227.941 396.702 224.775 397.801 220.834 400.098M290.453 297.224C290.616 316.127 285.123 333.646 280.076 351.722C277.869 359.627 275.17 367.461 273.308 375.455C271.802 381.916 270.271 388.486 267.273 394.446C265.518 397.936 263.476 402.725 260.567 405.437C258.258 407.591 253.048 409.009 250.105 410.176C242.925 413.024 233.344 413.851 225.61 414.778M148.328 348.037C128.085 345.324 133.37 320.521 133.241 305.554M147.835 380.583C138.737 377.993 128.14 367.792 123.249 359.747C112.245 341.645 108.319 322.256 108.581 301.032C108.862 278.257 114.991 255.684 114.794 232.883M93.8092 225.316C94.0706 255.597 92.9776 285.527 91.146 315.732C90.4128 327.823 90.6589 340.136 91.1167 352.233L91.1178 352.262C91.3559 358.557 91.6526 366.398 95.6321 371.693C97.755 374.518 102.198 379.741 105.231 381.726M199.074 152.87C199.246 172.755 199.872 192.429 201.359 212.268C203.313 238.334 205.463 264.027 205.689 290.208C205.884 312.708 206.626 335.287 205.858 357.779C205.217 376.521 202.175 394.947 200.118 413.549C198.011 432.593 198.191 451.753 198.425 470.885C198.579 483.445 198.462 496.453 200.111 508.906M184.163 144C184.339 164.387 184.969 184.559 186.461 204.899C188.421 231.625 190.577 257.967 190.808 284.81C191.007 307.878 191.755 331.029 190.991 354.089C190.355 373.304 187.317 392.195 185.263 411.267C183.161 430.791 183.345 450.435 183.584 470.051C183.74 482.929 183.626 496.265 185.278 509.033M171.561 151.161C171.732 171.046 171.446 190.728 170.302 210.589C168.798 236.686 167.091 262.412 167.317 288.593C167.511 311.093 167.159 333.681 168.315 356.157C169.279 374.884 172.639 393.256 175.017 411.819C177.452 430.824 177.602 449.984 177.699 469.117C177.762 481.678 178.104 494.682 176.669 507.162M156.744 153.235C156.915 173.12 156.629 192.802 155.484 212.663C153.98 238.759 152.274 264.486 152.5 290.666C152.694 313.166 152.341 335.755 153.498 358.231C154.462 376.958 157.822 395.33 160.2 413.893C162.635 432.898 162.785 452.058 162.881 471.191C162.944 483.752 163.286 496.756 161.852 509.236M212.357 340.262C216.58 350.44 230.05 364.21 232.096 330.728C234.653 288.876 232.697 259.466 257.97 257.18C283.243 254.895 285.582 272.264 288.589 296.679C291.597 321.095 293.978 399.75 272.532 408.69C251.086 417.63 213.047 420.147 213.176 435.103L212.357 340.262ZM217.808 506.929L149.839 507.515L147.107 191.014C146.057 177.404 151.326 150.023 180.796 149.379C205.989 149.162 214.147 176.654 215.076 190.428L217.808 506.929Z" stroke="white" stroke-width="25" stroke-linecap="round"/>
<path d="M148.03 297.892C145.195 307.604 138.182 323.392 132.803 308.846C128.619 303.075 129.942 301.453 130.049 271.539C130.156 241.624 112.219 220.377 88.7088 229.7C65.1988 239.023 71.2421 277.032 73.341 322.978C75.4399 368.925 84.1159 373.836 118.087 379.015C140.771 382.473 147.784 390.048 148.869 395.08L148.892 397.718C149.066 396.973 149.084 396.076 148.869 395.08L148.03 297.892Z" fill="#2F8F78"/>
<path d="M232.096 330.728C230.05 364.21 216.58 350.44 212.357 340.262L213.176 435.103C213.047 420.147 251.086 417.63 272.532 408.69C293.978 399.749 291.597 321.095 288.589 296.679C285.582 272.264 283.243 254.895 257.97 257.18C232.697 259.466 234.653 288.876 232.096 330.728Z" fill="#2F8F78"/>
<mask id="mask1_42_1818" style="mask-type:alpha" maskUnits="userSpaceOnUse" x="71" y="227" width="220" height="209">
<path d="M148.03 297.892C145.195 307.604 138.182 323.392 132.803 308.846C128.619 303.075 129.942 301.453 130.049 271.539C130.156 241.624 112.219 220.378 88.7088 229.7C65.1988 239.023 71.2421 277.032 73.341 322.979C75.4399 368.925 84.1159 373.836 118.087 379.015C140.771 382.473 147.784 390.048 148.869 395.08L148.892 397.719C149.066 396.973 149.084 396.076 148.869 395.08L148.03 297.892Z" fill="#48C53A"/>
<path d="M232.096 330.729C230.05 364.211 216.58 350.44 212.357 340.262L213.176 435.103C213.047 420.147 251.086 417.63 272.532 408.69C293.978 399.75 291.597 321.095 288.589 296.679C285.582 272.264 283.243 254.895 257.97 257.18C232.697 259.466 234.653 288.876 232.096 330.729Z" fill="#48C53A"/>
</mask>
<g mask="url(#mask1_42_1818)">
<path d="M252.938 259.583C253.12 280.751 254.045 302.04 253.444 323.198C253.115 334.776 247.462 349.466 240.276 358.608C236.775 363.063 233.967 368.501 229.416 372.002C225.38 375.107 220.07 375.887 215.21 376.903" stroke="#50B099" stroke-width="1.01345" stroke-linecap="round"/>
<path d="M276.2 261.707C276.312 274.739 276.344 287.343 273.432 300.126C272.277 305.199 271.178 310.135 269.601 315.095C266.464 324.968 265.504 334.497 264.347 344.712C263.521 352.011 261.624 359.515 258.895 366.324C257.517 369.764 256.114 373.092 255.154 376.687C253.845 381.589 253.508 386.979 249.072 390.212C244.085 393.847 237.738 393.431 232.114 395.309C227.941 396.702 224.775 397.801 220.834 400.098" stroke="#50B099" stroke-width="1.01345" stroke-linecap="round"/>
<path d="M290.453 297.224C290.616 316.127 285.123 333.646 280.076 351.722C277.869 359.627 275.17 367.461 273.308 375.455C271.802 381.916 270.271 388.486 267.273 394.446C265.518 397.936 263.475 402.725 260.567 405.437C258.257 407.591 253.048 409.009 250.105 410.176C242.925 413.024 233.344 413.851 225.61 414.778" stroke="#50B099" stroke-width="1.01345" stroke-linecap="round"/>
<path d="M148.328 348.037C128.085 345.323 133.37 320.521 133.241 305.554" stroke="#50B099" stroke-width="1.01345" stroke-linecap="round"/>
<path d="M147.835 380.583C138.737 377.993 128.14 367.792 123.249 359.747C112.245 341.645 108.319 322.256 108.581 301.032C108.862 278.257 114.991 255.684 114.794 232.883" stroke="#50B099" stroke-width="1.01345" stroke-linecap="round"/>
<path d="M93.8093 225.316C94.0706 255.597 92.9776 285.527 91.1461 315.732C90.4128 327.823 90.659 340.136 91.1167 352.233C91.3551 358.533 91.6466 366.39 95.6321 371.693C97.7551 374.518 102.198 379.741 105.231 381.726" stroke="#50B099" stroke-width="1.01345" stroke-linecap="round"/>
</g>
<mask id="mask2_42_1818" style="mask-type:alpha" maskUnits="userSpaceOnUse" x="146" y="149" width="72" height="359">
<path d="M149.839 507.515L217.808 506.929L215.077 190.428C214.147 176.654 205.989 149.162 180.796 149.379C151.326 150.023 146.057 177.404 147.107 191.014L149.839 507.515Z" fill="#4EB043"/>
</mask>
<g mask="url(#mask2_42_1818)">
<path d="M149.839 507.515L217.808 506.929L215.077 190.428C214.147 176.654 205.989 149.162 180.796 149.379C151.326 150.023 146.057 177.404 147.107 191.014L149.839 507.515Z" fill="#50B099"/>
<path d="M199.074 152.87C199.246 172.755 199.872 192.429 201.359 212.268C203.313 238.334 205.463 264.027 205.689 290.208C205.884 312.708 206.626 335.287 205.858 357.779C205.218 376.521 202.175 394.947 200.118 413.549C198.011 432.593 198.191 451.753 198.425 470.885C198.579 483.445 198.462 496.453 200.111 508.906" stroke="#2F8F78" stroke-width="1.01345" stroke-linecap="round"/>
<path d="M184.163 144C184.339 164.387 184.969 184.559 186.461 204.899C188.421 231.625 190.577 257.967 190.808 284.81C191.007 307.878 191.755 331.029 190.991 354.089C190.355 373.304 187.317 392.195 185.263 411.267C183.161 430.791 183.345 450.435 183.584 470.051C183.74 482.929 183.626 496.265 185.278 509.034" stroke="#2F8F78" stroke-width="1.01345" stroke-linecap="round"/>
<path d="M171.561 151.161C171.732 171.046 171.446 190.728 170.302 210.589C168.798 236.686 167.091 262.412 167.317 288.593C167.511 311.093 167.159 333.682 168.315 356.157C169.279 374.884 172.639 393.256 175.017 411.819C177.452 430.824 177.602 449.984 177.698 469.117C177.762 481.678 178.104 494.682 176.669 507.162" stroke="#2F8F78" stroke-width="1.01345" stroke-linecap="round"/>
<path d="M156.744 153.235C156.915 173.12 156.629 192.802 155.484 212.663C153.98 238.759 152.274 264.485 152.5 290.666C152.694 313.166 152.341 335.755 153.498 358.231C154.462 376.958 157.821 395.329 160.2 413.893C162.635 432.898 162.785 452.058 162.881 471.191C162.944 483.752 163.286 496.756 161.852 509.236" stroke="#2F8F78" stroke-width="1.01345" stroke-linecap="round"/>
</g>
</g>
</svg>
