<svg width="363" height="509" viewBox="0 0 363 509" fill="none" xmlns="http://www.w3.org/2000/svg">
<rect width="363" height="509" rx="34" fill="#FF83A6"/>
<path d="M108 224L136.179 255.79L176.778 250.905L179.352 294.725L213.374 319.03L189.138 354.377L200.665 396.5L160.959 406.833L144.596 447.065L108 427.55L71.4038 447.065L55.0407 406.833L15.3353 396.5L26.8617 354.377L2.62557 319.03L36.6482 294.725L39.2217 250.905L79.821 255.79L108 224Z" fill="#FF9DB8"/>
<mask id="mask0_42_1686" style="mask-type:alpha" maskUnits="userSpaceOnUse" x="0" y="0" width="363" height="509">
<rect width="363" height="509" rx="34" fill="#FF83A6"/>
</mask>
<g mask="url(#mask0_42_1686)">
<path d="M159 -137L211.962 -78.9221L266 -22L211.962 34.9221L159 93L106.038 34.9221L52 -22L106.038 -78.9221L159 -137Z" fill="#FF9DB8"/>
</g>
<path d="M246.588 205.933L245.927 203.969C244.411 199.469 240.611 196.118 235.957 195.178L173.19 182.495C168.898 181.628 164.454 182.93 161.307 185.975L158.977 188.231L185.855 193.662L246.588 205.933Z" fill="#4D4D4D"/>
<path d="M280.007 355.385L84.2389 315.83L68.7325 312.697L64.8129 332.096C63.3583 339.295 68.0151 346.31 75.2142 347.765L260.419 385.186C267.618 386.64 274.633 381.984 276.088 374.784L280.007 355.385Z" fill="#4C4C4C"/>
<path fill-rule="evenodd" clip-rule="evenodd" d="M172.366 281.721L281.169 303.705L283.401 338.587L195.919 320.911L87.6331 299.031L94.8892 284.748C97.5955 279.421 103.522 276.553 109.379 277.736L162.27 288.423C166.908 289.36 171.429 286.36 172.366 281.721Z" fill="#FFFAE8"/>
<path fill-rule="evenodd" clip-rule="evenodd" d="M285.758 213.848C292.957 215.302 297.614 222.317 296.159 229.517L281.169 303.705L172.366 281.721L102.975 267.7L115.667 204.883C117.122 197.684 124.137 193.027 131.336 194.482L167.533 201.796C171.234 202.543 175.079 201.683 178.108 199.428L185.855 193.662L246.588 205.933L285.758 213.848Z" fill="#FFFAE8"/>
<path d="M119.549 180.265C112.35 178.81 105.334 183.467 103.88 190.666L88.8898 264.854L102.975 267.7L115.667 204.883C117.122 197.684 124.137 193.027 131.336 194.482L167.533 201.796C171.234 202.543 175.079 201.683 178.108 199.428L185.855 193.662L158.977 188.231L119.549 180.265Z" fill="#EBE4C8"/>
<path fill-rule="evenodd" clip-rule="evenodd" d="M195.919 320.911L283.401 338.587L280.007 355.385L84.2389 315.83C85.3781 310.192 90.872 306.545 96.5099 307.684L184.018 325.365C188.51 326.273 193.127 324.545 195.919 320.911Z" fill="#FFFAE8"/>
<path d="M72.1267 295.898L68.7325 312.697L84.2389 315.83C85.3781 310.192 90.872 306.545 96.5099 307.684L184.018 325.365C188.51 326.273 193.127 324.545 195.919 320.911L87.6331 299.031L72.1267 295.898Z" fill="#EBE4C8"/>
<path d="M88.8898 264.854L72.1267 295.898L87.6331 299.031L94.8892 284.748C97.5955 279.421 103.522 276.553 109.379 277.736L162.27 288.423C166.908 289.36 171.429 286.36 172.366 281.721L102.975 267.7L88.8898 264.854Z" fill="#EBE4C8"/>
<path d="M107.752 218.095C108.891 212.458 114.385 208.811 120.023 209.95L145.609 215.119C151.247 216.258 154.894 221.752 153.754 227.39C152.615 233.028 147.121 236.675 141.483 235.536L115.898 230.366C110.26 229.227 106.613 223.733 107.752 218.095Z" fill="#686868"/>
<path d="M249.956 233.195C251.105 227.512 256.643 223.835 262.326 224.983L275.342 227.613C281.025 228.762 284.702 234.3 283.553 239.983L280.924 252.999C279.775 258.682 274.237 262.359 268.553 261.21L255.538 258.581C249.854 257.432 246.178 251.894 247.326 246.21L249.956 233.195Z" fill="#686868"/>
<path d="M251.867 282.317C251.232 285.457 248.172 287.489 245.032 286.854C241.892 286.22 239.861 283.16 240.495 280.02C241.13 276.88 244.19 274.848 247.33 275.483C250.47 276.117 252.501 279.177 251.867 282.317Z" fill="#4E4E4E"/>
<path d="M274.485 244.925C273.476 249.921 268.608 253.152 263.612 252.143C258.617 251.133 255.385 246.265 256.395 241.27C257.404 236.274 262.272 233.042 267.268 234.052C272.263 235.061 275.495 239.929 274.485 244.925Z" fill="#4E4E4E"/>
<path d="M122.388 256.156C121.321 261.437 116.175 264.853 110.894 263.786C105.613 262.719 102.196 257.573 103.263 252.292C104.331 247.01 109.477 243.594 114.758 244.661C120.039 245.728 123.455 250.875 122.388 256.156Z" fill="#E75152"/>
<path d="M228.409 259.959C224.415 279.728 205.152 292.515 185.383 288.521C165.615 284.527 152.827 265.263 156.821 245.495C160.816 225.726 180.079 212.939 199.848 216.933C219.616 220.927 232.404 240.191 228.409 259.959Z" fill="#4C4C4C"/>
<path d="M217.555 257.766C214.772 271.539 201.35 280.449 187.576 277.666C173.803 274.883 164.893 261.461 167.676 247.688C170.459 233.914 183.881 225.004 197.654 227.787C211.428 230.57 220.338 243.992 217.555 257.766Z" fill="#686868"/>
<path d="M205.64 255.493C204.198 262.63 197.244 267.246 190.108 265.804C182.971 264.362 178.354 257.408 179.796 250.271C181.238 243.134 188.193 238.518 195.329 239.96C202.466 241.402 207.082 248.356 205.64 255.493Z" fill="#212121"/>
<path d="M197.112 253.77C196.622 256.196 194.257 257.766 191.831 257.275C189.404 256.785 187.835 254.421 188.325 251.994C188.815 249.568 191.18 247.998 193.606 248.488C196.033 248.979 197.602 251.343 197.112 253.77Z" fill="#696969"/>
<path d="M78.417 331.331C79.239 327.263 83.2029 324.632 87.2708 325.454L258.1 359.97C262.167 360.792 264.799 364.756 263.977 368.824C263.155 372.892 259.191 375.523 255.123 374.701L84.2944 340.185C80.2265 339.363 77.5951 335.399 78.417 331.331Z" fill="#212121"/>
<path d="M281.169 303.705L296.159 229.517C297.614 222.317 292.957 215.302 285.758 213.848L246.588 205.933M281.169 303.705L283.401 338.587M281.169 303.705L172.366 281.721M88.8898 264.854L103.88 190.666C105.334 183.467 112.35 178.81 119.549 180.265L158.977 188.231M88.8898 264.854L72.1267 295.898M88.8898 264.854L102.975 267.7M246.588 205.933L245.927 203.969C244.411 199.469 240.611 196.118 235.957 195.178L173.19 182.495C168.898 181.628 164.454 182.93 161.307 185.975L158.977 188.231M246.588 205.933L185.855 193.662M158.977 188.231L185.855 193.662M283.401 338.587L280.007 355.385M283.401 338.587L195.919 320.911M72.1267 295.898L68.7325 312.697M72.1267 295.898L87.6331 299.031M280.007 355.385L276.088 374.784C274.633 381.984 267.618 386.64 260.419 385.186L75.2142 347.765C68.0151 346.31 63.3583 339.295 64.8129 332.096L68.7325 312.697M280.007 355.385L84.2389 315.83M68.7325 312.697L84.2389 315.83M185.855 193.662L178.108 199.428C175.079 201.683 171.234 202.543 167.533 201.796L131.336 194.482C124.137 193.027 117.122 197.684 115.667 204.883L102.975 267.7M102.975 267.7L172.366 281.721M172.366 281.721C171.429 286.36 166.908 289.36 162.27 288.423L109.379 277.736C103.522 276.553 97.5955 279.421 94.8892 284.748L87.6331 299.031M87.6331 299.031L195.919 320.911M195.919 320.911C193.127 324.545 188.51 326.273 184.018 325.365L96.5099 307.684C90.872 306.545 85.3781 310.192 84.2389 315.83M115.898 230.366L141.483 235.536C147.121 236.675 152.615 233.028 153.754 227.39C154.894 221.752 151.247 216.258 145.609 215.119L120.023 209.95C114.385 208.811 108.891 212.458 107.752 218.095C106.613 223.733 110.26 229.227 115.898 230.366ZM255.538 258.581L268.553 261.21C274.237 262.359 279.775 258.682 280.924 252.999L283.553 239.983C284.702 234.3 281.025 228.762 275.342 227.613L262.326 224.983C256.643 223.835 251.105 227.512 249.956 233.195L247.326 246.21C246.178 251.894 249.854 257.432 255.538 258.581ZM251.867 282.317C251.232 285.457 248.172 287.489 245.032 286.854C241.892 286.22 239.861 283.16 240.495 280.02C241.13 276.88 244.19 274.848 247.33 275.483C250.47 276.117 252.501 279.177 251.867 282.317ZM274.485 244.925C273.476 249.921 268.608 253.152 263.612 252.143C258.617 251.133 255.385 246.265 256.395 241.27C257.404 236.274 262.272 233.042 267.268 234.052C272.263 235.061 275.495 239.929 274.485 244.925ZM122.388 256.156C121.321 261.437 116.175 264.853 110.894 263.786C105.613 262.719 102.196 257.573 103.263 252.292C104.331 247.01 109.477 243.594 114.758 244.661C120.039 245.728 123.455 250.875 122.388 256.156ZM228.409 259.959C224.415 279.728 205.152 292.515 185.383 288.521C165.615 284.527 152.827 265.263 156.821 245.495C160.816 225.726 180.079 212.939 199.848 216.933C219.616 220.927 232.404 240.191 228.409 259.959ZM217.555 257.766C214.772 271.539 201.35 280.449 187.576 277.666C173.803 274.883 164.893 261.461 167.676 247.688C170.459 233.914 183.881 225.004 197.654 227.787C211.428 230.57 220.338 243.992 217.555 257.766ZM205.64 255.493C204.198 262.63 197.244 267.246 190.108 265.804C182.971 264.362 178.354 257.408 179.796 250.271C181.238 243.134 188.193 238.518 195.329 239.96C202.466 241.402 207.082 248.356 205.64 255.493ZM197.112 253.77C196.622 256.196 194.257 257.766 191.831 257.275C189.404 256.785 187.835 254.421 188.325 251.994C188.815 249.568 191.18 247.998 193.606 248.488C196.033 248.979 197.602 251.343 197.112 253.77ZM84.2944 340.185L255.123 374.701C259.191 375.523 263.155 372.892 263.977 368.824C264.799 364.756 262.167 360.792 258.1 359.97L87.2708 325.454C83.2029 324.632 79.239 327.263 78.417 331.331C77.5951 335.399 80.2265 339.363 84.2944 340.185Z" stroke="#E4527B" stroke-width="50.0876"/>
<path d="M246.588 205.933L245.927 203.969C244.411 199.469 240.611 196.118 235.957 195.178L173.19 182.495C168.898 181.628 164.454 182.93 161.307 185.975L158.977 188.231L185.855 193.662L246.588 205.933Z" fill="#4D4D4D"/>
<path d="M280.007 355.385L84.2389 315.83L68.7325 312.697L64.8129 332.096C63.3583 339.295 68.0151 346.31 75.2142 347.765L260.419 385.186C267.618 386.64 274.633 381.984 276.088 374.784L280.007 355.385Z" fill="#4C4C4C"/>
<path fill-rule="evenodd" clip-rule="evenodd" d="M172.366 281.721L281.169 303.705L283.401 338.587L195.919 320.911L87.6331 299.031L94.8892 284.748C97.5955 279.421 103.522 276.553 109.379 277.736L162.27 288.423C166.908 289.36 171.429 286.36 172.366 281.721Z" fill="#FFFAE8"/>
<path fill-rule="evenodd" clip-rule="evenodd" d="M285.758 213.848C292.957 215.302 297.614 222.317 296.159 229.517L281.169 303.705L172.366 281.721L102.975 267.7L115.667 204.883C117.122 197.684 124.137 193.027 131.336 194.482L167.533 201.796C171.234 202.543 175.079 201.683 178.108 199.428L185.855 193.662L246.588 205.933L285.758 213.848Z" fill="#FFFAE8"/>
<path d="M119.549 180.265C112.35 178.81 105.334 183.467 103.88 190.666L88.8898 264.854L102.975 267.7L115.667 204.883C117.122 197.684 124.137 193.027 131.336 194.482L167.533 201.796C171.234 202.543 175.079 201.683 178.108 199.428L185.855 193.662L158.977 188.231L119.549 180.265Z" fill="#EBE4C8"/>
<path fill-rule="evenodd" clip-rule="evenodd" d="M195.919 320.911L283.401 338.587L280.007 355.385L84.2389 315.83C85.3781 310.192 90.872 306.545 96.5099 307.684L184.018 325.365C188.51 326.273 193.127 324.545 195.919 320.911Z" fill="#FFFAE8"/>
<path d="M72.1267 295.898L68.7325 312.697L84.2389 315.83C85.3781 310.192 90.872 306.545 96.5099 307.684L184.018 325.365C188.51 326.273 193.127 324.545 195.919 320.911L87.6331 299.031L72.1267 295.898Z" fill="#EBE4C8"/>
<path d="M88.8898 264.854L72.1267 295.898L87.6331 299.031L94.8892 284.748C97.5955 279.421 103.522 276.553 109.379 277.736L162.27 288.423C166.908 289.36 171.429 286.36 172.366 281.721L102.975 267.7L88.8898 264.854Z" fill="#EBE4C8"/>
<path d="M107.752 218.095C108.891 212.458 114.385 208.811 120.023 209.95L145.609 215.119C151.247 216.258 154.894 221.752 153.754 227.39C152.615 233.028 147.121 236.675 141.483 235.536L115.898 230.366C110.26 229.227 106.613 223.733 107.752 218.095Z" fill="#686868"/>
<path d="M249.956 233.195C251.105 227.512 256.643 223.835 262.326 224.983L275.342 227.613C281.025 228.762 284.702 234.3 283.553 239.983L280.924 252.999C279.775 258.682 274.237 262.359 268.553 261.21L255.538 258.581C249.854 257.432 246.178 251.894 247.326 246.21L249.956 233.195Z" fill="#686868"/>
<path d="M251.867 282.317C251.232 285.457 248.172 287.489 245.032 286.854C241.892 286.22 239.861 283.16 240.495 280.02C241.13 276.88 244.19 274.848 247.33 275.483C250.47 276.117 252.501 279.177 251.867 282.317Z" fill="#4E4E4E"/>
<path d="M274.485 244.925C273.476 249.921 268.608 253.152 263.612 252.143C258.617 251.133 255.385 246.265 256.395 241.27C257.404 236.274 262.272 233.042 267.268 234.052C272.263 235.061 275.495 239.929 274.485 244.925Z" fill="#4E4E4E"/>
<path d="M122.388 256.156C121.321 261.437 116.175 264.853 110.894 263.786C105.613 262.719 102.196 257.573 103.263 252.292C104.331 247.01 109.477 243.594 114.758 244.661C120.039 245.728 123.455 250.875 122.388 256.156Z" fill="#E75152"/>
<path d="M228.409 259.959C224.415 279.728 205.152 292.515 185.383 288.521C165.615 284.527 152.827 265.263 156.821 245.495C160.816 225.726 180.079 212.939 199.848 216.933C219.616 220.927 232.404 240.191 228.409 259.959Z" fill="#4C4C4C"/>
<path d="M217.555 257.766C214.772 271.539 201.35 280.449 187.576 277.666C173.803 274.883 164.893 261.461 167.676 247.688C170.459 233.914 183.881 225.004 197.654 227.787C211.428 230.57 220.338 243.992 217.555 257.766Z" fill="#686868"/>
<path d="M205.64 255.493C204.198 262.63 197.244 267.246 190.108 265.804C182.971 264.362 178.354 257.408 179.796 250.271C181.238 243.134 188.193 238.518 195.329 239.96C202.466 241.402 207.082 248.356 205.64 255.493Z" fill="#212121"/>
<path d="M197.112 253.77C196.622 256.196 194.257 257.766 191.831 257.275C189.404 256.785 187.835 254.421 188.325 251.994C188.815 249.568 191.18 247.998 193.606 248.488C196.033 248.979 197.602 251.343 197.112 253.77Z" fill="#696969"/>
<path d="M78.417 331.331C79.239 327.263 83.2029 324.632 87.2708 325.454L258.1 359.97C262.167 360.792 264.799 364.756 263.977 368.824C263.155 372.892 259.191 375.523 255.123 374.701L84.2944 340.185C80.2265 339.363 77.5951 335.399 78.417 331.331Z" fill="#212121"/>
<path d="M281.169 303.705L296.159 229.517C297.614 222.317 292.957 215.302 285.758 213.848L246.588 205.933M281.169 303.705L283.401 338.587M281.169 303.705L172.366 281.721M88.8898 264.854L103.88 190.666C105.334 183.467 112.35 178.81 119.549 180.265L158.977 188.231M88.8898 264.854L72.1267 295.898M88.8898 264.854L102.975 267.7M246.588 205.933L245.927 203.969C244.411 199.469 240.611 196.118 235.957 195.178L173.19 182.495C168.898 181.628 164.454 182.93 161.307 185.975L158.977 188.231M246.588 205.933L185.855 193.662M158.977 188.231L185.855 193.662M283.401 338.587L280.007 355.385M283.401 338.587L195.919 320.911M72.1267 295.898L68.7325 312.697M72.1267 295.898L87.6331 299.031M280.007 355.385L276.088 374.784C274.633 381.984 267.618 386.64 260.419 385.186L75.2142 347.765C68.0151 346.31 63.3583 339.295 64.8129 332.096L68.7325 312.697M280.007 355.385L84.2389 315.83M68.7325 312.697L84.2389 315.83M185.855 193.662L178.108 199.428C175.079 201.683 171.234 202.543 167.533 201.796L131.336 194.482C124.137 193.027 117.122 197.684 115.667 204.883L102.975 267.7M102.975 267.7L172.366 281.721M172.366 281.721C171.429 286.36 166.908 289.36 162.27 288.423L109.379 277.736C103.522 276.553 97.5955 279.421 94.8892 284.748L87.6331 299.031M87.6331 299.031L195.919 320.911M195.919 320.911C193.127 324.545 188.51 326.273 184.018 325.365L96.5099 307.684C90.872 306.545 85.3781 310.192 84.2389 315.83M115.898 230.366L141.483 235.536C147.121 236.675 152.615 233.028 153.754 227.39C154.894 221.752 151.247 216.258 145.609 215.119L120.023 209.95C114.385 208.811 108.891 212.458 107.752 218.095C106.613 223.733 110.26 229.227 115.898 230.366ZM255.538 258.581L268.553 261.21C274.237 262.359 279.775 258.682 280.924 252.999L283.553 239.983C284.702 234.3 281.025 228.762 275.342 227.613L262.326 224.983C256.643 223.835 251.105 227.512 249.956 233.195L247.326 246.21C246.178 251.894 249.854 257.432 255.538 258.581ZM251.867 282.317C251.232 285.457 248.172 287.489 245.032 286.854C241.892 286.22 239.861 283.16 240.495 280.02C241.13 276.88 244.19 274.848 247.33 275.483C250.47 276.117 252.501 279.177 251.867 282.317ZM274.485 244.925C273.476 249.921 268.608 253.152 263.612 252.143C258.617 251.133 255.385 246.265 256.395 241.27C257.404 236.274 262.272 233.042 267.268 234.052C272.263 235.061 275.495 239.929 274.485 244.925ZM122.388 256.156C121.321 261.437 116.175 264.853 110.894 263.786C105.613 262.719 102.196 257.573 103.263 252.292C104.331 247.01 109.477 243.594 114.758 244.661C120.039 245.728 123.455 250.875 122.388 256.156ZM228.409 259.959C224.415 279.728 205.152 292.515 185.383 288.521C165.615 284.527 152.827 265.263 156.821 245.495C160.816 225.726 180.079 212.939 199.848 216.933C219.616 220.927 232.404 240.191 228.409 259.959ZM217.555 257.766C214.772 271.539 201.35 280.449 187.576 277.666C173.803 274.883 164.893 261.461 167.676 247.688C170.459 233.914 183.881 225.004 197.654 227.787C211.428 230.57 220.338 243.992 217.555 257.766ZM205.64 255.493C204.198 262.63 197.244 267.246 190.108 265.804C182.971 264.362 178.354 257.408 179.796 250.271C181.238 243.134 188.193 238.518 195.329 239.96C202.466 241.402 207.082 248.356 205.64 255.493ZM197.112 253.77C196.622 256.196 194.257 257.766 191.831 257.275C189.404 256.785 187.835 254.421 188.325 251.994C188.815 249.568 191.18 247.998 193.606 248.488C196.033 248.979 197.602 251.343 197.112 253.77ZM84.2944 340.185L255.123 374.701C259.191 375.523 263.155 372.892 263.977 368.824C264.799 364.756 262.167 360.792 258.1 359.97L87.2708 325.454C83.2029 324.632 79.239 327.263 78.417 331.331C77.5951 335.399 80.2265 339.363 84.2944 340.185Z" stroke="white" stroke-width="30.2612"/>
<path d="M246.588 205.933L245.927 203.969C244.411 199.469 240.611 196.118 235.957 195.178L204.906 188.904L173.19 182.495C168.898 181.628 164.454 182.93 161.307 185.975L158.977 188.231L185.855 193.662L246.588 205.933Z" fill="#4D4D4D"/>
<path d="M280.007 355.385L84.239 315.83L68.7326 312.697L64.8129 332.096C63.3583 339.295 68.0152 346.31 75.2143 347.765L260.419 385.186C267.618 386.64 274.633 381.983 276.088 374.784L280.007 355.385Z" fill="#4C4C4C"/>
<path fill-rule="evenodd" clip-rule="evenodd" d="M172.366 281.721L281.169 303.705L283.401 338.587L195.919 320.911L87.6332 299.031L94.8892 284.748C97.5955 279.421 103.522 276.553 109.379 277.736L162.27 288.423C166.908 289.36 171.429 286.36 172.366 281.721V281.721Z" fill="#FFFAE8"/>
<path fill-rule="evenodd" clip-rule="evenodd" d="M285.758 213.848C292.957 215.302 297.614 222.317 296.159 229.517L281.169 303.705L172.366 281.721L102.975 267.7L115.667 204.883C117.122 197.684 124.137 193.027 131.336 194.482L167.534 201.796C171.235 202.543 175.079 201.683 178.108 199.428L185.855 193.662L246.588 205.933L285.758 213.848Z" fill="#FFFAE8"/>
<path d="M119.549 180.265C112.35 178.81 105.334 183.467 103.88 190.666L88.8899 264.854L102.975 267.7L115.667 204.883C117.122 197.684 124.137 193.027 131.336 194.482L167.534 201.796C171.235 202.543 175.079 201.683 178.108 199.428L185.855 193.662L158.977 188.231L119.549 180.265Z" fill="#EBE4C8"/>
<path fill-rule="evenodd" clip-rule="evenodd" d="M195.919 320.911L283.401 338.587L280.007 355.385L84.239 315.83V315.83C85.3781 310.192 90.872 306.545 96.51 307.684L184.018 325.365C188.51 326.273 193.127 324.545 195.919 320.911V320.911Z" fill="#FFFAE8"/>
<path d="M72.1268 295.898L68.7326 312.697L84.239 315.83V315.83C85.3781 310.192 90.872 306.545 96.51 307.684L184.018 325.365C188.51 326.273 193.127 324.545 195.919 320.911V320.911L87.6332 299.031L72.1268 295.898Z" fill="#EBE4C8"/>
<path d="M88.8899 264.854L72.1268 295.898L87.6332 299.031L94.8892 284.748C97.5955 279.421 103.522 276.553 109.379 277.736L162.27 288.423C166.908 289.36 171.429 286.36 172.366 281.721V281.721L102.975 267.7L88.8899 264.854Z" fill="#EBE4C8"/>
<path d="M281.169 303.705L296.159 229.517C297.614 222.317 292.957 215.302 285.758 213.848L246.588 205.933M281.169 303.705L283.401 338.587M281.169 303.705L172.366 281.721L102.975 267.7L88.8899 264.854M88.8899 264.854L103.88 190.666C105.334 183.467 112.35 178.81 119.549 180.265L158.977 188.231M88.8899 264.854L72.1268 295.898M246.588 205.933L245.927 203.969C244.411 199.469 240.611 196.118 235.957 195.178L204.906 188.904L173.19 182.495C168.898 181.628 164.454 182.93 161.307 185.975L158.977 188.231M246.588 205.933L185.855 193.662L158.977 188.231M283.401 338.587L280.007 355.385M283.401 338.587L195.919 320.911L87.6332 299.031L72.1268 295.898M72.1268 295.898L68.7326 312.697M280.007 355.385L276.088 374.784C274.633 381.983 267.618 386.64 260.419 385.186L75.2143 347.765C68.0152 346.31 63.3583 339.295 64.8129 332.096L68.7326 312.697M280.007 355.385L84.239 315.83L68.7326 312.697" stroke="#662809" stroke-width="1.56524"/>
<rect x="109.815" y="207.887" width="46.9319" height="20.8293" rx="10.4147" transform="rotate(11.423 109.815 207.887)" fill="#686868" stroke="#662809" stroke-width="1.56524"/>
<rect x="252.036" y="222.904" width="34.2761" height="34.2761" rx="10.4988" transform="rotate(11.423 252.036 222.904)" fill="#686868" stroke="#662809" stroke-width="1.56524"/>
<circle cx="246.181" cy="281.169" r="5.80058" transform="rotate(11.423 246.181 281.169)" fill="#4E4E4E" stroke="#662809" stroke-width="1.56524"/>
<circle cx="265.44" cy="243.097" r="9.22819" transform="rotate(11.423 265.44 243.097)" fill="#4E4E4E"/>
<circle cx="112.826" cy="254.224" r="9.75552" transform="rotate(11.423 112.826 254.224)" fill="#E75152" stroke="#662809" stroke-width="1.56524"/>
<circle cx="192.615" cy="252.727" r="36.5173" transform="rotate(11.423 192.615 252.727)" fill="#4C4C4C" stroke="#662809" stroke-width="1.56524"/>
<circle cx="192.615" cy="252.727" r="25.4434" transform="rotate(11.423 192.615 252.727)" fill="#686868" stroke="#662809" stroke-width="1.56524"/>
<circle cx="192.718" cy="252.882" r="13.1831" transform="rotate(11.423 192.718 252.882)" fill="#212121" stroke="#662809" stroke-width="1.56524"/>
<circle cx="192.719" cy="252.882" r="4.48226" transform="rotate(11.423 192.719 252.882)" fill="#696969" stroke="#662809" stroke-width="1.56524"/>
<rect x="79.9053" y="323.965" width="189.31" height="15.0288" rx="7.51439" transform="rotate(11.423 79.9053 323.965)" fill="#212121" stroke="#662809" stroke-width="1.56524"/>
<path d="M84.6341 136.136L37.9125 124.589M68.0913 157.474L60.689 107.45M36.1773 164.366L82.1294 105.092" stroke="#DAFF66" stroke-width="10" stroke-linecap="round"/>
<path d="M266 451.028C296 460.528 307.5 427.528 295 430.528C282.5 433.528 354 484.028 322 385.528" stroke="#DAFF66" stroke-width="10" stroke-linecap="round"/>
<path d="M203.192 120.662C197.01 119.435 194.241 114.557 195.288 109.281C196.335 104.004 200.757 100.554 206.939 101.78C211.956 102.776 214.744 106.071 214.59 110.772L210.4 109.941C210.055 107.345 208.517 106.153 206.164 105.686C202.62 104.983 200.27 106.936 199.634 110.143C198.997 113.35 200.423 116.053 203.967 116.756C206.321 117.223 208.197 116.708 209.507 114.441L213.697 115.273C212.044 119.676 208.21 121.657 203.192 120.662ZM232.979 126.169L228.504 125.281L227.967 122.702L218.708 120.864L217.227 123.043L212.752 122.156L224.13 105.595L228.76 106.514L232.979 126.169ZM225.514 110.816L220.808 117.732L227.196 119L225.514 110.816ZM248.404 110.412C253.448 111.413 254.973 114.834 254.193 118.765C253.413 122.697 250.691 125.302 245.648 124.301L240.087 123.198L239.25 127.414L234.957 126.562L238.549 108.456L248.404 110.412ZM240.841 119.396L245.911 120.402C248.239 120.863 249.484 120.008 249.899 117.913C250.305 115.87 249.486 114.578 247.158 114.116L242.088 113.11L240.841 119.396ZM257.651 112.247L274.955 115.68L274.201 119.483L267.708 118.194L264.87 132.498L260.577 131.646L263.415 117.342L256.897 116.049L257.651 112.247ZM282.265 136.353C276.109 135.131 274.247 131.509 275.289 126.258L277.296 116.145L281.59 116.997L279.583 127.11C278.993 130.085 280.066 131.857 283.04 132.447C285.989 133.032 287.683 131.809 288.274 128.835L290.28 118.722L294.574 119.574L292.567 129.687C291.525 134.937 288.395 137.569 282.265 136.353ZM309.436 135.05L311.52 141.755L307.2 140.897L305.48 135.206L305.118 135.134L299.427 134.005L298.406 139.152L294.112 138.3L297.705 120.195L307.689 122.176C312.681 123.167 314.17 126.366 313.436 130.064C312.954 132.496 311.674 134.339 309.436 135.05ZM306.417 125.876L301.244 124.849L300.182 130.203L305.355 131.23C307.683 131.692 308.794 130.971 309.143 129.212C309.497 127.428 308.745 126.338 306.417 125.876ZM332.951 127.189L332.201 130.965L321.002 128.743L320.273 132.416L331.059 134.556L330.391 137.918L319.606 135.778L318.908 139.296L330.107 141.518L329.358 145.294L313.865 142.22L317.458 124.115L332.951 127.189ZM134.971 112.371L152.275 115.804L151.521 119.606L145.028 118.318L142.19 132.621L137.897 131.769L140.735 117.466L134.217 116.173L134.971 112.371ZM166.707 126.733L168.247 118.974L172.541 119.826L168.948 137.931L164.654 137.079L165.989 130.354L156.651 128.501L155.317 135.226L151.023 134.374L154.616 116.269L158.91 117.121L157.37 124.88L166.707 126.733ZM191.2 123.528L190.451 127.305L179.251 125.082L178.523 128.755L189.308 130.895L188.641 134.258L177.855 132.118L177.157 135.635L188.357 137.858L187.607 141.634L172.114 138.559L175.707 120.454L191.2 123.528ZM199.645 144.023L195.378 143.176L198.97 125.07L205.954 126.456L207.698 141.239L207.983 141.295L215.239 128.299L222.249 129.69L218.656 147.795L214.388 146.948L217.098 133.291L216.788 133.23L209.531 145.957L204.513 144.962L202.666 130.428L202.355 130.366L199.645 144.023ZM230.852 150.618C224.67 149.392 221.901 144.514 222.948 139.238C223.995 133.961 228.417 130.51 234.598 131.737C240.78 132.964 243.575 137.846 242.528 143.123C241.481 148.399 237.033 151.845 230.852 150.618ZM231.627 146.713C235.196 147.421 237.546 145.468 238.182 142.261C238.819 139.053 237.393 136.351 233.823 135.643C230.28 134.939 227.93 136.893 227.293 140.1C226.657 143.307 228.083 146.01 231.627 146.713ZM247.511 153.521L243.243 152.674L246.836 134.569L253.819 135.954L255.564 150.737L255.848 150.793L263.105 137.797L270.114 139.188L266.521 157.293L262.254 156.446L264.964 142.79L264.653 142.728L257.396 155.456L252.378 154.46L250.531 139.926L250.221 139.864L247.511 153.521ZM288.749 142.886L288 146.662L276.801 144.44L276.072 148.112L286.857 150.253L286.19 153.615L275.404 151.475L274.706 154.993L285.906 157.215L285.157 160.991L269.664 157.917L273.256 139.811L288.749 142.886ZM292.295 162.408L288.001 161.556L291.594 143.45L297.155 144.554L302.359 159.243L302.618 159.294L303.049 156.987L305.199 146.15L309.493 147.002L305.9 165.107L300.339 164.004L295.135 149.314L294.876 149.263L294.445 151.57L292.295 162.408ZM311.479 147.396L328.783 150.83L328.028 154.632L321.536 153.344L318.698 167.647L314.404 166.795L317.243 152.492L310.725 151.198L311.479 147.396Z" fill="white"/>
</svg>
