<svg width="744" height="50" viewBox="0 0 744 50" fill="none" xmlns="http://www.w3.org/2000/svg">
<circle cx="25" cy="25" r="25" fill="#513BD6"/>
<circle cx="278" cy="25" r="25" fill="#3C8EF4"/>
<circle cx="469" cy="25" r="25" fill="#50B099"/>
<path d="M101.584 37.3147H101.547C95.9244 37.3147 90.227 36.1902 89.8147 28.881H95.5496C96.0744 31.5048 98.5482 32.2545 101.959 32.2545C106.082 32.2545 107.919 31.205 107.919 28.956C107.919 27.1193 106.794 26.3322 104.058 26.1073L99.1854 25.695C93.1882 25.2077 90.227 22.6589 90.227 17.936C90.227 12.8384 93.7129 9.95219 102.297 9.95219C107.956 9.95219 113.466 11.1516 113.879 18.4233H108.106C107.469 15.7995 105.595 15.0499 102.072 15.0499C97.986 15.0499 96.4867 16.0244 96.4867 17.8986C96.4867 19.5478 97.6112 20.3724 100.235 20.5973L105.07 21.0096C111.255 21.5344 114.291 23.7834 114.291 28.8061C114.291 34.2786 110.58 37.3147 101.584 37.3147ZM127.546 37.3147C120.499 37.3147 116.751 32.7418 116.751 27.0069C116.751 21.272 120.499 16.6991 127.546 16.6991C133.618 16.6991 137.254 20.1475 137.816 25.0578H131.894C131.407 23.1087 129.795 22.0592 127.546 22.0592C124.473 22.0592 122.711 24.1207 122.711 27.0069C122.711 29.8931 124.473 31.9546 127.546 31.9546C129.795 31.9546 131.407 30.9051 131.894 28.956H137.816C137.292 33.8663 133.618 37.3147 127.546 37.3147ZM154.085 16.6991C159.595 16.6991 162.144 20.11 162.144 25.62V36.7524H156.072V26.7445C156.072 23.8583 154.872 21.9842 151.724 21.9842C148.575 21.9842 147.113 23.8583 147.113 26.7445V36.7524H141.078V10.1396H147.113V19.8477L146.626 21.0096C147.938 18.6107 149.999 16.6991 154.085 16.6991ZM176.194 37.3147C169.372 37.3147 165.362 32.7793 165.362 27.0069C165.362 21.2345 169.372 16.6991 176.194 16.6991C183.054 16.6991 187.064 21.2345 187.064 27.0069C187.064 32.7793 183.054 37.3147 176.194 37.3147ZM176.194 31.9546C179.305 31.9546 181.105 29.8556 181.105 27.0069C181.105 24.1582 179.305 22.0592 176.194 22.0592C173.083 22.0592 171.284 24.1582 171.284 27.0069C171.284 29.8556 173.083 31.9546 176.194 31.9546ZM200.536 37.3147C193.714 37.3147 189.704 32.7793 189.704 27.0069C189.704 21.2345 193.714 16.6991 200.536 16.6991C207.396 16.6991 211.406 21.2345 211.406 27.0069C211.406 32.7793 207.396 37.3147 200.536 37.3147ZM200.536 31.9546C203.647 31.9546 205.446 29.8556 205.446 27.0069C205.446 24.1582 203.647 22.0592 200.536 22.0592C197.425 22.0592 195.626 24.1582 195.626 27.0069C195.626 29.8556 197.425 31.9546 200.536 31.9546ZM220.651 36.7524H214.617V10.1396H220.651V36.7524Z" fill="#513BD6"/>
<path d="M354.707 36.7524H348.485V10.5144H354.707V36.7524ZM370.079 37.3147H370.042C364.42 37.3147 358.722 36.1902 358.31 28.881H364.045C364.569 31.5048 367.043 32.2545 370.454 32.2545C374.577 32.2545 376.414 31.205 376.414 28.956C376.414 27.1193 375.29 26.3322 372.553 26.1073L367.681 25.695C361.683 25.2077 358.722 22.6589 358.722 17.936C358.722 12.8384 362.208 9.95219 370.792 9.95219C376.452 9.95219 381.961 11.1516 382.374 18.4233H376.601C375.964 15.7995 374.09 15.0499 370.567 15.0499C366.481 15.0499 364.982 16.0244 364.982 17.8986C364.982 19.5478 366.106 20.3724 368.73 20.5973L373.565 21.0096C379.75 21.5344 382.786 23.7834 382.786 28.8061C382.786 34.2786 379.075 37.3147 370.079 37.3147ZM399.602 37.3147C390.644 37.3147 385.434 31.2799 385.434 23.6334C385.434 15.9869 390.644 9.95219 399.602 9.95219C406.874 9.95219 411.672 13.7754 412.759 20.3724H406.686C405.487 16.849 403.013 15.6121 399.602 15.6121C394.467 15.6121 391.731 18.9856 391.731 23.6334C391.731 28.2813 394.467 31.6548 399.602 31.6548C403.013 31.6548 405.487 30.4178 406.686 26.8944H412.759C411.672 33.4914 406.874 37.3147 399.602 37.3147Z" fill="#3C8EF4"/>
<path d="M541.979 36.7524H529.347V10.5144H541.979C550.338 10.5144 555.511 15.7246 555.511 23.6334C555.511 31.5423 550.338 36.7524 541.979 36.7524ZM535.57 16.0244V31.2425H541.867C546.777 31.2425 549.213 28.2813 549.213 23.6334C549.213 18.9856 546.777 16.0244 541.867 16.0244H535.57ZM569.035 37.3147C562.213 37.3147 558.202 32.7793 558.202 27.0069C558.202 21.2345 562.213 16.6991 569.035 16.6991C575.894 16.6991 579.905 21.2345 579.905 27.0069C579.905 32.7793 575.894 37.3147 569.035 37.3147ZM569.035 31.9546C572.146 31.9546 573.945 29.8556 573.945 27.0069C573.945 24.1582 572.146 22.0592 569.035 22.0592C565.923 22.0592 564.124 24.1582 564.124 27.0069C564.124 29.8556 565.923 31.9546 569.035 31.9546ZM589.15 36.7524H583.115V17.2614H588.925L589.15 19.8477L588.55 21.1971C589.862 18.6482 591.624 16.6991 595.409 16.6991C600.245 16.6991 602.494 19.9976 602.494 24.9079V26.6696H596.871V25.9574C596.871 23.7834 596.046 21.9842 593.235 21.9842C590.387 21.9842 589.15 23.7834 589.15 26.4447V36.7524ZM632.902 16.7366C638.337 16.7366 640.773 20.1475 640.773 25.7325V36.7524H634.738V26.5571C634.738 23.7084 633.502 21.9842 630.728 21.9842C627.954 21.9842 626.492 23.7084 626.492 26.5571V36.7524H620.42V26.5571C620.42 23.7084 619.146 21.9842 616.409 21.9842C613.673 21.9842 612.174 23.7084 612.174 26.5571V36.7524H606.139V17.2614H611.949L612.174 19.8477L611.949 20.3724C613.261 18.3109 615.285 16.7366 618.808 16.7366C622.182 16.7366 624.393 18.1609 625.555 20.7098C626.792 18.4608 629.004 16.7366 632.902 16.7366ZM648.012 14.5251C645.988 14.5251 644.789 13.1382 644.789 11.4515C644.789 9.80226 645.988 8.37791 648.012 8.37791C650.036 8.37791 651.236 9.80226 651.236 11.4515C651.236 13.1382 650.036 14.5251 648.012 14.5251ZM651.048 36.7524H645.014V17.2614H651.048V36.7524ZM670.817 17.2614V22.3965H664.633V28.9935C664.633 30.9801 665.382 31.5423 667.257 31.5423H670.817V36.9399H666.132C660.51 36.9399 658.598 34.4285 658.598 29.968V22.3965H654.288V17.2614H658.598V11.2641H664.633V17.2614H670.817ZM683.972 37.3147C677.15 37.3147 673.14 32.7793 673.14 27.0069C673.14 21.2345 677.15 16.6991 683.972 16.6991C690.832 16.6991 694.842 21.2345 694.842 27.0069C694.842 32.7793 690.832 37.3147 683.972 37.3147ZM683.972 31.9546C687.083 31.9546 688.882 29.8556 688.882 27.0069C688.882 24.1582 687.083 22.0592 683.972 22.0592C680.861 22.0592 679.062 24.1582 679.062 27.0069C679.062 29.8556 680.861 31.9546 683.972 31.9546ZM704.087 36.7524H698.053V17.2614H703.862L704.087 19.8477L703.488 21.1971C704.799 18.6482 706.561 16.6991 710.347 16.6991C715.182 16.6991 717.431 19.9976 717.431 24.9079V26.6696H711.809V25.9574C711.809 23.7834 710.984 21.9842 708.173 21.9842C705.324 21.9842 704.087 23.7834 704.087 26.4447V36.7524ZM731.834 42.15H725.65L727.974 36.8649L726.849 34.4285L719.39 17.2614H725.687L730.86 30.043H731.085L736.295 17.2614H742.592L731.834 42.15Z" fill="#50B099"/>
</svg>
