<svg width="655" height="267" viewBox="0 0 655 267" fill="none" xmlns="http://www.w3.org/2000/svg">
<path d="M577.005 1.70596H1.70624V53.0643C1.70624 81.4288 24.7002 104.423 53.0646 104.423H577.005C605.369 104.423 628.363 81.4288 628.363 53.0643C628.363 24.6999 605.369 1.70596 577.005 1.70596Z" fill="#FBFBFB" stroke="#595CD4" stroke-width="3.41193"/>
<path d="M440.5 125.706H42.4983C19.9693 125.706 1.70596 143.969 1.70596 166.498C1.70596 189.029 19.9709 207.294 42.5017 207.294H440.5C463.03 207.294 481.294 189.03 481.294 166.5C481.294 143.97 463.03 125.706 440.5 125.706Z" fill="#FBFBFB" stroke="#595CD4" stroke-width="3.41193"/>
<path d="M76.8284 73.8531C72.9895 73.8531 69.4113 73.237 66.0938 72.0047C62.8236 70.7251 59.98 68.9242 57.563 66.6019C55.1459 64.2796 53.2502 61.5545 51.8758 58.4265C50.5488 55.2986 49.8852 51.8626 49.8852 48.1185C49.8852 44.3744 50.5488 40.9384 51.8758 37.8104C53.2502 34.6825 55.1459 31.9574 57.563 29.6351C60.0274 27.3128 62.8947 25.5356 66.1649 24.3033C69.435 23.0237 73.0132 22.3839 76.8995 22.3839C81.2123 22.3839 85.0985 23.1422 88.5582 24.6588C92.0653 26.128 95.0037 28.3081 97.3734 31.1991L89.98 38.0237C88.2739 36.0806 86.3781 34.6351 84.2928 33.6872C82.2075 32.6919 79.9326 32.1943 77.4682 32.1943C75.1459 32.1943 73.0132 32.5735 71.0701 33.3318C69.1269 34.0901 67.4445 35.1801 66.0227 36.6019C64.6009 38.0237 63.4871 39.7062 62.6815 41.6493C61.9232 43.5924 61.544 45.7488 61.544 48.1185C61.544 50.4882 61.9232 52.6446 62.6815 54.5877C63.4871 56.5308 64.6009 58.2133 66.0227 59.6351C67.4445 61.0569 69.1269 62.1469 71.0701 62.9052C73.0132 63.6635 75.1459 64.0427 77.4682 64.0427C79.9326 64.0427 82.2075 63.5687 84.2928 62.6209C86.3781 61.6256 88.2739 60.1327 89.98 58.1422L97.3734 64.9668C95.0037 67.8578 92.0653 70.0616 88.5582 71.5782C85.0985 73.0948 81.1886 73.8531 76.8284 73.8531ZM121.249 73.5687C117.173 73.5687 113.547 72.7156 110.372 71.0095C107.244 69.3033 104.756 66.981 102.907 64.0427C101.106 61.0569 100.206 57.6682 100.206 53.8768C100.206 50.0379 101.106 46.6493 102.907 43.7109C104.756 40.7251 107.244 38.4028 110.372 36.7441C113.547 35.0379 117.173 34.1848 121.249 34.1848C125.277 34.1848 128.879 35.0379 132.054 36.7441C135.23 38.4028 137.718 40.7014 139.519 43.6398C141.32 46.5782 142.22 49.9905 142.22 53.8768C142.22 57.6682 141.32 61.0569 139.519 64.0427C137.718 66.981 135.23 69.3033 132.054 71.0095C128.879 72.7156 125.277 73.5687 121.249 73.5687ZM121.249 64.4692C123.097 64.4692 124.756 64.0427 126.225 63.1896C127.694 62.3365 128.855 61.128 129.708 59.564C130.561 57.9526 130.988 56.0569 130.988 53.8768C130.988 51.6493 130.561 49.7536 129.708 48.1896C128.855 46.6256 127.694 45.4171 126.225 44.564C124.756 43.7109 123.097 43.2844 121.249 43.2844C119.4 43.2844 117.741 43.7109 116.272 44.564C114.803 45.4171 113.618 46.6256 112.718 48.1896C111.865 49.7536 111.438 51.6493 111.438 53.8768C111.438 56.0569 111.865 57.9526 112.718 59.564C113.618 61.128 114.803 62.3365 116.272 63.1896C117.741 64.0427 119.4 64.4692 121.249 64.4692ZM198.614 34.1848C201.647 34.1848 204.325 34.801 206.647 36.0332C209.017 37.218 210.865 39.0664 212.192 41.5782C213.567 44.0427 214.254 47.218 214.254 51.1043V73H203.164V52.8104C203.164 49.7299 202.524 47.455 201.244 45.9858C199.965 44.5166 198.164 43.782 195.841 43.782C194.23 43.782 192.785 44.1611 191.505 44.9194C190.225 45.6303 189.23 46.7204 188.519 48.1896C187.808 49.6588 187.453 51.5308 187.453 53.8057V73H176.363V52.8104C176.363 49.7299 175.723 47.455 174.443 45.9858C173.211 44.5166 171.434 43.782 169.112 43.782C167.5 43.782 166.055 44.1611 164.775 44.9194C163.495 45.6303 162.5 46.7204 161.789 48.1896C161.078 49.6588 160.723 51.5308 160.723 53.8057V73H149.633V34.7536H160.225V45.2038L158.235 42.1469C159.562 39.5403 161.434 37.5735 163.851 36.2465C166.315 34.872 169.112 34.1848 172.24 34.1848C175.747 34.1848 178.804 35.0853 181.41 36.8863C184.064 38.6398 185.818 41.3412 186.671 44.9905L182.761 43.9242C184.04 40.9384 186.078 38.5687 188.875 36.8152C191.718 35.0616 194.965 34.1848 198.614 34.1848ZM224.194 73V34.7536H235.284V73H224.194ZM229.739 29.4218C227.701 29.4218 226.042 28.8294 224.763 27.6446C223.483 26.4597 222.843 24.9905 222.843 23.237C222.843 21.4834 223.483 20.0142 224.763 18.8294C226.042 17.6446 227.701 17.0521 229.739 17.0521C231.777 17.0521 233.436 17.6209 234.715 18.7583C235.995 19.8484 236.635 21.2702 236.635 23.0237C236.635 24.872 235.995 26.4123 234.715 27.6446C233.483 28.8294 231.824 29.4218 229.739 29.4218ZM268.823 34.1848C271.856 34.1848 274.558 34.801 276.927 36.0332C279.344 37.218 281.24 39.0664 282.615 41.5782C283.989 44.0427 284.676 47.218 284.676 51.1043V73H273.586V52.8104C273.586 49.7299 272.899 47.455 271.525 45.9858C270.198 44.5166 268.302 43.782 265.837 43.782C264.084 43.782 262.496 44.1611 261.074 44.9194C259.7 45.6303 258.61 46.7441 257.804 48.2607C257.046 49.7773 256.667 51.7204 256.667 54.0901V73H245.577V34.7536H256.169V45.346L254.179 42.1469C255.553 39.5877 257.52 37.6209 260.079 36.2465C262.638 34.872 265.553 34.1848 268.823 34.1848ZM312.992 87.3602C309.39 87.3602 305.907 86.91 302.542 86.0095C299.224 85.1564 296.452 83.8531 294.224 82.0995L298.632 74.1374C300.243 75.4645 302.281 76.5071 304.746 77.2654C307.258 78.0711 309.722 78.4739 312.139 78.4739C316.073 78.4739 318.916 77.5972 320.67 75.8436C322.471 74.09 323.371 71.4834 323.371 68.0237V62.2654L324.082 52.6682L323.94 43V34.7536H334.461V66.6019C334.461 73.7109 332.613 78.9479 328.916 82.3128C325.22 85.6777 319.912 87.3602 312.992 87.3602ZM311.286 71.1517C307.732 71.1517 304.509 70.3934 301.618 68.8768C298.774 67.3128 296.476 65.1564 294.722 62.4076C293.016 59.6114 292.163 56.3649 292.163 52.6682C292.163 48.9242 293.016 45.6777 294.722 42.9289C296.476 40.1327 298.774 37.9763 301.618 36.4597C304.509 34.9431 307.732 34.1848 311.286 34.1848C314.509 34.1848 317.352 34.8483 319.817 36.1754C322.281 37.455 324.201 39.4692 325.575 42.218C326.95 44.9194 327.637 48.4028 327.637 52.6682C327.637 56.8863 326.95 60.3697 325.575 63.1185C324.201 65.8199 322.281 67.8341 319.817 69.1611C317.352 70.4882 314.509 71.1517 311.286 71.1517ZM313.49 62.0521C315.433 62.0521 317.163 61.673 318.679 60.9147C320.196 60.109 321.381 58.9953 322.234 57.5735C323.087 56.1517 323.514 54.5166 323.514 52.6682C323.514 50.7725 323.087 49.1374 322.234 47.763C321.381 46.3412 320.196 45.2512 318.679 44.4929C317.163 43.6872 315.433 43.2844 313.49 43.2844C311.547 43.2844 309.817 43.6872 308.3 44.4929C306.784 45.2512 305.575 46.3412 304.675 47.763C303.822 49.1374 303.395 50.7725 303.395 52.6682C303.395 54.5166 303.822 56.1517 304.675 57.5735C305.575 58.9953 306.784 60.109 308.3 60.9147C309.817 61.673 311.547 62.0521 313.49 62.0521ZM382.049 73.8531C378.068 73.8531 374.253 73.3318 370.603 72.2891C366.954 71.1991 364.016 69.8009 361.788 68.0948L365.698 59.4218C367.831 60.9384 370.343 62.1943 373.234 63.1896C376.172 64.1374 379.134 64.6114 382.12 64.6114C384.395 64.6114 386.22 64.3981 387.594 63.9716C389.016 63.4976 390.058 62.8578 390.722 62.0521C391.385 61.2464 391.717 60.3223 391.717 59.2796C391.717 57.9526 391.196 56.91 390.153 56.1517C389.111 55.346 387.736 54.7062 386.03 54.2322C384.324 53.7109 382.428 53.237 380.343 52.8104C378.305 52.3365 376.243 51.7678 374.158 51.1043C372.12 50.4408 370.248 49.5877 368.542 48.545C366.836 47.5024 365.438 46.128 364.348 44.4218C363.305 42.7156 362.784 40.5355 362.784 37.8815C362.784 35.0379 363.542 32.455 365.058 30.1327C366.622 27.763 368.945 25.891 372.025 24.5166C375.153 23.0948 379.063 22.3839 383.755 22.3839C386.883 22.3839 389.964 22.763 392.997 23.5213C396.03 24.2322 398.708 25.3223 401.03 26.7915L397.476 35.5356C395.153 34.2085 392.831 33.237 390.509 32.6209C388.186 31.9574 385.912 31.6256 383.684 31.6256C381.457 31.6256 379.632 31.8863 378.21 32.4076C376.788 32.9289 375.769 33.6161 375.153 34.4692C374.537 35.2749 374.229 36.2228 374.229 37.3128C374.229 38.5924 374.75 39.6351 375.793 40.4408C376.836 41.1991 378.21 41.8152 379.916 42.2891C381.622 42.763 383.494 43.237 385.532 43.7109C387.618 44.1848 389.679 44.7299 391.717 45.346C393.803 45.9621 395.698 46.7915 397.404 47.8341C399.111 48.8768 400.485 50.2512 401.528 51.9573C402.618 53.6635 403.163 55.8199 403.163 58.4265C403.163 61.2228 402.381 63.782 400.817 66.1043C399.253 68.4265 396.907 70.2986 393.779 71.7204C390.698 73.1422 386.788 73.8531 382.049 73.8531ZM428.449 73.5687C424.373 73.5687 420.748 72.7156 417.572 71.0095C414.444 69.3033 411.956 66.981 410.108 64.0427C408.307 61.0569 407.406 57.6682 407.406 53.8768C407.406 50.0379 408.307 46.6493 410.108 43.7109C411.956 40.7251 414.444 38.4028 417.572 36.7441C420.748 35.0379 424.373 34.1848 428.449 34.1848C432.478 34.1848 436.079 35.0379 439.255 36.7441C442.43 38.4028 444.918 40.7014 446.719 43.6398C448.52 46.5782 449.421 49.9905 449.421 53.8768C449.421 57.6682 448.52 61.0569 446.719 64.0427C444.918 66.981 442.43 69.3033 439.255 71.0095C436.079 72.7156 432.478 73.5687 428.449 73.5687ZM428.449 64.4692C430.297 64.4692 431.956 64.0427 433.425 63.1896C434.895 62.3365 436.056 61.128 436.909 59.564C437.762 57.9526 438.188 56.0569 438.188 53.8768C438.188 51.6493 437.762 49.7536 436.909 48.1896C436.056 46.6256 434.895 45.4171 433.425 44.564C431.956 43.7109 430.297 43.2844 428.449 43.2844C426.601 43.2844 424.942 43.7109 423.473 44.564C422.004 45.4171 420.819 46.6256 419.918 48.1896C419.065 49.7536 418.639 51.6493 418.639 53.8768C418.639 56.0569 419.065 57.9526 419.918 59.564C420.819 61.128 422.004 62.3365 423.473 63.1896C424.942 64.0427 426.601 64.4692 428.449 64.4692ZM475.033 73.5687C470.957 73.5687 467.331 72.7156 464.156 71.0095C461.028 69.3033 458.54 66.981 456.691 64.0427C454.89 61.0569 453.99 57.6682 453.99 53.8768C453.99 50.0379 454.89 46.6493 456.691 43.7109C458.54 40.7251 461.028 38.4028 464.156 36.7441C467.331 35.0379 470.957 34.1848 475.033 34.1848C479.061 34.1848 482.663 35.0379 485.838 36.7441C489.014 38.4028 491.502 40.7014 493.303 43.6398C495.104 46.5782 496.004 49.9905 496.004 53.8768C496.004 57.6682 495.104 61.0569 493.303 64.0427C491.502 66.981 489.014 69.3033 485.838 71.0095C482.663 72.7156 479.061 73.5687 475.033 73.5687ZM475.033 64.4692C476.881 64.4692 478.54 64.0427 480.009 63.1896C481.478 62.3365 482.639 61.128 483.492 59.564C484.345 57.9526 484.772 56.0569 484.772 53.8768C484.772 51.6493 484.345 49.7536 483.492 48.1896C482.639 46.6256 481.478 45.4171 480.009 44.564C478.54 43.7109 476.881 43.2844 475.033 43.2844C473.184 43.2844 471.525 43.7109 470.056 44.564C468.587 45.4171 467.402 46.6256 466.502 48.1896C465.649 49.7536 465.222 51.6493 465.222 53.8768C465.222 56.0569 465.649 57.9526 466.502 59.564C467.402 61.128 468.587 62.3365 470.056 63.1896C471.525 64.0427 473.184 64.4692 475.033 64.4692ZM526.663 34.1848C529.697 34.1848 532.398 34.801 534.768 36.0332C537.185 37.218 539.08 39.0664 540.455 41.5782C541.829 44.0427 542.516 47.218 542.516 51.1043V73H531.426V52.8104C531.426 49.7299 530.739 47.455 529.365 45.9858C528.038 44.5166 526.142 43.782 523.678 43.782C521.924 43.782 520.336 44.1611 518.915 44.9194C517.54 45.6303 516.45 46.7441 515.644 48.2607C514.886 49.7773 514.507 51.7204 514.507 54.0901V73H503.417V34.7536H514.009V45.346L512.019 42.1469C513.393 39.5877 515.36 37.6209 517.919 36.2465C520.478 34.872 523.393 34.1848 526.663 34.1848ZM553.351 55.7251L551.147 23.237H564.37L562.166 55.7251H553.351ZM557.759 73.5687C555.768 73.5687 554.133 72.9289 552.853 71.6493C551.574 70.3697 550.934 68.8531 550.934 67.0995C550.934 65.2986 551.574 63.8057 552.853 62.6209C554.133 61.3886 555.768 60.7725 557.759 60.7725C559.796 60.7725 561.432 61.3886 562.664 62.6209C563.943 63.8057 564.583 65.2986 564.583 67.0995C564.583 68.8531 563.943 70.3697 562.664 71.6493C561.432 72.9289 559.796 73.5687 557.759 73.5687Z" fill="#FF6A00"/>
<path d="M42.089 178.247C41.2663 178.247 40.5877 177.99 40.0529 177.476C39.5182 176.941 39.2509 176.272 39.2509 175.47C39.2509 174.504 39.5594 173.733 40.1763 173.157C40.8139 172.56 41.5748 172.262 42.4592 172.262C43.2818 172.262 43.9502 172.519 44.4643 173.033C44.9991 173.547 45.2664 174.216 45.2664 175.039C45.2664 175.676 45.1122 176.242 44.8037 176.735C44.5158 177.208 44.1353 177.578 43.6623 177.846C43.1892 178.113 42.6648 178.247 42.089 178.247ZM50.1627 178.247C49.3401 178.247 48.6614 177.99 48.1267 177.476C47.592 176.941 47.3246 176.272 47.3246 175.47C47.3246 174.504 47.6331 173.733 48.2501 173.157C48.8876 172.56 49.6486 172.262 50.5329 172.262C51.3555 172.262 52.0239 172.519 52.5381 173.033C53.0728 173.547 53.3402 174.216 53.3402 175.039C53.3402 175.676 53.1859 176.242 52.8774 176.735C52.5895 177.208 52.209 177.578 51.736 177.846C51.263 178.113 50.7386 178.247 50.1627 178.247ZM59.0007 178L56.07 161.403H60.4506L62.7951 175.686H60.5431L68.5022 161.403H72.6359L75.0422 175.686H72.7902L80.6875 161.403H85.2223L76.0602 178H71.3094L69.0575 165.753H70.4765L63.6897 178H59.0007ZM84.0934 178L87.3943 161.403H92.1759L88.875 178H84.0934ZM90.6026 159.09C89.7594 159.09 89.0807 158.853 88.5665 158.38C88.0524 157.886 87.7953 157.29 87.7953 156.591C87.7953 155.768 88.0832 155.09 88.6591 154.555C89.2555 154 90.0267 153.722 90.9727 153.722C91.8159 153.722 92.4946 153.958 93.0088 154.431C93.5435 154.884 93.8108 155.449 93.8108 156.128C93.8108 157.012 93.5126 157.732 92.9162 158.288C92.3404 158.822 91.5692 159.09 90.6026 159.09ZM93.3421 178L97.9077 155.11H102.72L98.1545 178H93.3421ZM102.621 178L107.187 155.11H111.999L107.433 178H102.621ZM121.778 184.231C120.934 184.231 120.101 184.098 119.279 183.83C118.436 183.563 117.767 183.213 117.274 182.782L119.495 179.327C119.844 179.635 120.235 179.882 120.667 180.067C121.119 180.252 121.613 180.345 122.148 180.345C122.765 180.345 123.299 180.19 123.752 179.882C124.225 179.573 124.688 179.049 125.14 178.308L126.467 176.211L126.899 175.717L135.66 161.403H140.41L129.366 179.111C128.544 180.406 127.752 181.424 126.991 182.165C126.251 182.926 125.459 183.46 124.616 183.769C123.793 184.077 122.847 184.231 121.778 184.231ZM125.449 178.648L121.469 161.403H126.282L129.305 175.285L125.449 178.648ZM147.29 178.247C145.604 178.247 144.133 177.938 142.879 177.321C141.624 176.704 140.647 175.841 139.948 174.73C139.269 173.619 138.93 172.314 138.93 170.812C138.93 168.961 139.362 167.316 140.226 165.876C141.089 164.416 142.272 163.264 143.773 162.421C145.295 161.578 147.023 161.156 148.956 161.156C150.663 161.156 152.133 161.465 153.367 162.082C154.622 162.699 155.588 163.563 156.267 164.673C156.966 165.763 157.316 167.069 157.316 168.591C157.316 170.421 156.884 172.067 156.02 173.527C155.156 174.987 153.974 176.139 152.473 176.982C150.971 177.825 149.244 178.247 147.29 178.247ZM147.598 174.298C148.544 174.298 149.377 174.072 150.097 173.619C150.838 173.146 151.413 172.499 151.825 171.676C152.236 170.853 152.442 169.897 152.442 168.807C152.442 167.696 152.113 166.802 151.455 166.123C150.796 165.444 149.871 165.105 148.678 165.105C147.732 165.105 146.889 165.342 146.149 165.815C145.429 166.267 144.853 166.905 144.421 167.727C144.01 168.55 143.804 169.506 143.804 170.596C143.804 171.727 144.133 172.632 144.791 173.311C145.449 173.969 146.385 174.298 147.598 174.298ZM165.901 178.247C164.544 178.247 163.371 177.959 162.384 177.383C161.397 176.787 160.698 175.923 160.286 174.792C159.875 173.661 159.834 172.262 160.163 170.596L161.983 161.403H166.796L165.037 170.288C164.79 171.501 164.883 172.437 165.315 173.095C165.767 173.753 166.559 174.082 167.69 174.082C168.883 174.082 169.881 173.733 170.683 173.033C171.505 172.334 172.05 171.265 172.318 169.825L174.014 161.403H178.827L175.526 178H170.96L171.886 173.311L172.564 174.73C171.783 175.943 170.806 176.838 169.634 177.414C168.461 177.969 167.217 178.247 165.901 178.247ZM188.721 178L193.286 155.11H198.099L196.155 164.766L194.86 169.609L194.119 173.866L193.286 178H188.721ZM199.333 178.247C198.058 178.247 196.937 178.021 195.97 177.568C195.024 177.116 194.284 176.427 193.749 175.501C193.235 174.555 192.978 173.373 192.978 171.954C192.978 170.452 193.163 169.044 193.533 167.727C193.903 166.411 194.448 165.27 195.168 164.303C195.888 163.316 196.762 162.545 197.79 161.989C198.839 161.434 200.022 161.156 201.338 161.156C202.634 161.156 203.826 161.455 204.916 162.051C206.006 162.627 206.881 163.47 207.539 164.581C208.197 165.671 208.526 167.007 208.526 168.591C208.526 169.969 208.289 171.254 207.816 172.447C207.343 173.619 206.685 174.637 205.842 175.501C205.019 176.365 204.053 177.044 202.942 177.537C201.832 178.01 200.628 178.247 199.333 178.247ZM198.778 174.267C199.744 174.267 200.587 174.041 201.307 173.589C202.027 173.116 202.593 172.478 203.004 171.676C203.436 170.853 203.652 169.897 203.652 168.807C203.652 167.676 203.323 166.781 202.665 166.123C202.006 165.465 201.071 165.136 199.857 165.136C198.932 165.136 198.099 165.372 197.358 165.846C196.618 166.298 196.042 166.936 195.631 167.758C195.22 168.56 195.014 169.506 195.014 170.596C195.014 171.727 195.343 172.622 196.001 173.28C196.659 173.938 197.585 174.267 198.778 174.267ZM218.843 178.247C217.115 178.247 215.614 177.938 214.339 177.321C213.084 176.704 212.107 175.841 211.408 174.73C210.709 173.619 210.359 172.314 210.359 170.812C210.359 168.961 210.77 167.316 211.593 165.876C212.436 164.416 213.588 163.264 215.048 162.421C216.529 161.578 218.226 161.156 220.138 161.156C221.763 161.156 223.161 161.465 224.334 162.082C225.506 162.678 226.411 163.522 227.048 164.612C227.707 165.681 228.036 166.966 228.036 168.468C228.036 168.9 228.005 169.331 227.943 169.763C227.902 170.195 227.84 170.607 227.758 170.997H214.03L214.524 168.19H225.506L223.532 169.054C223.696 168.128 223.645 167.357 223.377 166.74C223.11 166.103 222.678 165.619 222.082 165.29C221.485 164.941 220.766 164.766 219.922 164.766C218.873 164.766 217.979 165.023 217.238 165.537C216.519 166.031 215.974 166.72 215.603 167.604C215.233 168.488 215.048 169.486 215.048 170.596C215.048 171.871 215.398 172.828 216.097 173.465C216.817 174.082 217.897 174.391 219.336 174.391C220.179 174.391 220.992 174.257 221.773 173.99C222.555 173.722 223.223 173.342 223.778 172.848L225.784 176.026C224.817 176.787 223.727 177.352 222.514 177.722C221.321 178.072 220.097 178.247 218.843 178.247ZM246.796 178.247C245.109 178.247 243.639 177.938 242.384 177.321C241.13 176.704 240.153 175.841 239.454 174.73C238.775 173.619 238.436 172.314 238.436 170.812C238.436 168.961 238.868 167.316 239.731 165.876C240.595 164.416 241.778 163.264 243.279 162.421C244.801 161.578 246.528 161.156 248.462 161.156C250.169 161.156 251.639 161.465 252.873 162.082C254.128 162.699 255.094 163.563 255.773 164.673C256.472 165.763 256.822 167.069 256.822 168.591C256.822 170.421 256.39 172.067 255.526 173.527C254.662 174.987 253.48 176.139 251.978 176.982C250.477 177.825 248.75 178.247 246.796 178.247ZM247.104 174.298C248.05 174.298 248.883 174.072 249.603 173.619C250.343 173.146 250.919 172.499 251.331 171.676C251.742 170.853 251.948 169.897 251.948 168.807C251.948 167.696 251.619 166.802 250.96 166.123C250.302 165.444 249.377 165.105 248.184 165.105C247.238 165.105 246.395 165.342 245.654 165.815C244.935 166.267 244.359 166.905 243.927 167.727C243.516 168.55 243.31 169.506 243.31 170.596C243.31 171.727 243.639 172.632 244.297 173.311C244.955 173.969 245.891 174.298 247.104 174.298ZM271.268 161.156C272.687 161.156 273.89 161.455 274.878 162.051C275.865 162.627 276.564 163.48 276.975 164.612C277.387 165.743 277.428 167.141 277.099 168.807L275.248 178H270.435L272.225 169.116C272.471 167.902 272.369 166.966 271.916 166.308C271.484 165.65 270.682 165.321 269.51 165.321C268.296 165.321 267.278 165.671 266.456 166.37C265.654 167.069 265.098 168.139 264.79 169.578L263.124 178H258.312L261.613 161.403H266.178L265.222 166.092L264.543 164.673C265.345 163.46 266.332 162.576 267.505 162.02C268.697 161.444 269.952 161.156 271.268 161.156ZM288.524 178.247C286.796 178.247 285.295 177.938 284.02 177.321C282.765 176.704 281.789 175.841 281.089 174.73C280.39 173.619 280.04 172.314 280.04 170.812C280.04 168.961 280.452 167.316 281.274 165.876C282.118 164.416 283.269 163.264 284.729 162.421C286.21 161.578 287.907 161.156 289.82 161.156C291.444 161.156 292.843 161.465 294.015 162.082C295.187 162.678 296.092 163.522 296.73 164.612C297.388 165.681 297.717 166.966 297.717 168.468C297.717 168.9 297.686 169.331 297.624 169.763C297.583 170.195 297.522 170.607 297.439 170.997H283.711L284.205 168.19H295.187L293.213 169.054C293.377 168.128 293.326 167.357 293.059 166.74C292.791 166.103 292.359 165.619 291.763 165.29C291.167 164.941 290.447 164.766 289.604 164.766C288.555 164.766 287.66 165.023 286.92 165.537C286.2 166.031 285.655 166.72 285.285 167.604C284.915 168.488 284.729 169.486 284.729 170.596C284.729 171.871 285.079 172.828 285.778 173.465C286.498 174.082 287.578 174.391 289.017 174.391C289.861 174.391 290.673 174.257 291.455 173.99C292.236 173.722 292.904 173.342 293.46 172.848L295.465 176.026C294.498 176.787 293.408 177.352 292.195 177.722C291.002 178.072 289.778 178.247 288.524 178.247ZM316.477 178.247C314.791 178.247 313.32 177.938 312.066 177.321C310.811 176.704 309.834 175.841 309.135 174.73C308.456 173.619 308.117 172.314 308.117 170.812C308.117 168.961 308.549 167.316 309.413 165.876C310.276 164.416 311.459 163.264 312.96 162.421C314.482 161.578 316.21 161.156 318.143 161.156C319.85 161.156 321.32 161.465 322.554 162.082C323.809 162.699 324.775 163.563 325.454 164.673C326.153 165.763 326.503 167.069 326.503 168.591C326.503 170.421 326.071 172.067 325.207 173.527C324.344 174.987 323.161 176.139 321.66 176.982C320.158 177.825 318.431 178.247 316.477 178.247ZM316.786 174.298C317.732 174.298 318.565 174.072 319.284 173.619C320.025 173.146 320.601 172.499 321.012 171.676C321.423 170.853 321.629 169.897 321.629 168.807C321.629 167.696 321.3 166.802 320.642 166.123C319.984 165.444 319.058 165.105 317.865 165.105C316.919 165.105 316.076 165.342 315.336 165.815C314.616 166.267 314.04 166.905 313.608 167.727C313.197 168.55 312.991 169.506 312.991 170.596C312.991 171.727 313.32 172.632 313.978 173.311C314.636 173.969 315.572 174.298 316.786 174.298ZM328.548 178L332.003 160.817C332.374 159.007 333.155 157.568 334.348 156.498C335.561 155.408 337.186 154.863 339.222 154.863C339.983 154.863 340.692 154.946 341.351 155.11C342.009 155.254 342.574 155.48 343.047 155.789L341.165 159.244C340.61 158.853 339.973 158.658 339.253 158.658C338.512 158.658 337.937 158.863 337.525 159.275C337.114 159.665 336.816 160.293 336.631 161.156L336.291 162.699L336.045 164.642L333.392 178H328.548ZM328.487 165.475L329.227 161.773H340.734L339.993 165.475H328.487ZM355.755 178.247C354.397 178.247 353.225 177.959 352.238 177.383C351.251 176.787 350.551 175.923 350.14 174.792C349.729 173.661 349.688 172.262 350.017 170.596L351.837 161.403H356.649L354.891 170.288C354.644 171.501 354.737 172.437 355.168 173.095C355.621 173.753 356.413 174.082 357.544 174.082C358.737 174.082 359.734 173.733 360.536 173.033C361.359 172.334 361.904 171.265 362.171 169.825L363.868 161.403H368.68L365.379 178H360.814L361.739 173.311L362.418 174.73C361.636 175.943 360.66 176.838 359.487 177.414C358.315 177.969 357.071 178.247 355.755 178.247ZM375.884 178.247C374.424 178.247 373.046 178.082 371.751 177.753C370.475 177.424 369.488 177.013 368.789 176.519L370.64 173.033C371.36 173.506 372.234 173.887 373.262 174.175C374.311 174.463 375.36 174.607 376.409 174.607C377.54 174.607 378.362 174.463 378.877 174.175C379.391 173.887 379.648 173.496 379.648 173.002C379.648 172.612 379.432 172.324 379 172.139C378.568 171.933 378.023 171.769 377.365 171.645C376.707 171.522 375.997 171.378 375.236 171.213C374.496 171.049 373.787 170.822 373.108 170.535C372.45 170.226 371.905 169.794 371.473 169.239C371.062 168.663 370.856 167.912 370.856 166.987C370.856 165.732 371.206 164.673 371.905 163.809C372.625 162.946 373.612 162.288 374.866 161.835C376.141 161.383 377.581 161.156 379.185 161.156C380.337 161.156 381.458 161.28 382.548 161.527C383.638 161.773 384.563 162.113 385.324 162.545L383.597 166.061C382.815 165.568 381.992 165.239 381.129 165.074C380.285 164.889 379.473 164.797 378.692 164.797C377.56 164.797 376.738 164.961 376.224 165.29C375.73 165.599 375.483 165.979 375.483 166.432C375.483 166.822 375.689 167.131 376.1 167.357C376.532 167.563 377.077 167.738 377.735 167.882C378.393 168.005 379.103 168.149 379.864 168.313C380.625 168.457 381.334 168.684 381.992 168.992C382.65 169.28 383.185 169.702 383.597 170.257C384.028 170.792 384.244 171.522 384.244 172.447C384.244 173.702 383.874 174.771 383.134 175.655C382.414 176.519 381.427 177.167 380.172 177.599C378.918 178.031 377.488 178.247 375.884 178.247ZM391.789 170.504C391.933 169.722 392.19 169.054 392.56 168.499C392.93 167.943 393.352 167.45 393.825 167.018C394.318 166.586 394.822 166.185 395.336 165.815C395.85 165.444 396.323 165.085 396.755 164.735C397.187 164.385 397.537 164.015 397.804 163.624C398.071 163.213 398.205 162.73 398.205 162.174C398.205 161.537 397.948 161.033 397.434 160.663C396.92 160.272 396.179 160.077 395.213 160.077C394.205 160.077 393.29 160.282 392.467 160.694C391.665 161.105 390.966 161.681 390.37 162.421L387.13 160.046C388.056 158.812 389.3 157.835 390.863 157.115C392.426 156.395 394.205 156.036 396.2 156.036C397.66 156.036 398.925 156.251 399.994 156.683C401.064 157.095 401.886 157.691 402.462 158.473C403.059 159.254 403.357 160.169 403.357 161.218C403.357 162.103 403.203 162.874 402.894 163.532C402.606 164.19 402.226 164.756 401.753 165.229C401.28 165.702 400.766 166.144 400.21 166.555C399.655 166.946 399.11 167.337 398.575 167.727C398.061 168.097 397.609 168.509 397.218 168.961C396.848 169.393 396.591 169.907 396.447 170.504H391.789ZM392.992 178.247C392.169 178.247 391.49 178 390.956 177.506C390.421 176.992 390.154 176.375 390.154 175.655C390.154 174.792 390.452 174.082 391.048 173.527C391.665 172.972 392.406 172.694 393.269 172.694C394.092 172.694 394.76 172.941 395.275 173.434C395.809 173.907 396.077 174.504 396.077 175.224C396.077 175.779 395.933 176.293 395.645 176.766C395.377 177.218 395.007 177.578 394.534 177.846C394.082 178.113 393.568 178.247 392.992 178.247ZM412.151 180.159H443V149.31H412.151V180.159Z" fill="#513BD6"/>
<path d="M566.922 97.6516L567.713 75.7474L553.613 92.5286L526.944 124.269L485.949 108.489L463.255 99.7532L477.025 119.796L501.171 154.942L474.732 186.409L460.047 203.887L482.254 198.595L524.281 188.58L548.746 224.19L561.673 243.006L562.497 220.192L563.98 179.119L605.46 169.234L629.115 163.596L606.421 154.861L565.426 139.081L566.922 97.6516Z" fill="white" stroke="#353781" stroke-width="15.0813"/>
</svg>
