<svg width="1456" height="900" viewBox="0 0 1456 900" fill="none" xmlns="http://www.w3.org/2000/svg">
<g clip-path="url(#clip0_69_893)">
<rect width="1456" height="900" fill="white"/>
<g opacity="0.3">
<path d="M0 266.539V239.041C145.888 372.297 286.709 493.735 295.868 501.618L191.385 417.758C138.431 375.278 70.4651 321.657 0 266.539Z" fill="#595CD4"/>
<path d="M0 333.342V317.263C37.8409 347.599 73.5314 375.737 103.697 399.288C154.29 438.424 189.603 465.778 196.034 470.86C186.078 463.81 102.601 404.648 0 333.342Z" fill="#595CD4"/>
<path d="M0 501.931V491.526C20.8867 502.945 40.5289 513.665 58.4687 523.286C113.991 553.066 152.817 573.696 159.856 577.679C150.776 573.322 85.9857 542.298 0 501.931Z" fill="#595CD4"/>
<path d="M466.814 -25.8188H478.89C517.04 120.088 549.544 237.482 554.771 256.266C548.748 237.072 512.569 118.845 466.814 -25.8188Z" fill="#595CD4"/>
<path d="M420.451 -25.8188H428.744C460.99 75.774 485.929 151.836 489.294 162.519C485.59 151.836 457.924 75.267 420.451 -25.8188Z" fill="#595CD4"/>
<path d="M275.737 -25.8188H289.735C312.443 23.022 334.126 68.7123 352.564 107.063L408.424 223.226C401.575 210.491 344.838 102.536 275.737 -25.8188Z" fill="#595CD4"/>
<path d="M225.513 -25.8188H228.092L253.11 20.644C251.477 17.94 241.303 0.71408 225.513 -25.8188Z" fill="#595CD4"/>
<path d="M148.884 -25.8188H172.19C268.281 136.988 361.643 287.289 370.723 302.004C360.966 287.289 258.027 132.727 148.884 -25.8188Z" fill="#595CD4"/>
<path d="M64.9805 -25.8188H96.7684C101.497 -18.9019 106.117 -12.0695 110.845 -4.97154C226.996 169.158 347.229 338.339 358.2 353.923C346.851 338.846 221.959 173.975 94.6479 11.9405C84.772 -0.710344 74.8165 -13.2646 64.9805 -25.8188Z" fill="#595CD4"/>
<path d="M0 -24.0806V-25.8188H13.9676C81.8542 63.7147 142.633 142.312 151.264 153.309C142.035 142.493 74.746 63.1232 0 -24.0806Z" fill="#595CD4"/>
<path d="M0 53.273V39.9824C61.1965 113.304 111.681 172.418 115.693 177.041C111.532 172.683 61.9929 119.352 0 53.273Z" fill="#595CD4"/>
<path d="M0 144.919V110.456C3.0663 113.896 6.09277 117.191 9.15907 120.535C81.0677 199.591 153.842 277.669 208.787 335.913C260.486 389.981 295.828 427.245 300.188 431.688C291.179 422.936 147.332 283.125 0 144.919Z" fill="#595CD4"/>
<path d="M0 206.411V199.904C39.4338 237.893 67.2096 264.378 70.6144 267.589L0 206.411Z" fill="#595CD4"/>
<path d="M883.144 246.826C885.344 237.072 912.094 121.416 944.838 -25.8188H955.919C915.848 120.728 885.573 237.072 883.144 246.826Z" fill="#595CD4"/>
<path d="M876.254 122.696C877.996 113.256 888.37 55.4216 902.487 -25.8188H908.271C890.491 55.3371 878.225 113.256 876.254 122.696Z" fill="#595CD4"/>
<path d="M792.967 -25.8188C786.187 50.75 781.916 104.733 781.12 114.077C781.568 104.914 784.295 50.9794 787.82 -25.8188H792.967Z" fill="#595CD4"/>
<path d="M704.252 -25.8188H710.574C711.032 78.973 712.048 152.162 712.048 152.162C712.048 152.162 709.131 78.973 704.252 -25.8188Z" fill="#595CD4"/>
<path d="M656.227 -25.8188H663.793C670.643 96.7179 676.546 184.972 676.546 184.972C676.546 184.972 668.413 96.5248 656.227 -25.8188Z" fill="#595CD4"/>
<path d="M539.398 -25.8188H548.408C554.232 5.79614 559.757 35.5883 564.875 62.4834C581.411 148.408 592.461 205.723 592.461 205.723C592.461 205.723 570.171 106.604 539.398 -25.8188Z" fill="#595CD4"/>
<mask id="mask0_69_893" style="mask-type:luminance" maskUnits="userSpaceOnUse" x="1151" y="162" width="317" height="310">
<path d="M1151.97 162.253H1468V471.281H1151.97V162.253Z" fill="white"/>
</mask>
<g mask="url(#mask0_69_893)">
<path d="M1154.26 470.267C1168.04 457.025 1318.48 312.723 1466.68 164.945L1468.04 163.617V196.198C1314.7 326.11 1168.04 458.123 1154.26 470.267Z" fill="#595CD4"/>
</g>
<mask id="mask1_69_893" style="mask-type:luminance" maskUnits="userSpaceOnUse" x="1208" y="78" width="260" height="289">
<path d="M1208.04 78.814H1468V366.21H1208.04V78.814Z" fill="white"/>
</mask>
<g mask="url(#mask1_69_893)">
<path d="M1208.23 365.33C1219.59 353.005 1344.47 218.372 1468.04 80.7705V110.828C1340.5 232.58 1219.74 353.922 1208.23 365.33Z" fill="#595CD4"/>
</g>
<mask id="mask2_69_893" style="mask-type:luminance" maskUnits="userSpaceOnUse" x="1302" y="-2" width="166" height="202">
<path d="M1302.34 -1.5293H1468V199.339H1302.34V-1.5293Z" fill="white"/>
</mask>
<g mask="url(#mask2_69_893)">
<path d="M1304.59 197.118C1309.74 190.877 1385.69 99.5568 1468.04 -1.25146V18.6784C1383.87 109.274 1309.81 191.299 1304.59 197.118Z" fill="#595CD4"/>
</g>
<path d="M1327.14 102.669C1333.65 94.0502 1374.11 40.5739 1423.91 -25.6377H1434.32C1378.99 39.8496 1334.18 94.2433 1327.14 102.669Z" fill="#595CD4"/>
<path d="M1135.35 290.32C1144.84 276.293 1245.58 128.925 1348.1 -25.8662H1373.27C1257.35 123.928 1145.6 276.16 1135.35 290.32Z" fill="#595CD4"/>
<path d="M1297.05 -25.8188C1270.56 13.4977 1251.64 41.6361 1247.52 47.865C1251.3 41.4913 1268.4 13.5822 1292.32 -25.8188H1297.05Z" fill="#595CD4"/>
<path d="M1129.13 156.423C1092.28 219.194 1066.58 263.098 1062 270.655C1069.57 256.688 1140.72 125.17 1220.08 -25.8188H1238.5C1197.87 40.9963 1159.57 104.914 1129.13 156.423Z" fill="#595CD4"/>
<path d="M1016.93 273.226C1021.54 263.376 1083.73 130.76 1154.95 -25.9634H1171.48C1089.93 128.611 1021.81 263.509 1016.93 273.226Z" fill="#595CD4"/>
<path d="M938.555 230.614C940.029 226.027 974.574 115.634 1017.49 -26H1028.85C978.367 114.68 940.287 225.93 938.555 230.614Z" fill="#595CD4"/>
<mask id="mask3_69_893" style="mask-type:luminance" maskUnits="userSpaceOnUse" x="1287" y="533" width="181" height="86">
<path d="M1287.05 533.086H1468V618.069H1287.05V533.086Z" fill="white"/>
</mask>
<g mask="url(#mask3_69_893)">
<path d="M1287.18 617.634C1297.13 613.059 1371.53 578.728 1468.04 533.134V544.361C1371.04 582.856 1297.2 613.469 1287.18 617.634Z" fill="#595CD4"/>
</g>
<mask id="mask4_69_893" style="mask-type:luminance" maskUnits="userSpaceOnUse" x="1248" y="465" width="220" height="124">
<path d="M1248.82 465.102H1468V588.713H1248.82V465.102Z" fill="white"/>
</mask>
<g mask="url(#mask4_69_893)">
<path d="M1250.16 587.674C1261.74 581.203 1354.24 530.021 1468.04 465.366V480.033C1353.02 535.561 1261.4 581.94 1250.16 587.674Z" fill="#595CD4"/>
</g>
<mask id="mask5_69_893" style="mask-type:luminance" maskUnits="userSpaceOnUse" x="1208" y="285" width="260" height="215">
<path d="M1208.04 285.864H1468V499.093H1208.04V285.864Z" fill="white"/>
</mask>
<g mask="url(#mask5_69_893)">
<path d="M1468.04 308.644C1337.77 400.616 1224.36 484.56 1208.42 496.294C1224.36 483.643 1339.89 391.502 1468.04 286.469V308.644Z" fill="#595CD4"/>
</g>
<mask id="mask6_69_893" style="mask-type:luminance" maskUnits="userSpaceOnUse" x="1406" y="227" width="62" height="56">
<path d="M1406.83 227.148H1468V282.773H1406.83V227.148Z" fill="white"/>
</mask>
<g mask="url(#mask6_69_893)">
<path d="M1468.04 233.403C1435.49 259.658 1412.79 278.272 1407.49 282.618C1412.79 278.043 1435.75 257.413 1468.04 228.224V233.403Z" fill="#595CD4"/>
</g>
</g>
<g opacity="0.3">
<path d="M650.753 1.25683C646.437 -0.44759 641.188 0.265003 639.665 2.71645C637.849 5.65441 641.342 10.897 646.54 12.9687C651.662 15.009 657.767 13.4839 658.289 10.1009C658.642 7.30193 654.868 2.8773 650.753 1.25683Z" fill="#1B1D69"/>
<path d="M772.072 -14.0052C771.135 -10.3367 774.834 -5.94353 780.463 -4.01953C785.89 -2.17949 791.534 -3.84043 791.838 -7.40808C792.081 -10.2993 788.475 -14.5603 784.256 -16.3182C779.091 -18.4696 772.943 -17.3368 772.072 -14.0052Z" fill="#1B1D69"/>
<path d="M830.661 18.3405C835.329 20.0513 840.2 19.1813 841.501 16.4126C843.051 13.2239 838.86 8.20455 833.24 6.47142C828.317 4.9818 824.248 6.23274 823.458 9.55065C822.803 12.5418 826.232 16.7293 830.661 18.3405Z" fill="#1B1D69"/>
<path d="M724.937 2.02054C725.811 -1.4966 722.054 -5.96108 716.567 -7.87246C711.22 -9.72611 705.572 -8.0572 705.302 -4.56924C705.058 -1.678 708.617 2.55403 712.778 4.24058C717.942 6.39201 724.167 5.25351 724.937 2.02054Z" fill="#1B1D69"/>
<path d="M774.926 24.8528C776.088 22.0635 773.238 18.1174 768.644 16.0165C764.112 13.9418 758.913 14.3943 757.452 17.0125C755.484 20.4947 758.646 24.9353 764.447 26.9779C769.161 28.6142 773.748 27.6819 774.926 24.8528Z" fill="#1B1D69"/>
<path d="M750.798 -10.8127C746.323 -12.4899 741.75 -11.5894 740.445 -8.81281C738.792 -5.19943 741.512 -0.942482 746.883 1.24782C752.253 3.43811 757.476 2.39684 758.824 -1.01633C760.092 -4.4159 756.675 -8.59817 750.798 -10.8127Z" fill="#1B1D69"/>
<path d="M679.662 7.37011C684.108 9.08191 688.744 8.0671 689.893 5.13209C691.29 1.59937 687.788 -2.94579 682.344 -4.74598C677.786 -6.22395 673.326 -5.27621 671.879 -2.51222C670.283 0.610384 673.927 5.16817 679.662 7.37011Z" fill="#1B1D69"/>
<path d="M707.968 32.9921C708.815 30.0716 705.448 25.9104 700.936 24.3579C695.953 22.6565 691.858 23.6159 690.786 26.7229C689.813 29.5908 693.06 33.5061 697.87 35.2295C702.929 37.103 707.004 36.1914 707.968 32.9921Z" fill="#1B1D69"/>
<path d="M613.021 15.7848C617.48 17.5019 622.073 16.3759 623.033 13.3621C624.029 10.0831 621.537 6.51984 616.94 4.60454C611.582 2.41949 605.56 3.74535 605.227 7.20707C604.808 10.1654 608.374 13.989 613.021 15.7848Z" fill="#1B1D69"/>
<path d="M534.37 -12.5468C530.388 -14.4861 524.891 -14.064 522.943 -11.6956C520.996 -9.32709 523.013 -5.12007 527.235 -2.65955C532.34 0.308816 538.504 -0.116152 539.806 -3.59541C541.051 -6.58389 538.679 -10.4712 534.37 -12.5468Z" fill="#1B1D69"/>
<path d="M640.824 42.0883C642.099 39.2058 639.186 35.2334 634.475 33.4114C629.639 31.537 625.112 32.5036 624.324 35.6358C623.66 38.118 625.986 41.1914 629.871 43.0436C634.668 45.369 639.629 44.9573 640.824 42.0883Z" fill="#1B1D69"/>
<path d="M590.244 19.6133C591.91 17.1744 589.305 12.8162 584.854 10.7279C580.1 8.51371 575.504 9.07758 574.053 12.0272C572.649 15.0429 574.972 19.0497 579.255 20.9743C583.929 23.0616 588.223 22.5124 590.244 19.6133Z" fill="#1B1D69"/>
<path d="M539.584 15.7088C538.893 18.7876 541.809 22.4339 546.255 24.1457C550.651 25.8365 555.051 24.6769 555.931 21.6768C556.845 18.5969 553.945 14.9109 549.45 13.3186C545.147 11.76 540.206 12.975 539.584 15.7088Z" fill="#1B1D69"/>
<path d="M493.674 0.792726C497.493 2.80427 502.987 2.7084 505.263 0.616892C507.894 -1.79437 505.207 -6.70109 499.714 -9.27001C495.451 -11.2796 490.428 -10.7536 488.968 -8.13539C487.424 -5.31795 489.541 -1.35001 493.674 0.792726Z" fill="#1B1D69"/>
<path d="M936.471 -4.36489C932.682 -6.27051 927.092 -5.98065 925.081 -3.77895C922.656 -1.15117 925.631 3.73571 931.157 6.08441C935.725 8.03431 940.228 7.33827 941.503 4.45573C942.678 1.63461 940.436 -2.38581 936.471 -4.36489Z" fill="#1B1D69"/>
<path d="M897.767 9.84259C903.353 11.5149 908.007 9.71249 908.075 5.8224C908.109 2.93738 904.036 -0.770024 899.269 -2.10124C894.72 -3.38834 890.565 -1.75254 890.284 1.40402C889.915 4.42044 893.633 8.58813 897.767 9.84259Z" fill="#1B1D69"/>
<path d="M875.022 13.4126C876.297 10.5301 874.121 6.35028 870.193 4.24641C865.555 1.75326 859.049 2.64376 857.735 5.97724C856.622 8.8246 859.207 12.3795 864.229 14.6588C868.807 16.7996 873.784 16.2075 875.022 13.4126Z" fill="#1B1D69"/>
<path d="M891.317 38.1019C892.012 34.8374 888.562 30.8754 883.921 29.5967C879.356 28.3494 874.832 30.1592 874.714 33.2805C874.683 35.8394 877.589 39.1542 881.309 40.6571C885.877 42.4665 890.659 41.2787 891.317 38.1019Z" fill="#1B1D69"/>
<path d="M798.446 23.7099C803.127 25.5665 807.524 24.5925 808.53 21.4672C809.557 18.2941 807.118 14.5662 802.726 12.5492C797.879 10.3434 791.505 11.6628 790.811 15.0678C790.206 17.9394 793.643 21.7557 798.446 23.7099Z" fill="#1B1D69"/>
<path d="M784.04 43.7469C779.391 41.8106 774.265 42.7613 773.657 45.6409C773.048 48.6981 776.541 53.0524 780.675 54.3069C784.083 55.3524 788.225 54.4591 789.516 52.3879C791.328 49.6355 788.826 45.7409 784.04 43.7469Z" fill="#1B1D69"/>
<path d="M739.776 29.843C741.107 27.3579 738.852 23.1917 734.801 20.8498C730.246 18.1574 724.201 19.0061 722.741 22.5126C721.542 25.5671 724.067 29.0878 728.857 31.0367C733.677 32.951 738.396 32.4476 739.776 29.843Z" fill="#1B1D69"/>
<path d="M856.337 43.718C857.973 41.0327 855.538 37.1192 851.049 35.1557C846.548 33.1869 841.7 33.6459 840.177 36.2378C838.819 38.609 841.486 42.8529 845.666 45.0617C849.409 47.0418 854.784 46.3817 856.337 43.718Z" fill="#1B1D69"/>
<path d="M473.235 3.58204C474.765 0.618817 472.194 -3.10848 467.231 -5.03542C463.671 -6.425 459.032 -6.07571 457.555 -4.30592C455.737 -2.0706 458.086 2.36829 462.326 4.78896C466.078 6.9599 471.788 6.34602 473.235 3.58204Z" fill="#1B1D69"/>
<path d="M918.939 27.0781C914.274 25.3222 909.678 26.6338 909.225 29.8494C908.842 32.5424 911.089 35.6295 914.722 37.3767C918.843 39.3737 924.129 38.5363 925.466 35.68C926.797 33.0173 923.619 28.7942 918.939 27.0781Z" fill="#1B1D69"/>
<path d="M673.337 36.8893C674.999 34.4956 672.488 30.4101 667.893 28.1686C664.088 26.3029 659.804 26.2953 658.152 28.1321C655.382 31.0929 657.409 35.7718 662.378 38.2158C666.326 40.0942 671.592 39.4823 673.337 36.8893Z" fill="#1B1D69"/>
<path d="M963.506 2.1729C968.38 3.92259 973.112 2.85432 973.77 -0.144816C974.411 -3.28176 971.187 -7.43042 966.88 -8.94397C962.246 -10.594 957.703 -9.44698 956.604 -6.45385C955.489 -3.59852 958.746 0.470443 963.506 2.1729Z" fill="#1B1D69"/>
<path d="M1008.05 -4.7937C1009.08 -7.62745 1005.93 -11.6041 1001.46 -13.0957C996.485 -14.7919 992.122 -13.8976 991.311 -11.0648C990.514 -8.26396 993.678 -4.32716 998.187 -2.58912C1002.82 -0.753514 1006.9 -1.67306 1008.05 -4.7937Z" fill="#1B1D69"/>
<path d="M985.44 18.4673C980.726 16.8309 976.176 18.3491 975.929 21.6036C975.819 24.1761 978.99 27.7417 982.49 28.9194C986.956 30.4057 991.904 28.8194 992.134 25.7824C992.288 23.284 988.975 19.7058 985.44 18.4673Z" fill="#1B1D69"/>
<path d="M656.589 68.0484C657.86 66.2397 656.1 62.5142 653.091 60.5123C649.564 58.1548 643.987 58.4499 642.225 61.0827C640.921 62.971 642.68 66.6966 645.676 68.5527C649.694 70.9744 654.747 70.6948 656.589 68.0484Z" fill="#1B1D69"/>
<path d="M707.541 53.8513C706.376 55.9379 708.44 59.5004 711.957 61.5266C716.041 63.9294 721.535 63.5153 722.936 60.6852C724.041 58.3868 722.17 54.895 718.729 53.0409C714.373 50.7586 709.051 51.1136 707.541 53.8513Z" fill="#1B1D69"/>
<path d="M748.871 58.1591C753.29 59.4388 757.837 57.9285 758.176 54.9838C758.566 51.9196 754.483 47.8808 750.167 47.0646C746.353 46.3178 742.888 47.5396 742.386 49.8089C741.582 52.981 744.67 56.9235 748.871 58.1591Z" fill="#1B1D69"/>
<path d="M808.747 41.1422C807.946 44.3064 811.111 48.2432 815.576 49.589C820.108 50.9159 824.466 49.3269 824.746 46.1704C824.979 43.836 821.967 40.1027 818.834 38.751C814.677 37.0194 809.514 38.2354 808.747 41.1422Z" fill="#1B1D69"/>
<path d="M931.606 64.5536C935.515 65.9947 939.255 65.3551 940.553 62.9497C941.901 60.3876 937.99 55.4386 933.711 54.3571C930.186 53.45 925.862 54.9593 925.599 57.1877C925.279 59.9069 927.95 63.2175 931.606 64.5536Z" fill="#1B1D69"/>
<path d="M523.727 26.2994C525.065 23.4431 522.362 19.4645 518.042 17.8052C513.6 16.0483 509.153 17.1418 508.273 20.1419C507.545 22.5978 509.616 25.6114 513.232 27.3985C517.827 29.6399 522.39 29.1558 523.727 26.2994Z" fill="#1B1D69"/>
<path d="M951.518 23.4961C946.748 21.4623 942.4 22.1762 941.381 25.1557C940.374 28.1034 943.383 32.0223 947.908 33.58C951.535 34.8102 955.2 34.139 956.62 31.9718C958.349 29.241 956.099 25.4513 951.518 23.4961Z" fill="#1B1D69"/>
<path d="M690.619 64.8888C692.285 62.3095 689.509 57.9733 685.172 56.3538C681.784 55.0828 677.504 55.7778 676.339 57.8644C674.895 60.4428 677.718 65.0228 681.752 66.5163C684.875 67.6771 689.378 66.8034 690.619 64.8888Z" fill="#1B1D69"/>
<path d="M865.925 71.5893C869.397 72.8016 874.155 72.0249 874.965 70.0804C875.994 67.61 871.766 62.8559 867.469 61.6737C863.743 60.6826 859.926 62.0385 859.662 64.4446C859.313 67.0579 862.189 70.2668 865.925 71.5893Z" fill="#1B1D69"/>
<path d="M834.429 66.8851C830.948 65.4819 826.667 66.1769 825.519 68.2237C823.975 71.0783 826.765 74.8125 831.622 76.4615C835.248 77.6917 838.857 76.6231 839.598 74.1354C840.309 71.7193 837.8 68.1959 834.429 66.8851Z" fill="#1B1D69"/>
<path d="M447.649 36.1156C450.987 37.5061 455.255 36.6653 456.217 34.3542C457.147 32.1228 454.583 28.3424 451.211 27.0316C447.794 25.6546 443.426 26.594 442.576 28.8118C441.772 31.0957 444.265 34.6589 447.649 36.1156Z" fill="#1B1D69"/>
<path d="M767.547 75.5267C763.84 74.1696 759.619 75.0765 758.845 77.4663C758.058 79.888 760.566 83.2709 764.332 84.8398C767.922 86.3353 772.097 85.3623 772.918 82.861C773.771 80.4576 771.14 76.8366 767.547 75.5267Z" fill="#1B1D69"/>
<path d="M589.911 75.5145C590.227 72.9809 587.553 69.9965 583.784 68.6132C580.316 67.3558 576.31 68.6329 575.947 71.1005C575.598 73.7138 578.441 77.0024 581.949 77.9494C585.881 78.9793 589.598 77.8625 589.911 75.5145Z" fill="#1B1D69"/>
<path d="M479.438 32.3001C482.872 33.6372 487.237 32.8834 488.481 30.7832C490.054 28.0717 486.893 23.8088 482.192 22.3182C478.658 21.2202 474.602 22.4763 474.05 24.8652C473.449 27.3735 476.067 30.9892 479.438 32.3001Z" fill="#1B1D69"/>
<path d="M534.302 46.1284C530.51 44.4084 526.651 44.6244 525.138 46.6595C523.346 49.1863 526.049 53.165 530.747 54.8412C534.201 56.0933 538.595 55.305 539.425 53.3127C540.271 51.2805 537.657 47.6197 534.302 46.1284Z" fill="#1B1D69"/>
<path d="M438.114 8.16081C439.305 6.36576 437.265 2.56983 434.109 0.740962C430.009 -1.65911 424.564 -1.50513 423.074 1.00715C421.942 3.01406 423.81 6.69143 426.907 8.44897C430.831 10.7385 436.514 10.5808 438.114 8.16081Z" fill="#1B1D69"/>
<path d="M615.68 74.8015C619.37 76.0579 623.469 74.9129 624.053 72.4444C624.658 69.7504 622.084 66.5269 618.285 65.1782C614.549 63.8557 610.605 65.0186 610.004 67.5269C609.386 70.0751 612.117 73.5975 615.68 74.8015Z" fill="#1B1D69"/>
<path d="M567.55 42.5015C563.558 41.1191 559.324 41.8803 558.537 44.1243C557.581 46.9524 561.56 51.4159 566.08 52.5971C569.822 53.5483 573.417 52.1934 574.019 49.6851C574.537 47.376 571.286 43.824 567.55 42.5015Z" fill="#1B1D69"/>
<path d="M801.953 70.9317C798.36 69.6218 793.853 70.3629 793.115 72.4874C792.319 74.5777 794.903 78.2731 798.364 79.9017C802.879 82.0163 807.913 81.0739 808.362 78.0439C808.742 75.5365 805.861 72.3727 801.953 70.9317Z" fill="#1B1D69"/>
<path d="M599.399 36.4179C595.848 35.2192 591.627 36.1261 590.76 38.3838C589.645 41.2391 593.154 45.413 597.812 46.7924C601.3 47.8244 605.982 46.8756 606.778 44.963C607.778 42.3866 603.924 37.9756 599.399 36.4179Z" fill="#1B1D69"/>
<path d="M969.449 50.642C965.902 49.3982 961.512 50.1786 960.745 52.1972C959.746 54.7736 963.709 59.2769 967.989 60.3584C971.513 61.2655 975.108 59.9106 975.58 57.5354C975.969 55.1818 973.185 51.9645 969.449 50.642Z" fill="#1B1D69"/>
<path d="M1022.88 22.8851C1024.19 20.4398 1022.48 17.4459 1018.74 15.4207C1015.25 13.5456 1010.63 13.6323 1009.08 15.5934C1007.18 18.0279 1009.82 22.8685 1013.91 24.5288C1017.22 25.8135 1021.7 25.0115 1022.88 22.8851Z" fill="#1B1D69"/>
<path d="M1057.66 17.5585C1058.26 15.0502 1055.75 11.4896 1052.46 10.1652C1048.28 8.51846 1043.04 10.1114 1042.92 13.0551C1042.83 15.5877 1046.01 18.9225 1049.6 20.0468C1053.18 21.2109 1057.09 19.9872 1057.66 17.5585Z" fill="#1B1D69"/>
<path d="M1089.49 13.6179C1090.28 11.1883 1087.78 7.81859 1084.06 6.27061C1080.54 4.80134 1076.46 5.75801 1075.57 8.24111C1074.7 10.6844 1077.27 14.234 1080.87 15.5439C1084.65 16.9325 1088.72 16.0077 1089.49 13.6179Z" fill="#1B1D69"/>
<path d="M997.482 55.4929C1000.58 57.0648 1005.16 56.7264 1006.7 54.7972C1008.13 52.9613 1006.38 49.3444 1003.15 47.3886C999.947 45.4937 995.226 45.2945 993.481 46.9992C991.139 49.25 992.97 53.1927 997.482 55.4929Z" fill="#1B1D69"/>
<path d="M1041.92 49.3261C1042.67 47.1617 1039.83 43.6955 1036.22 42.2398C1032.69 40.8157 1028.43 41.6485 1027.72 43.8789C1026.99 46.1492 1029.75 49.637 1033.34 50.9417C1036.97 52.3176 1041.23 51.5166 1041.92 49.3261Z" fill="#1B1D69"/>
<path d="M1123.15 10.1122C1123.76 7.564 1120.92 4.32051 1117.16 3.22346C1113.14 2.06131 1109.8 3.33555 1109.76 6.08004C1109.73 7.93626 1112.15 10.8157 1114.78 11.9575C1118.09 13.3827 1122.55 12.4349 1123.15 10.1122Z" fill="#1B1D69"/>
<path d="M370.661 15.6768C371.498 13.3132 368.323 9.75564 364.454 8.61137C361.55 7.77571 358.002 8.48609 357.195 10.0673C356.123 12.2861 358.485 15.842 362.122 17.4035C365.775 19.0658 369.758 18.1997 370.661 15.6768Z" fill="#1B1D69"/>
<path d="M506.929 57.583C508.064 55.3905 506.219 52.1903 502.791 50.3414C499.586 48.6321 495.215 49.0093 493.765 51.0707C492.349 53.0523 494.287 56.3847 497.886 58.2116C501.297 59.9598 505.923 59.6424 506.929 57.583Z" fill="#1B1D69"/>
<path d="M401.063 4.37176C397.472 2.73572 392.976 3.23817 391.778 5.40446C390.613 7.49106 393.084 11.1393 396.721 12.8414C400.45 14.5351 404.95 14.0247 405.942 11.8196C406.985 9.49486 404.729 6.03928 401.063 4.37176Z" fill="#1B1D69"/>
<path d="M636.085 92.4563C632.389 90.6828 627.73 91.0799 626.771 93.2054C626.123 94.7594 628.081 97.8663 630.69 99.3741C634.207 101.4 638.737 100.996 639.67 98.5787C640.433 96.7458 638.651 93.5718 636.085 92.4563Z" fill="#1B1D69"/>
<path d="M670.07 89.2301C666.55 87.3896 661.656 87.7824 660.743 89.9739C659.814 92.2053 662.431 95.8582 666.038 97.3139C669.2 98.5938 671.969 98.2979 673.525 96.5145C675.42 94.4512 673.889 91.2416 670.07 89.2301Z" fill="#1B1D69"/>
<path d="M702.188 83.2114C698.551 81.6498 694.065 82.306 693.215 84.5238C692.286 86.7552 695.142 90.1895 699.034 91.6704C702.031 92.7788 705.118 92.2879 706.293 90.5327C707.716 88.1798 705.749 84.7415 702.188 83.2114Z" fill="#1B1D69"/>
<path d="M736.251 80.11C732.454 78.4351 727.971 78.9057 726.996 81.071C726.003 83.2761 728.368 86.824 731.959 88.4601C735.42 90.0887 740.058 89.5989 741.24 87.4724C742.435 85.4918 739.917 81.7775 736.251 80.11Z" fill="#1B1D69"/>
<path d="M815.546 107.248C819.597 108.702 823.252 107.7 823.578 105.179C823.864 102.54 820.816 99.2122 817.216 98.2736C814.61 97.609 811.29 98.5172 810.467 100.138C809.255 102.336 811.873 105.952 815.546 107.248Z" fill="#1B1D69"/>
<path d="M880.758 98.0075C884.107 99.87 889.173 99.5957 890.036 97.5237C891.012 95.1808 888.852 91.8494 885.262 90.2133C882.461 88.953 879.331 89.1922 877.699 90.8036C875.761 92.7928 877.082 96.0086 880.758 98.0075Z" fill="#1B1D69"/>
<path d="M918.332 86.8388C914.655 85.5876 911.478 86.8266 911.125 89.6256C910.869 91.4828 913.119 94.2437 915.768 95.3005C919.186 96.6775 923.738 95.8619 924.253 93.7384C924.848 91.4236 922.022 88.0952 918.332 86.8388Z" fill="#1B1D69"/>
<path d="M902.298 59.2189C898.287 57.1738 894.02 57.1263 892.729 59.1604C891.162 61.6784 892.394 64.5763 895.991 66.5889C899.856 68.807 903.633 68.7904 905.451 66.555C907.282 64.2878 905.898 61.0458 902.298 59.2189Z" fill="#1B1D69"/>
<path d="M952.569 81.9355C949.602 80.1853 944.767 80.6495 943.509 82.7816C942.577 84.3103 943.968 87.1811 946.464 88.7822C949.852 90.9415 954.275 91.1473 955.96 89.2307C957.516 87.4473 955.896 83.8829 952.569 81.9355Z" fill="#1B1D69"/>
<path d="M990.095 85.7838C991.498 83.6563 989.401 80.033 985.844 78.4578C983.295 77.3024 979.704 77.7611 978.437 79.3841C976.748 81.4863 978.855 85.1228 982.541 86.5649C985.329 87.6795 989.225 87.3388 990.095 85.7838Z" fill="#1B1D69"/>
<path d="M386.778 41.5054C387.522 39.8979 385.368 37.0835 382.404 35.7178C379.494 34.3652 376.015 34.7305 375.285 36.4838C374.309 38.6491 375.346 40.9513 378.001 42.3847C381.425 44.2787 385.656 43.8437 386.778 41.5054Z" fill="#1B1D69"/>
<path d="M437.308 63.9592C437.628 62.1282 435.163 58.997 432.673 58.0535C429.172 56.7352 424.907 58.2787 425.241 60.8492C425.531 63.168 427.841 65.2525 431.081 66.1344C434.27 66.9953 436.953 66.0554 437.308 63.9592Z" fill="#1B1D69"/>
<path d="M332.401 12.8782C329.117 11.1824 324.508 11.6005 323.505 13.652C322.841 15.1053 324.677 18.1146 327.252 19.5616C330.676 21.4555 335.034 21.073 335.917 18.7755C336.568 17.0359 334.871 14.0472 332.401 12.8782Z" fill="#1B1D69"/>
<path d="M510.448 78.728C509.231 80.2315 510.247 82.7592 512.799 84.6173C515.696 86.7124 520.295 86.9917 522.249 85.1403C523.927 83.595 521.426 79.7003 517.806 78.0989C515.303 77.0096 511.553 77.3178 510.448 78.728Z" fill="#1B1D69"/>
<path d="M421.464 38.8983C422.297 36.7203 419.65 33.1392 416.169 31.736C412.827 30.3906 408.519 31.6823 408.253 34.0964C407.976 36.1791 409.928 38.769 412.653 39.9978C416.399 41.6517 420.614 41.1161 421.464 38.8983Z" fill="#1B1D69"/>
<path d="M471.658 60.7433C472.043 58.7529 469.873 55.9784 467.052 54.9435C463.144 53.5024 459.091 54.573 458.95 57.0396C458.803 58.9891 461.057 61.7049 463.779 62.9789C467.256 64.5677 471.099 63.5033 471.658 60.7433Z" fill="#1B1D69"/>
<path d="M604.862 102.542C605.304 100.949 602.852 97.9632 600.283 96.8928C596.693 95.3973 592.77 96.4752 592.55 98.9554C592.419 100.865 594.775 103.904 596.996 104.782C600.07 106.063 604.185 104.878 604.862 102.542Z" fill="#1B1D69"/>
<path d="M546.148 81.496C549.688 83.1111 554.099 82.4234 554.664 80.1804C555.076 78.4816 553.307 75.4534 551.155 74.0894C548.285 72.2858 543.554 72.4658 541.961 74.5145C540.385 76.5234 542.293 79.7498 546.148 81.496Z" fill="#1B1D69"/>
<path d="M778.47 104.805C777.918 107.371 780.47 110.258 784.399 111.474C788.138 112.611 791.905 111.197 791.807 108.771C791.742 107.154 788.773 103.813 786.711 102.907C783.515 101.529 778.939 102.615 778.47 104.805Z" fill="#1B1D69"/>
<path d="M849.009 102.262C852.563 104.023 856.778 103.628 858.052 101.456C859.23 99.5154 856.573 95.6028 853.185 94.1913C850.791 93.1943 846.723 93.557 845.492 94.9147C843.764 96.7572 845.582 100.554 849.009 102.262Z" fill="#1B1D69"/>
<path d="M939.935 119.012C940.333 117.167 937.967 114.507 934.941 113.434C932.116 112.444 928.505 113.128 927.95 114.814C927.396 116.5 929.463 119.7 931.84 120.877C935.268 122.585 939.363 121.626 939.935 119.012Z" fill="#1B1D69"/>
<path d="M1002.91 105.377C999.97 103.919 996.907 103.998 995.387 105.516C993.689 107.287 995.885 111.242 999.193 112.526C1001.68 113.47 1005.35 112.799 1006.23 111.204C1007.18 109.635 1005.47 106.678 1002.91 105.377Z" fill="#1B1D69"/>
<path d="M1024.69 81.2702C1026.01 79.7133 1025.16 77.4897 1022.3 75.1372C1019.67 72.9666 1014.38 72.7169 1012.53 74.6607C1010.85 76.3916 1013.41 80.5432 1017.04 82.1048C1019.57 83.1092 1023.49 82.7339 1024.69 81.2702Z" fill="#1B1D69"/>
<path d="M1056.96 76.4836C1057.65 74.293 1054.73 70.8324 1051.23 69.6998C1048.75 68.902 1045.5 69.7914 1044.68 71.4124C1043.62 73.5914 1046.45 76.9198 1050.22 77.9319C1053.13 78.7676 1056.47 78.0103 1056.96 76.4836Z" fill="#1B1D69"/>
<path d="M1091.3 72.2308C1092.58 70.5679 1091 67.8041 1087.82 66.2007C1084.77 64.6498 1081.09 64.4725 1079.7 65.8574C1077.81 67.7351 1079.96 71.5782 1083.81 73.1787C1086.45 74.2807 1090.05 73.814 1091.3 72.2308Z" fill="#1B1D69"/>
<path d="M1066.03 47.0818C1069.36 48.141 1072.7 46.4955 1072.82 43.7374C1072.9 41.7617 1070.6 39.3059 1067.62 38.2982C1063.61 36.9557 1059.74 37.9141 1059.69 40.3272C1059.59 43.2311 1061.99 45.7739 1066.03 47.0818Z" fill="#1B1D69"/>
<path d="M1103.78 34.1032C1100.53 32.3278 1095.84 32.7595 1094.78 34.9384C1094.07 36.4662 1095.63 39.6412 1097.81 40.9705C1101.16 43.0637 1105.44 43.2119 1107.22 41.2419C1108.97 39.3515 1107.39 36.0759 1103.78 34.1032Z" fill="#1B1D69"/>
<path d="M1135.53 30.5536C1131.88 28.8462 1127.37 29.2109 1126.73 31.2819C1126.26 32.7688 1128.2 35.9156 1130.38 37.245C1133.52 39.1137 1137.67 38.6923 1138.87 36.3404C1139.74 34.5998 1138.1 31.6692 1135.53 30.5536Z" fill="#1B1D69"/>
<path d="M1154.89 5.52842C1156.19 3.45444 1154.01 -0.354115 1150.66 -1.84536C1148.34 -2.85597 1144.45 -2.37474 1143.24 -0.911087C1141.59 1.11139 1143.68 4.78778 1147.38 6.18999C1150.03 7.24685 1154.02 6.89778 1154.89 5.52842Z" fill="#1B1D69"/>
<path d="M1181.45 2.90066C1184.01 4.01622 1187.72 3.6419 1188.65 2.11315C1189.96 0.0391763 1187.9 -3.71691 1184.66 -4.9753C1181.36 -6.25468 1177.2 -5.13591 1176.76 -2.84039C1176.51 -1.16881 1178.9 1.79035 1181.45 2.90066Z" fill="#1B1D69"/>
<path d="M865.551 129.718C867.768 130.782 871.811 130.269 872.807 128.766C874.057 127.005 872.865 124.545 870.05 122.998C866.328 120.933 861.958 121.31 861.41 123.691C861.031 125.31 863.333 128.654 865.551 129.718Z" fill="#1B1D69"/>
<path d="M899.343 125.896C902.363 127.481 905.762 127.307 906.794 125.539C908.038 123.439 906.7 120.974 903.66 119.754C899.831 118.159 896.834 118.257 896.04 119.984C894.988 121.977 896.356 124.371 899.343 125.896Z" fill="#1B1D69"/>
<path d="M957.35 147.391C957.921 145.665 955.247 142.681 952.528 142.109C950.17 141.595 948.323 141.948 947.474 143.277C946.429 144.899 948.281 147.869 950.863 148.945C953.257 149.942 956.795 149.077 957.35 147.391Z" fill="#1B1D69"/>
<path d="M973.734 116.405C974.623 114.625 972.596 111.863 969.539 110.683C966.42 109.477 962.885 110.015 962.393 111.728C961.868 113.52 964.039 116.435 966.714 117.643C969.326 118.824 972.828 118.225 973.734 116.405Z" fill="#1B1D69"/>
<path d="M683.585 122.719C686.473 123.595 689.63 122.899 690.311 121.266C691.127 119.128 687.916 115.873 683.984 114.843C681.063 114.047 678.742 115.184 678.605 117.465C678.471 119.56 680.572 121.791 683.585 122.719Z" fill="#1B1D69"/>
<path d="M1200.36 21.4796C1197.73 20.5685 1194.6 21.5104 1194.17 23.4347C1193.73 25.3589 1195.86 27.8817 1198.86 28.9901C1201.49 29.9463 1204.3 29.0589 1205.04 26.9344C1205.69 25.0091 1203.72 22.6447 1200.36 21.4796Z" fill="#1B1D69"/>
<path d="M1223.32 -3.6342C1223.83 -5.57208 1221.71 -7.94912 1218.4 -9.04813C1215.28 -10.0684 1212.63 -9.39385 1211.97 -7.28297C1211.39 -5.51711 1213.38 -3.37817 1217.09 -1.83019C1220.12 -0.570811 1222.7 -1.27162 1223.32 -3.6342Z" fill="#1B1D69"/>
<path d="M1122.71 68.073C1123.59 66.1468 1122.07 63.4092 1119.4 62.0157C1116.72 60.6222 1113.07 60.877 1111.99 62.5787C1110.73 64.5331 1112.16 67.1386 1115.1 68.4116C1118.69 69.9071 1121.93 69.7602 1122.71 68.073Z" fill="#1B1D69"/>
<path d="M841.145 132.634C842.094 130.888 840.636 128.036 838.12 126.801C834.63 125.066 830.097 125.656 829.599 127.918C829.187 129.617 831.542 132.655 834.091 133.811C836.783 134.979 840.192 134.388 841.145 132.634Z" fill="#1B1D69"/>
<path d="M750.687 107.342C748.274 106.571 744.782 107.501 744.039 109.109C743.033 111.346 745.952 114.806 749.729 115.818C752.381 116.549 756.138 115.692 756.656 114.271C757.313 112.16 754.192 108.475 750.687 107.342Z" fill="#1B1D69"/>
<path d="M806.634 136.449C807.411 134.762 805.031 132.134 801.58 130.837C798.315 129.663 795.556 130.431 795.074 132.652C794.675 134.497 797.194 137.464 800.031 138.459C802.806 139.427 805.615 138.54 806.634 136.449Z" fill="#1B1D69"/>
<path d="M717.697 119.722C720.853 120.803 724.179 120.094 724.657 118.236C725.086 116.497 722.83 113.219 720.436 112.082C717.118 110.466 712.701 111.665 712.305 114.212C711.953 116.123 714.448 118.649 717.697 119.722Z" fill="#1B1D69"/>
<path d="M774.553 140.423C775.257 138.378 773.189 136.067 769.768 134.876C766.943 133.886 763.846 134.934 763.397 136.898C762.969 138.814 765.112 141.297 768.345 142.55C770.927 143.626 773.803 142.579 774.553 140.423Z" fill="#1B1D69"/>
<path d="M739.745 145.461C740.681 143.747 738.557 141.038 735.165 139.812C732.785 138.961 730.58 138.931 729.366 140.249C727.879 141.865 729.396 144.788 732.37 146.167C735.406 147.572 738.796 147.207 739.745 145.461Z" fill="#1B1D69"/>
<path d="M650.334 119.753C647.605 118.71 644.813 119.558 643.95 121.63C643.186 123.463 645.098 125.615 648.739 127.132C651.699 128.365 654.332 127.544 654.96 125.328C655.458 123.244 653.596 120.972 650.334 119.753Z" fill="#1B1D69"/>
<path d="M572.66 107.167C573.453 105.44 571.638 102.345 569.085 101.235C565.213 99.5286 561.201 100.289 560.821 102.796C560.549 104.693 562.752 107.388 565.666 108.555C568.236 109.626 571.883 108.854 572.66 107.167Z" fill="#1B1D69"/>
<path d="M283.745 -8.74535C279.243 -10.7141 275.645 -10.2024 275.219 -7.58343C274.92 -5.8374 277.448 -2.67999 279.951 -1.59067C282.391 -0.527576 286.148 -1.20706 287.21 -2.86896C288.255 -4.66867 286.609 -7.45876 283.745 -8.74535Z" fill="#1B1D69"/>
<path d="M534.148 106.219C531.112 104.814 527.571 104.975 526.953 106.635C526.173 108.508 527.74 111.311 530.113 112.534C532.503 113.717 536.459 113.447 537.391 111.918C538.49 110.132 537.042 107.611 534.148 106.219Z" fill="#1B1D69"/>
<path d="M303.197 23.0939C304.169 20.9366 302.927 18.5955 300.252 17.3876C297.027 15.9037 294.136 16.1021 293.056 17.841C291.911 19.7021 293.187 22.1041 296.098 23.4567C299.575 25.0456 302.37 24.9006 303.197 23.0939Z" fill="#1B1D69"/>
<path d="M253.085 -0.0166102C253.875 -1.55799 251.447 -4.95447 248.785 -6.01658C246.152 -7.11329 242.14 -6.35313 241.602 -4.7068C241.084 -3.10829 243.555 0.539901 245.827 1.43934C248.031 2.35763 252.315 1.47695 253.085 -0.0166102Z" fill="#1B1D69"/>
<path d="M354.009 46.7841C354.534 44.992 352.058 42.2771 349.031 41.2034C346.147 40.1423 343.484 40.8567 342.508 43.022C341.748 44.6693 344.035 47.1649 347.565 48.4486C350.781 49.601 353.477 48.9474 354.009 46.7841Z" fill="#1B1D69"/>
<path d="M396.714 70.8419C399.688 72.3613 402.755 72.0959 403.82 70.2483C404.919 68.3211 403.604 65.6224 401.051 64.512C397.855 63.1341 394.725 63.3733 393.76 64.9818C392.761 66.6699 394.261 69.633 396.714 70.8419Z" fill="#1B1D69"/>
<path d="M504.621 116.495C506.296 114.247 504.998 111.508 502.243 110.314C499.678 109.198 495.777 109.724 495.163 111.199C494.533 112.713 497.121 116.223 499.571 116.729C501.53 117.171 503.334 116.566 504.621 116.495Z" fill="#1B1D69"/>
<path d="M1268.33 21.24C1270.22 20.2505 1272.02 19.7865 1272.84 18.7223C1273.71 17.6843 1271.4 14.9423 1269.6 14.2873C1266.45 13.1611 1262.9 14.3965 1263.91 16.5928C1264.52 17.9689 1266.46 19.3391 1268.33 21.24Z" fill="#1B1D69"/>
<path d="M1172.84 32.4484C1173.52 30.629 1171.58 28.5562 1167.86 27.0533C1164.82 25.8338 1162.28 26.6007 1161.76 28.9098C1161.26 30.9934 1163.24 33.1722 1166.58 34.3321C1169.53 35.4194 1172.07 34.6525 1172.84 32.4484Z" fill="#1B1D69"/>
<path d="M1152.83 58.5101C1150.69 57.6181 1146.36 58.4327 1145.71 59.801C1145.12 61.2355 1147.56 64.7778 1149.82 65.7223C1152.08 66.6616 1156.31 65.9004 1156.91 64.466C1157.51 63.0315 1155.02 59.4232 1152.83 58.5101Z" fill="#1B1D69"/>
<path d="M1099.15 99.4376C1102.04 101.016 1105.34 100.895 1106.21 99.1545C1107.15 97.2545 1105.68 94.7686 1102.81 93.6676C1100.51 92.8028 1098.6 92.9438 1097.25 93.9229C1095.38 95.2039 1096.38 97.912 1099.15 99.4376Z" fill="#1B1D69"/>
<path d="M1074.55 103.023C1075.28 101.456 1072.87 98.0194 1070.31 97.4208C1068.03 96.8926 1066.05 96.8616 1065.02 98.2582C1063.73 100.107 1064.63 102.211 1067.52 103.929C1069.59 105.166 1073.82 104.591 1074.55 103.023Z" fill="#1B1D69"/>
<path d="M1040.36 106.21C1039.97 104.13 1037.09 102.041 1034.02 101.603C1030.81 101.154 1028.65 102.595 1029.37 104.766C1030.17 107.295 1032.81 109.285 1035.59 109.506C1038.76 109.704 1040.75 108.29 1040.36 106.21Z" fill="#1B1D69"/>
<path d="M1019.07 140.671C1020.19 140.295 1022.4 140.095 1023.26 139.097C1024.64 137.566 1022.17 134.48 1019.33 133.67C1017.23 133.03 1014.62 133.625 1014.04 134.834C1013.21 136.641 1015.2 139.336 1019.07 140.671Z" fill="#1B1D69"/>
<path d="M888.988 150.751C884.679 148.675 881.691 148.927 881.355 150.976C881.073 152.541 881.838 154.076 884.291 155.285C887.625 156.861 890.885 156.629 890.956 154.508C891.01 153.314 889.541 151.73 888.988 150.751Z" fill="#1B1D69"/>
<path d="M369.21 73.7796C370.584 71.6868 368.529 68.4928 365.788 67.4443C363.945 66.7233 360.778 67.2278 360.028 68.3182C358.937 69.8742 361.03 73.365 363.858 74.0286C365.817 74.4707 367.844 73.8652 369.21 73.7796Z" fill="#1B1D69"/>
<path d="M705.139 148.803C706.042 147.169 704.084 144.062 701.439 142.96C698.81 141.818 695.305 142.603 694.747 144.474C694.272 146.147 695.754 147.737 697.729 149.027C700.301 150.66 704.3 150.464 705.139 148.803Z" fill="#1B1D69"/>
<path d="M622.393 129.942C623.482 128.571 621.636 125.371 618.749 124.496C616.915 123.966 614.409 123.95 613.112 124.579C611.145 125.396 612.669 128.837 615.251 130.053C618.523 131.603 621.109 131.605 622.393 129.942Z" fill="#1B1D69"/>
<path d="M487.222 86.2984C487.73 84.5461 484.539 81.2061 481.781 81.0857C479.894 81.0012 477.768 81.7053 476.955 82.7695C475.704 84.3527 478.359 87.7031 481.074 88.46C484.452 89.3997 486.528 88.6746 487.222 86.2984Z" fill="#1B1D69"/>
<path d="M454.807 92.141C454.048 91.1235 453.429 89.416 451.894 88.3091C449.027 86.1794 445.565 86.3272 444.672 88.2933C443.962 89.8211 444.71 91.3954 446.988 92.8119C450.001 94.6281 453.207 94.5609 454.807 92.141Z" fill="#1B1D69"/>
<path d="M258.238 23.2453C257.683 24.9314 260.357 27.9159 263.109 28.548C265.48 29.0678 267.39 28.7412 268.239 27.4117C269.231 25.9172 267.181 22.6781 264.787 21.6811C262.486 20.6757 258.789 21.5671 258.238 23.2453Z" fill="#1B1D69"/>
<path d="M1185.14 118.856C1187.92 119.594 1190.38 118.469 1189.69 117.107C1189.22 116.115 1188.3 114.984 1187.13 114.26C1185.6 113.299 1181.83 114.018 1182.25 115.13C1182.8 116.48 1184.36 117.878 1185.14 118.856Z" fill="#1B1D69"/>
<path d="M856.877 159.426C855.528 157.695 854.793 156.089 853.338 154.968C851.147 153.307 847.553 153.952 846.852 155.811C846.251 157.431 849.157 160.746 851.614 160.881C853.421 160.979 854.851 160.031 856.877 159.426Z" fill="#1B1D69"/>
<path d="M1220.8 51.4939C1217.99 49.7166 1213.24 49.9815 1213.29 51.6385C1213.33 52.9641 1214.53 54.8228 1215.92 56.1026C1217.64 57.6595 1222.74 57.3055 1222.72 55.5688C1222.7 54.2034 1221.32 52.5523 1220.8 51.4939Z" fill="#1B1D69"/>
<path d="M1114.88 126.885C1117.49 126.661 1119.88 126.956 1120.93 126.222C1122.29 125.248 1121.06 123.424 1119.19 122.04C1117.5 120.775 1114.09 120.663 1113.73 122.056C1113.46 123.251 1114.34 124.832 1114.88 126.885Z" fill="#1B1D69"/>
<path d="M789.801 168.874C788.804 166.831 788.533 165.175 787.27 163.948C785.427 162.198 781.133 162.747 780.515 164.585C780.03 165.926 781.402 168.134 783.71 168.768C785.414 169.291 787.357 168.884 789.801 168.874Z" fill="#1B1D69"/>
<path d="M1089.46 129.985C1089.03 129.059 1088.78 127.363 1087.5 126.175C1085.67 124.526 1081.26 125.028 1080.88 126.833C1080.49 128.492 1081.95 129.944 1084.06 131.056C1086.1 132.187 1088.45 131.858 1089.46 129.985Z" fill="#1B1D69"/>
<path d="M1184.25 60.154C1185.29 59.7915 1187.18 59.5047 1188.15 58.5989C1189.58 57.1343 1187.4 54.731 1183.93 53.5187C1181.67 52.7199 1179.63 53.1797 1179.04 54.6142C1178.08 56.554 1179.85 58.6939 1184.25 60.154Z" fill="#1B1D69"/>
<path d="M672.748 153.35C674.118 151.302 672.098 148.169 669.373 147.081C667.719 146.438 664.342 146.949 663.705 147.946C662.693 149.488 664.711 152.948 667.476 153.585C669.419 154.067 671.365 153.475 672.748 153.35Z" fill="#1B1D69"/>
<path d="M722.296 176.562C722.777 174.518 720.627 172.407 718.492 172.032C716.151 171.618 714.43 172.023 714.114 173.668C713.868 175.146 716.092 177.616 718.011 177.621C719.835 177.679 721.211 176.859 722.296 176.562Z" fill="#1B1D69"/>
<path d="M637.579 155.339C636.91 154.639 635.973 152.986 634.368 152.083C632.027 150.781 628.35 152.335 628.965 154.229C629.521 155.91 631.275 157.201 633.583 157.835C635.903 158.475 638.029 157.63 637.579 155.339Z" fill="#1B1D69"/>
<path d="M587.541 133.839C588.032 132.127 584.824 128.686 582.506 128.749C580.776 128.823 578.998 129.719 578.265 130.77C577.336 132.113 579.003 133.789 581.091 134.986C583.65 136.473 586.996 135.857 587.541 133.839Z" fill="#1B1D69"/>
<path d="M600.538 162.39C602.933 161.751 605.062 161.609 606.362 160.794C607.294 160.154 604.812 157.062 603.032 156.227C601.427 155.465 597.435 156 597.65 157.258C597.861 158.702 599.26 160.314 600.538 162.39Z" fill="#1B1D69"/>
<path d="M471.358 119.416C470.268 117.419 469.871 115.71 468.529 114.496C466.61 112.715 464.269 113.049 462.544 113.64C460.309 114.392 461.617 118.35 464.617 119.273C466.51 119.875 468.566 119.375 471.358 119.416Z" fill="#1B1D69"/>
<path d="M383.349 156.972L384.526 156.807L383.492 156.096L383.349 156.972Z" fill="#1B1D69"/>
<path d="M449.679 149.834C450.856 149.669 452.538 149.855 453.135 149.309C454.392 148.243 451.966 145.409 449.807 145.445C448.617 145.463 447.317 146.278 447.191 147.114C447.147 147.75 448.808 148.909 449.679 149.834Z" fill="#1B1D69"/>
<path d="M298.574 76.6931C296.833 77.1834 295.245 77.2699 294.661 77.9619C293.705 79.0135 296.403 81.7273 298.512 81.8108C299.891 81.871 300.996 81.3491 302.286 81.0915C300.98 79.6124 299.817 78.1459 298.574 76.6931Z" fill="#1B1D69"/>
<path d="M349.445 104.899C350.406 104.364 351.856 104.079 352.251 103.309C352.881 101.794 350.558 99.5641 348.416 99.5603C347.226 99.5788 345.866 100.181 345.534 100.978C344.907 102.307 347.356 104.59 349.445 104.899Z" fill="#1B1D69"/>
<path d="M246.392 58.5989C247.708 58.6328 249.495 59.0969 250.265 58.6692C251.804 57.8139 250.767 55.334 248.589 54.5668C247.296 54.1217 245.489 54.0237 244.471 54.3384C242.843 54.8759 244.068 57.2568 246.392 58.5989Z" fill="#1B1D69"/>
<path d="M586.193 188.661C585.172 188.983 583.663 189.056 583.335 189.668C582.644 190.97 585.219 193.305 586.907 192.98C587.958 192.763 588.91 191.897 589.037 191.061C589.17 189.854 587.854 188.932 586.193 188.661Z" fill="#1B1D69"/>
<path d="M487.888 145.839C487.965 144.234 486.139 142.585 483.954 142.33C481.719 142.053 479.842 143.188 480.657 144.603C481.164 145.516 482.4 146.592 483.627 147.197C485.765 148.274 487.778 147.523 487.888 145.839Z" fill="#1B1D69"/>
<path d="M388.194 99.9601C385.459 98.3999 383.706 97.1084 381.83 96.467C381.057 96.192 379.376 97.0347 379.094 97.7121C378.476 99.372 380.607 101.709 382.606 101.7C384.383 101.693 385.796 100.785 388.194 99.9601Z" fill="#1B1D69"/>
<path d="M438.816 124.319C436.778 122.114 435.87 120.567 434.362 119.611C432.777 118.624 430.141 119.63 430.399 121.14C430.494 121.975 431.545 123.535 432.271 123.744C433.995 124.181 435.743 124.068 438.816 124.319Z" fill="#1B1D69"/>
<path d="M333.426 73.8711C332.109 73.8372 330.435 73.4203 329.666 73.848C328.047 74.7169 328.514 76.9686 330.144 78.022C331.759 79.1153 334.819 79.2211 335.963 78.2482C337.061 77.2093 335.925 75.1461 333.426 73.8711Z" fill="#1B1D69"/>
<path d="M235.082 31.1364C236.306 30.1499 235.461 28.629 232.949 27.2083C230.936 26.0426 228.698 26.0922 227.882 27.3421C226.939 28.7171 227.88 30.1845 229.952 31.4216C232.372 32.8507 233.815 32.0488 235.082 31.1364Z" fill="#1B1D69"/>
<path d="M280.974 54.2633C284.189 55.4157 286.57 54.4904 286.346 52.9005C286.042 51.1465 285.021 49.6927 282.465 48.9085C280.191 48.1947 277.256 49.2073 277.865 50.5834C278.458 51.9994 280.165 53.3653 280.974 54.2633Z" fill="#1B1D69"/>
<path d="M519.976 142.193C520.322 140.654 518.579 138.806 516.271 138.312C513.964 137.818 511.927 138.84 512.52 140.397C512.884 141.297 514.004 142.511 515.151 143.129C517.349 144.419 519.597 143.812 519.976 142.193Z" fill="#1B1D69"/>
<path d="M414.997 96.2651C417.779 97.0032 419.567 96.4385 419.598 94.7679C419.635 92.7261 418.279 91.226 415.925 90.6663C413.097 90.0027 411.39 90.5538 411.233 92.1719C411.136 94.0019 412.597 95.6394 414.997 96.2651Z" fill="#1B1D69"/>
<path d="M315.331 45.1682C313.998 45.1741 311.677 44.7124 310.334 45.2752C308.317 46.0716 310.149 49.2665 313.11 50.4997C315.566 51.5229 317.128 51.1448 318.103 49.8678C318.807 48.7112 317.797 46.5229 315.331 45.1682Z" fill="#1B1D69"/>
<path d="M652.791 185.465C654.261 184.067 655.687 183.305 656.025 182.137C656.381 180.929 653.789 179.521 651.189 179.233C649.415 179.056 648.231 179.591 648.89 180.848C649.516 182.184 651.035 183.471 652.791 185.465Z" fill="#1B1D69"/>
<path d="M554.991 138.084C555.274 135.63 553.716 134.046 551.3 133.46C548.203 132.731 546.512 133.243 546.594 134.82C546.716 136.835 548.081 138.525 550.408 138.794C552.291 139.064 553.86 138.314 554.991 138.084Z" fill="#1B1D69"/>
<path d="M689.535 179.694C687.113 177.703 685.887 176.21 684.219 175.422C682.3 174.529 680.084 175.804 680.644 177.44C680.945 178.313 682.363 179.877 683.056 179.988C684.86 180.272 686.564 179.906 689.535 179.694Z" fill="#1B1D69"/>
<path d="M855.14 215.675C854.331 214.777 853.702 213.627 852.681 213.061C850.732 212.062 849.139 213.082 849.424 215.024C849.576 216.257 850.779 217.272 852.447 217.172C853.528 217.061 854.195 216.17 855.14 215.675Z" fill="#1B1D69"/>
<path d="M752.225 166.922C748.834 165.837 746.934 166.495 746.953 168.046C746.965 170.146 748.224 171.559 750.439 171.92C752.716 172.308 755.177 172.398 754.876 170.458C754.704 169.311 752.954 167.834 752.225 166.922Z" fill="#1B1D69"/>
<path d="M839.469 189.846C839.483 188.037 837.644 186.242 835.522 186.013C833.337 185.758 831.476 186.89 832.115 188.513C832.463 189.453 833.725 190.68 834.872 191.298C836.914 192.429 839.471 191.437 839.469 189.846Z" fill="#1B1D69"/>
<path d="M862.875 181.883C865.004 183.658 866.289 185.363 867.96 185.965C870.072 186.751 871.534 185.724 871.863 184.224C872.172 182.773 870.009 180.515 868.261 180.629C866.58 180.761 865.157 181.337 862.875 181.883Z" fill="#1B1D69"/>
<path d="M818.984 158.183C815.777 157.221 814.046 157.295 813.402 158.841C812.692 160.369 813.792 161.809 815.884 162.961C818.586 164.46 822.502 163.754 821.933 161.749C821.575 160.478 819.792 159.08 818.984 158.183Z" fill="#1B1D69"/>
<path d="M952.916 201.118C951.911 201.4 950.356 201.407 950.044 201.979C949.417 203.307 951.714 205.246 953.893 205.125C954.957 205.054 955.578 204.097 956.334 203.523C955.19 202.72 954.047 201.916 952.916 201.118Z" fill="#1B1D69"/>
<path d="M907.207 182.308C905.685 180.318 904.953 178.704 903.452 177.517C902.166 176.524 899.331 177.297 898.561 178.613C897.97 179.676 899.57 182.4 901.311 182.658C903.098 182.981 904.835 182.536 907.207 182.308Z" fill="#1B1D69"/>
<path d="M940.332 177.601C939.268 176.784 937.899 175.279 936.182 174.47C934.64 173.734 932.61 175.414 932.788 176.937C932.967 178.461 935.105 179.679 937.814 179.919C939.667 180.084 940.47 179.576 940.332 177.601Z" fill="#1B1D69"/>
<path d="M1023.42 194.921C1021.46 193.962 1019.76 193.068 1018.07 192.505C1017.82 192.4 1016.56 193.837 1016.96 194.472C1017.43 195.279 1019.14 196.504 1020.14 196.592C1021.14 196.681 1021.96 195.762 1023.42 194.921Z" fill="#1B1D69"/>
<path d="M916.445 152.181C918.79 151.662 920.617 151.535 921.851 150.88C923.085 150.224 921.989 147.71 920.388 146.763C917.682 145.131 913.793 145.419 914.011 147.38C914.146 148.652 915.326 150.078 916.445 152.181Z" fill="#1B1D69"/>
<path d="M973.834 173.936C972.379 171.928 971.764 170.035 970.226 169.113C968.217 167.902 966.296 168.645 965.165 169.764C964.163 170.75 965.591 173.355 967.601 173.818C969.417 174.248 971.248 173.935 973.834 173.936Z" fill="#1B1D69"/>
<path d="M1006.87 168.908C1005.87 168.117 1004.56 166.638 1002.85 165.784C1001.37 165.075 999.262 166.768 999.394 168.225C999.542 169.643 1001.69 170.867 1004.49 171.239C1006.33 171.443 1007.13 170.935 1006.87 168.908Z" fill="#1B1D69"/>
<path d="M988.883 142.068C989.285 140.038 987.84 138.361 985.603 137.522C983.239 136.631 981.538 136.811 980.609 138.154C979.434 139.769 981.87 142.935 984.658 143.161C986.432 143.339 987.799 142.365 988.883 142.068Z" fill="#1B1D69"/>
<path d="M1033.83 164.955C1035.91 166.006 1038.52 165.782 1038.98 164.481C1039.49 163.1 1037.9 160.522 1036.1 160.238C1034.78 160.019 1033.33 160.303 1032.26 160.746C1030.68 161.349 1031.76 163.903 1033.83 164.955Z" fill="#1B1D69"/>
<path d="M1073.06 162.412C1072.68 160.85 1072.87 159.669 1072.07 158.771C1070.59 157.033 1068.31 156.831 1066.7 158.031C1065.62 158.844 1065.52 160.157 1067.12 160.919C1068.83 161.773 1070.98 161.918 1073.06 162.412Z" fill="#1B1D69"/>
<path d="M1055.18 133.558C1056.39 132.425 1055.47 130.733 1052.91 129.291C1050.69 128.041 1048.52 128.117 1047.37 129.461C1046.34 130.672 1047.25 132.405 1049.68 133.839C1051.75 135.076 1053.61 135.01 1055.18 133.558Z" fill="#1B1D69"/>
<path d="M1152.93 117.633C1150.33 116.597 1148.09 117.018 1148.2 118.515C1148.31 120.384 1150.25 122.643 1151.83 122.41C1153.48 122.165 1154.66 121.112 1155.64 120.166C1155.79 119.993 1153.9 118.504 1152.93 117.633Z" fill="#1B1D69"/>
<path d="M1131.19 92.3614C1131.12 94.2973 1132.56 95.8288 1134.96 96.4546C1137.75 97.1979 1139.59 96.6542 1139.63 94.9888C1139.7 93.0529 1138.27 91.5214 1135.87 90.8956C1133.07 90.1523 1131.27 90.7568 1131.19 92.3614Z" fill="#1B1D69"/>
<path d="M1169.58 85.8217C1167.73 84.5837 1166.03 84.7635 1164.48 86.1757C1163.61 87.0281 1163.63 87.8765 1164.92 89.0242C1167.34 91.201 1170.61 91.6718 1171.83 89.9827C1172.93 88.5725 1171.38 87.1793 1169.58 85.8217Z" fill="#1B1D69"/>
<path d="M1198.56 82.3774C1198.73 83.9013 1198.41 85.0296 1199.1 85.8751C1200.6 87.7192 1203.54 88.4752 1204.87 87.581C1206.27 86.7131 1206.18 84.1017 1204.41 83.3671C1202.65 82.6325 1200.57 82.7 1198.56 82.3774Z" fill="#1B1D69"/>
<path d="M1271.89 78.4371C1271.31 76.8356 1271.31 75.7617 1270.55 74.9298C1269.25 73.5965 1266.3 73.583 1265.64 74.9912C1265.36 75.6686 1266.09 77.4685 1266.55 77.6123C1268.25 78.135 1270 78.2069 1271.89 78.4371Z" fill="#1B1D69"/>
<path d="M1253.69 49.8182C1254.82 48.6996 1253.84 46.9804 1251.62 45.9163C1249.34 44.826 1247.53 44.9136 1246.44 46.0983C1245.18 47.5357 1246.96 48.9331 1248.75 50.145C1250.6 51.383 1252.43 51.2556 1253.69 49.8182Z" fill="#1B1D69"/>
<path d="M1288.19 46.3855C1288.41 44.653 1285.78 42.4374 1284 42.4452C1282.89 42.4501 1281.62 42.8535 1281.13 43.492C1280.36 44.6223 1282.29 47.4376 1283.69 47.458C1285.53 47.4764 1287.03 46.7008 1288.19 46.3855Z" fill="#1B1D69"/>
<path d="M1238.87 24.2502C1237.4 22.2813 1236.75 20.6535 1235.34 19.5991C1233.08 17.9121 1229.56 18.7364 1229.29 20.8191C1229.14 22.0659 1231.14 24.3507 1233.02 24.6207C1234.84 24.8646 1236.5 24.433 1238.87 24.2502Z" fill="#1B1D69"/>
<path d="M1298.73 15.0704C1300.71 16.3158 1303.36 16.3439 1303.8 14.9366C1304.05 14.1533 1303.7 12.8821 1302.95 12.0104C1301.77 10.6289 1298.7 10.1917 1297.38 11.046C1296.02 11.8342 1296.7 13.7536 1298.73 15.0704Z" fill="#1B1D69"/>
<path d="M1337.32 11.9349C1337.2 10.9942 1337.5 9.90567 1336.82 9.0602C1335.75 7.7259 1332.69 7.43449 1331.78 8.59724C1331.32 9.15607 1331.6 10.5814 1332.4 11.3335C1333.99 13.0235 1336.14 13.1731 1337.32 11.9349Z" fill="#1B1D69"/>
<path d="M1233.57 81.4464C1234.99 81.5727 1236.67 81.9896 1237.69 81.6669C1239.03 81.2897 1237.62 78.4588 1235.43 77.5007C1234.44 77.041 1232.53 77.0415 1231.83 77.4954C1230.3 78.4965 1231.31 80.4621 1233.57 81.4464Z" fill="#1B1D69"/>
<path d="M1287.58 103.527C1287.18 102.706 1286.95 101.488 1286.27 101.159C1284.73 100.424 1283.71 100.932 1283.75 102.072C1283.77 102.549 1284.03 103.171 1284.47 103.54C1285.84 104.675 1286.97 104.63 1287.58 103.527Z" fill="#1B1D69"/>
<path d="M1138.74 153.462C1139.98 152.622 1138.91 149.882 1136.87 149.268C1135.83 148.928 1134.06 149.267 1133.67 149.852C1133.26 150.477 1133.68 152.146 1134.44 152.606C1135.53 153.198 1137.24 153.164 1138.74 153.462Z" fill="#1B1D69"/>
<path d="M772.268 198.726C772.531 197.208 770.555 194.889 768.951 195.015C767.807 195.1 766.669 195.702 766.294 196.424C765.571 197.806 767.562 199.945 769.545 199.976C770.563 199.98 771.34 199.181 772.268 198.726Z" fill="#1B1D69"/>
<path d="M1219.14 114.838C1220.27 113.017 1221.13 112.019 1221.34 110.798C1221.41 110.453 1219.26 109.089 1218.23 108.895C1217.26 108.727 1215.54 109.503 1215.74 109.913C1216.28 111.263 1217.51 112.57 1219.14 114.838Z" fill="#1B1D69"/>
<path d="M1102.28 158.928C1103 157.731 1104.06 156.772 1104.21 155.525C1104.25 155.074 1102.26 153.638 1101.07 153.33C1099.04 152.716 1097.58 154.26 1098.6 156.085C1099.07 156.892 1100.65 157.688 1102.28 158.928Z" fill="#1B1D69"/>
<path d="M1237.28 138.985C1236.67 138.683 1235.92 138.182 1235.53 138.21C1235.01 138.271 1234.43 138.777 1234.56 139.161C1234.95 140.493 1236.09 140.965 1237.43 140.403C1237.72 140.242 1237.32 139.422 1237.28 138.985Z" fill="#1B1D69"/>
<path d="M1203.61 141.501C1202.01 140.553 1200.74 140.585 1200.19 141.714C1199.68 142.764 1200.48 143.702 1202.32 144.237C1203.05 144.446 1204.09 144.601 1204.41 144.361C1205.51 143.648 1205.14 142.607 1203.61 141.501Z" fill="#1B1D69"/>
<path d="M735.162 198.654C732.503 198.295 730.768 199.443 732.077 200.914C732.839 201.746 734.659 202.878 735.674 202.926C736.688 202.975 737.687 201.997 737.876 201.188C738.232 199.98 736.949 198.978 735.162 198.654Z" fill="#1B1D69"/>
<path d="M535.245 165.612C534.27 166 532.762 166.073 532.337 166.738C531.567 168.054 533.586 169.596 536.244 169.956C537.985 170.213 539.043 169.625 538.354 168.263C537.927 167.337 536.293 166.469 535.245 165.612Z" fill="#1B1D69"/>
<path d="M402.719 125.733C401.814 124.889 401.026 123.765 399.955 123.319C397.814 122.427 396.029 123.695 397.142 125.281C397.636 126.047 399.393 127.153 400.265 127.189C401.279 127.238 401.9 126.28 402.719 125.733Z" fill="#1B1D69"/>
<path d="M265.957 85.1655C267.054 85.0148 268.497 85.1013 269.22 84.6075C270.264 83.8737 268.203 81.9021 265.719 81.3351C263.903 80.9056 262.928 81.472 263.491 82.7821C263.842 83.5362 265.128 84.3525 265.957 85.1655Z" fill="#1B1D69"/>
<path d="M369.329 131.081C368.328 130.29 367.264 129.473 366.263 128.682C365.507 129.255 364.814 129.855 364.058 130.428C365.092 131.14 366.106 132.077 367.21 132.443C369.086 133.084 369.796 132.445 369.329 131.081Z" fill="#1B1D69"/>
<path d="M314.378 105.945C314.613 106.978 314.387 108.053 315.132 108.925C316.202 110.259 317.615 110.24 318.772 109.412C319.834 108.639 320.043 107.604 318.426 106.696C317.342 106.104 315.754 106.191 314.378 105.945Z" fill="#1B1D69"/>
<path d="M420.367 154.446C420.798 153.41 420.195 152.551 418.554 152.055C417.891 151.872 416.701 151.89 416.714 152.036C416.793 152.911 416.693 154.038 417.442 154.724C418.486 155.767 419.776 155.509 420.367 154.446Z" fill="#1B1D69"/>
<path d="M284.79 111.568C284.687 111.105 284.764 110.389 284.402 110.191C282.94 109.302 281.843 109.452 281.537 110.541C281.451 110.926 281.596 111.641 282.004 111.904C283.37 112.847 284.341 112.644 284.79 111.568Z" fill="#1B1D69"/>
<path d="M570.027 164.914C569.712 163.894 569.749 162.741 568.941 161.843C567.9 160.614 564.502 160.788 563.871 162.303C563.589 162.98 564.182 164.396 565.01 165.068C566.777 166.506 569.287 166.336 570.027 164.914Z" fill="#1B1D69"/>
<path d="M804.623 193.37C804.322 192.319 804.422 191.191 803.63 190.253C802.695 189.162 798.869 189.299 798.278 190.54C797.996 191.217 798.652 192.659 799.543 193.358C801.39 194.922 803.867 194.832 804.623 193.37Z" fill="#1B1D69"/>
<path d="M670.882 209.734C670.415 208.37 669.285 207.712 667.563 207.977C665.892 208.263 665.606 209.126 666.68 210.274C667.135 210.744 667.967 211.231 668.63 211.414C670.668 211.842 671.378 211.203 670.882 209.734Z" fill="#1B1D69"/>
<path d="M784.389 224.763C785.553 224.453 786.637 224.156 787.705 223.899C786.781 223.103 785.892 222.218 784.875 221.467C784.766 221.375 783.426 221.752 783.439 222.075C783.535 222.91 784.041 223.823 784.389 224.763Z" fill="#1B1D69"/>
<path d="M620.98 187.729C620.331 186.804 619.844 185.526 618.932 185.052C617.832 184.5 615.521 184.192 615.116 184.632C614.565 185.244 614.727 186.808 615.506 187.6C616.97 189.052 620.37 189.018 620.98 187.729Z" fill="#1B1D69"/>
<path d="M1302.85 72.5457C1301.87 71.7148 1300.84 70.8178 1299.85 69.987C1299.14 70.6265 1298.1 71.1746 1297.83 71.9978C1297.4 73.2194 1298.69 74.3671 1300.44 74.2533C1301.42 74.1959 1302.01 73.1327 1302.85 72.5457Z" fill="#1B1D69"/>
<path d="M969.897 231.75L970.866 230.844L969.426 230.431L969.897 231.75Z" fill="#1B1D69"/>
<path d="M1217.17 169.027C1217.25 169.385 1217.27 170.048 1217.45 170.127C1218.02 170.363 1218.69 170.36 1219.3 170.476C1219.17 170.093 1219.18 169.536 1218.93 169.431C1218.44 169.181 1217.79 169.144 1217.17 169.027Z" fill="#1B1D69"/>
<path d="M1167.42 149.142C1168.33 148.727 1169.79 148.588 1170.01 147.885C1170.28 147.247 1169.27 146.125 1168.76 145.212C1167.86 145.587 1166.39 145.766 1166.18 146.43C1165.92 147.068 1166.93 148.19 1167.42 149.142Z" fill="#1B1D69"/>
<path d="M1335.67 69.0628C1335.79 68.7838 1336.09 68.398 1335.89 68.1735C1335.55 67.7959 1334.86 67.3216 1334.37 67.2575C1332.4 67.001 1332.23 67.5851 1333.93 68.6648C1334.4 68.9544 1335.13 68.9776 1335.67 69.0628Z" fill="#1B1D69"/>
<path d="M1188.1 175.002C1188.38 174.696 1189.08 174.428 1188.94 174.044C1188.86 173.726 1187.98 173.173 1187.44 173.043C1187.17 172.978 1186.41 173.551 1186.55 173.75C1186.88 174.212 1187.54 174.58 1188.1 175.002Z" fill="#1B1D69"/>
<path d="M1154.16 179.56C1153.14 178.809 1152.16 177.978 1151.01 177.36C1150.71 177.189 1149.56 177.459 1149.51 177.764C1149.38 178.083 1150.09 179.034 1150.44 179.086C1151.65 179.359 1152.89 179.406 1154.16 179.56Z" fill="#1B1D69"/>
<path d="M1402.63 2.64129C1402.43 2.23118 1402.23 1.82107 1402.04 1.41096C1401.65 1.62478 1401.03 1.69381 1400.96 2.03882C1400.84 2.31774 1401.3 2.8328 1401.51 3.20306C1401.88 3.02909 1402.25 2.85511 1402.63 2.64129Z" fill="#1B1D69"/>
<path d="M1123.16 183.423C1122.96 182.124 1121.95 181.373 1120.23 181.407C1119.64 181.396 1119.26 181.796 1118.73 181.997C1119.76 182.708 1120.7 183.473 1121.83 184.131C1122.02 184.21 1122.7 183.65 1123.16 183.423Z" fill="#1B1D69"/>
<path d="M1088.01 188.741C1087.26 187.914 1086.66 186.869 1085.67 186.41C1085.06 186.107 1083.87 186.643 1082.98 186.833C1083.37 187.321 1083.72 188.076 1084.11 188.193C1085.39 188.492 1086.69 188.566 1088.01 188.741Z" fill="#1B1D69"/>
<path d="M1367.49 6.50911C1368.14 6.36039 1369.32 6.38171 1369.35 6.1164C1369.31 4.79081 1368.16 3.84137 1366.29 3.53143C1365.6 3.42844 1364.4 3.63259 1364.43 3.92414C1364.4 5.22349 1365.58 6.13309 1367.49 6.50911Z" fill="#1B1D69"/>
<path d="M888.766 212.953C888.226 212.12 887.789 210.863 887.08 210.614C886.102 210.3 884.968 210.716 883.887 210.827C884.195 211.33 884.542 212.269 884.874 212.361C886.137 212.7 887.437 212.774 888.766 212.953Z" fill="#1B1D69"/>
<path d="M938.256 235.953C938.183 235.596 938.399 235.078 938.008 234.775C937.056 233.864 936.055 233.961 935.67 235.063C935.57 235.302 936.206 236.082 936.647 236.265C937.121 236.369 937.698 236.049 938.256 235.953Z" fill="#1B1D69"/>
<path d="M1056.25 192.521C1055.76 191.755 1055.2 190.962 1054.71 190.195C1053.67 190.372 1052.65 190.509 1051.62 190.686C1052.01 191.175 1052.32 192.008 1052.66 192.1C1053.86 192.413 1055.03 192.434 1056.25 192.521Z" fill="#1B1D69"/>
<path d="M1103.53 214.972L1104.46 214.146L1103.17 213.701L1103.53 214.972Z" fill="#1B1D69"/>
<path d="M1352.56 37.2124C1353.51 36.3464 1353.23 35.4329 1351.42 34.6322C1350.91 34.4223 1349.58 34.6138 1349.61 34.7197C1349.88 35.6731 1350.37 36.6255 1350.79 37.5516C1351.37 37.4165 1351.99 37.3475 1352.56 37.2124Z" fill="#1B1D69"/>
<path d="M1318.87 40.4276C1317.81 40.5437 1316.73 40.6545 1315.64 40.7653C1316.42 41.5573 1317.2 42.7206 1318.08 43.0428C1319.18 43.4092 1320.4 42.9796 1321.61 42.9212C1320.7 42.0767 1319.78 41.2721 1318.87 40.4276Z" fill="#1B1D69"/>
<path d="M902.816 239.842C903.307 239.906 904.033 240.115 904.145 240.021C904.341 239.729 904.159 239.279 904.166 238.908C903.692 238.804 902.886 238.608 902.853 238.688C902.641 239.021 902.76 239.444 902.816 239.842Z" fill="#1B1D69"/>
<path d="M755.249 229.682C754.765 229.247 754.361 228.62 753.794 228.384C751.812 227.642 751.076 227.99 751.99 229.166C752.331 229.589 753.259 230.022 753.876 230.139C754.35 230.243 754.818 229.83 755.249 229.682Z" fill="#1B1D69"/>
<path d="M701.177 207.203C701.19 207.348 702.702 207.978 702.752 207.858C703.458 207.227 704.613 206.585 704.437 205.764C704.15 204.148 702.433 203.48 701.192 204.506C700.595 205.052 700.969 206.283 701.177 207.203Z" fill="#1B1D69"/>
<path d="M989.172 199.49C987.813 199.204 986.301 198.575 985.22 198.685C984.06 198.81 984.626 199.934 986.24 201.027C987.682 202.002 989.045 202.102 989.904 201.104C990.163 200.838 989.464 200.032 989.172 199.49Z" fill="#1B1D69"/>
<path d="M1038.05 222.893C1037.86 222.483 1037.66 222.073 1037.47 221.623C1037.35 222.273 1037.21 222.963 1037.03 223.587C1037.33 223.387 1037.65 223.146 1038.05 222.893Z" fill="#1B1D69"/>
<path d="M822.33 221.59C821.693 220.811 821.207 219.673 820.56 219.45C819.662 219.123 818.557 219.504 817.555 219.601C817.943 220.09 818.215 220.858 818.597 220.97C819.797 221.283 821.017 221.371 822.33 221.59Z" fill="#1B1D69"/>
<path d="M870.225 244.863C870.609 244.65 871.2 244.475 871.253 244.17C871.306 243.864 870.696 243.377 870.418 242.98C869.015 243.331 868.972 243.967 870.225 244.863Z" fill="#1B1D69"/>
<path d="M920.431 209.087C919.828 208.227 919.454 206.996 918.715 206.641C917.833 206.274 916.573 206.638 915.585 206.881C915.409 206.948 915.955 208.298 916.224 208.363C917.629 208.714 918.976 208.854 920.431 209.087Z" fill="#1B1D69"/>
<path d="M566.814 221.346L568.713 222.465L568.687 221.285L566.814 221.346Z" fill="#1B1D69"/>
<path d="M516.43 196.802C516.138 197.148 515.657 197.415 515.554 197.84C515.488 197.999 516.404 198.427 516.858 198.757C517.213 198.437 517.584 198.078 517.939 197.758C517.405 197.442 516.872 197.126 516.43 196.802Z" fill="#1B1D69"/>
<path d="M553.152 195.836C552.844 195.334 552.695 194.804 552.211 194.369C550.962 193.287 549.632 193.107 548.777 193.92C548.551 194.106 549.197 195.217 549.465 195.282C550.682 195.555 551.902 195.643 553.152 195.836Z" fill="#1B1D69"/>
<path d="M499.425 173.782C500.364 173.658 501.965 173.718 502.051 173.333C502.111 172.656 501.16 171.746 500.62 170.913C500.047 171.048 499.317 171.025 498.979 171.305C497.9 171.978 498.122 172.865 499.425 173.782Z" fill="#1B1D69"/>
<path d="M602.905 218.2C602.368 218.07 601.406 217.716 601.26 217.889C601.002 218.156 600.879 218.806 601.19 219.123C601.502 219.439 602.42 219.541 603.02 219.698C603.014 219.181 602.928 218.677 602.905 218.2Z" fill="#1B1D69"/>
<path d="M687.89 238.039C687.42 237.749 686.966 237.42 686.445 237.25C686.256 237.171 685.948 237.557 685.722 237.744C686.193 238.033 686.696 238.421 687.2 238.631C687.343 238.643 687.665 238.225 687.89 238.039Z" fill="#1B1D69"/>
<path d="M468.689 175.604C468.051 175.572 467.074 175.258 466.768 175.458C465.77 176.258 466.436 177.144 468.32 177.554C468.857 177.684 469.799 177.375 469.868 177.03C469.922 176.725 469.076 176.093 468.689 175.604Z" fill="#1B1D69"/>
<path d="M217.688 61.0437C217.364 59.6929 216.3 58.8756 215.166 59.2916C214.383 59.5735 214.084 60.4684 213.786 61.1856C213.719 61.345 214.72 62.136 215.241 62.3061C217.213 62.894 217.999 62.4265 217.688 61.0437Z" fill="#1B1D69"/>
<path d="M1384.72 31.9611C1384.23 32.0826 1383.75 32.1643 1383.26 32.2858C1383.6 32.7085 1383.87 33.2907 1384.31 33.4743C1384.69 33.6317 1385.27 33.311 1385.76 33.1895C1385.42 32.7668 1385.08 32.344 1384.72 31.9611Z" fill="#1B1D69"/>
<path d="M1352.25 95.227L1351.56 95.8267L1352.79 96.2004L1352.25 95.227Z" fill="#1B1D69"/>
<path d="M1319.89 98.288L1318.89 99.0879L1320.45 99.598L1319.89 98.288Z" fill="#1B1D69"/>
<path d="M1252.02 108.391C1252.86 108.321 1253.64 108.225 1254.47 108.195C1254.08 107.706 1253.79 106.978 1253.29 106.768C1252.79 106.559 1252 106.84 1251.59 107.134C1251.44 107.307 1251.86 107.902 1252.02 108.391Z" fill="#1B1D69"/>
<path d="M1269.96 134.463C1269.62 134.041 1269.16 133.194 1268.87 133.169C1266.94 133.018 1266.75 133.642 1268.41 134.802C1268.65 134.946 1269.46 134.585 1269.96 134.463Z" fill="#1B1D69"/>
<path d="M1070.02 218.635C1070.52 218.514 1071.01 218.392 1071.57 218.297C1071.23 217.874 1070.73 217.108 1070.47 217.042C1068.61 216.878 1068.44 217.462 1070.02 218.635Z" fill="#1B1D69"/>
<path d="M1004.83 226.952C1004.49 226.529 1004.15 226.106 1003.79 225.723C1003.3 225.845 1002.54 225.901 1002.5 226.166C1002.46 226.432 1003.06 226.959 1003.4 227.382C1003.89 227.261 1004.32 227.113 1004.83 226.952Z" fill="#1B1D69"/>
<path d="M953.237 262.198L952.124 261.5L952.047 262.216L953.237 262.198Z" fill="#1B1D69"/>
<path d="M837.142 246.457L836.335 247.15L837.708 247.581L837.142 246.457Z" fill="#1B1D69"/>
<path d="M718.569 230.675L717.7 231.342L719.056 231.813L718.569 230.675Z" fill="#1B1D69"/>
<path d="M637.802 213.994C637.368 213.439 637.046 212.65 636.526 212.48C636.022 212.27 635.269 212.658 634.616 212.807C635.05 213.362 635.384 214.156 635.905 214.326C636.472 214.562 637.212 214.169 637.802 213.994Z" fill="#1B1D69"/>
<path d="M232.632 88.434C232.244 87.9452 231.877 87.2309 231.373 87.021C230.852 86.8509 230.242 87.2514 229.668 87.3865C230.056 87.8753 230.424 88.5896 230.928 88.7995C231.448 88.9695 232.058 88.5691 232.632 88.434Z" fill="#1B1D69"/>
<path d="M334.473 134.273C334.085 133.784 333.751 132.99 333.231 132.82C332.71 132.65 332.037 133.024 331.4 133.133C331.851 133.648 332.122 134.416 332.643 134.586C333.147 134.796 333.82 134.422 334.473 134.273Z" fill="#1B1D69"/>
<path d="M435.902 179.893C435.56 179.47 435.223 178.862 434.845 178.704C434.45 178.587 433.445 178.869 433.459 179.015C433.925 180.379 434.84 180.666 435.902 179.893Z" fill="#1B1D69"/>
</g>
</g>
<defs>
<clipPath id="clip0_69_893">
<rect width="1456" height="900" fill="white"/>
</clipPath>
</defs>
</svg>
