<svg width="169" height="66" viewBox="0 0 169 66" fill="none" xmlns="http://www.w3.org/2000/svg">
<rect width="168.403" height="65.3621" rx="32.681" fill="#FF83A6"/>
<path d="M35.7737 44.2225C28.7773 44.2225 25.7701 40.847 25.7701 34.6792H30.864C30.864 38.1774 32.2448 39.5889 35.7737 39.5889C39.3333 39.5889 40.7142 38.1774 40.7142 34.6485V22.282H45.8081V34.6485C45.8081 40.847 42.8008 44.2225 35.7737 44.2225ZM57.4994 44.2225C51.9146 44.2225 48.6312 40.5095 48.6312 35.7838C48.6312 31.0582 51.9146 27.3452 57.4994 27.3452C63.115 27.3452 66.3984 31.0582 66.3984 35.7838C66.3984 40.5095 63.115 44.2225 57.4994 44.2225ZM57.4994 39.8344C60.0464 39.8344 61.5193 38.116 61.5193 35.7838C61.5193 33.4517 60.0464 31.7333 57.4994 31.7333C54.9525 31.7333 53.4796 33.4517 53.4796 35.7838C53.4796 38.116 54.9525 39.8344 57.4994 39.8344ZM71.5121 25.5654C69.8551 25.5654 68.8731 24.43 68.8731 23.0492C68.8731 21.699 69.8551 20.5329 71.5121 20.5329C73.1692 20.5329 74.1511 21.699 74.1511 23.0492C74.1511 24.43 73.1692 25.5654 71.5121 25.5654ZM73.9977 43.7622H69.0573V27.8055H73.9977V43.7622ZM82.3877 43.7622H77.4472V27.8055H82.2036L82.3877 29.9228L81.9888 30.8741C83.0628 28.9102 84.7505 27.3452 88.0953 27.3452C92.6061 27.3452 94.6928 30.1376 94.6928 34.6485V43.7622H89.7216V35.569C89.7216 33.2062 88.7397 31.6719 86.1621 31.6719C83.5844 31.6719 82.3877 33.2062 82.3877 35.569V43.7622ZM116.212 27.8055H121.183V43.7622H116.396L116.212 41.6449L116.611 40.6936C115.537 42.6575 113.88 44.2225 110.505 44.2225C105.994 44.2225 103.938 41.4301 103.938 36.9192V27.8055H108.878V35.9986C108.878 38.3615 109.86 39.8958 112.438 39.8958C115.016 39.8958 116.212 38.3615 116.212 35.9986V27.8055ZM131.55 44.2225C127.499 44.2225 123.879 43.2712 123.848 38.9138H128.328C128.451 40.1719 129.647 40.5709 131.673 40.5709C133.974 40.5709 134.772 40.0492 134.772 39.0672C134.772 38.1467 134.158 37.8091 132.9 37.6864L129.218 37.3488C125.812 37.042 124.001 35.5997 124.001 32.5925C124.001 29.1557 126.425 27.3452 131.857 27.3452C135.416 27.3452 139.099 28.143 139.16 32.5925H134.711C134.557 31.4264 133.667 30.9355 131.673 30.9355C129.862 30.9355 128.819 31.3344 128.819 32.4698C128.819 33.329 129.433 33.6972 130.721 33.8199L134.404 34.1575C137.81 34.4643 139.651 35.6611 139.651 38.7911C139.651 42.3507 137.196 44.2225 131.55 44.2225Z" fill="white"/>
</svg>
